{
.appVersion = "3436";
.storedFileType = com.schriftgestaltung.glyphs;
.formatVersion = 3;
DisplayStrings = (
"ß /new",
"☙",
"Hello world
hello there! How are you?

",
"ÀlXg"
);
classes = (
{
automatic = 1;
code = "A Aacute Abreve Acircumflex Adieresis Agrave Amacron Aogonek Aring Atilde AE B C Cacute Ccaron Ccedilla Ccircumflex Cdotaccent D Dcaron Dcroat Eth E Eacute Ebreve Ecaron Ecircumflex Edieresis Edotaccent Egrave Emacron Eogonek F G Gbreve Gcircumflex Gcommaaccent Gdotaccent H Hbar Hcircumflex I IJ Iacute Ibreve Icircumflex Idieresis Idotaccent Igrave Imacron Iogonek Itilde J Jcircumflex K Kcommaaccent L Lacute Lcaron Lcommaaccent Ldot Lslash M N Nacute Ncaron Ncommaaccent Ntilde Eng O Oacute Obreve Ocircumflex Odieresis Ograve Ohungarumlaut Omacron Oslash Otilde OE P Thorn Q R Racute Rcaron Rcommaaccent S Sacute Scaron Scedilla Scircumflex Scommaaccent Germandbls T Tcaron Tcedilla Tcommaaccent U Uacute Ubreve Ucircumflex Udieresis Ugrave Uhungarumlaut Umacron Uogonek Uring Utilde V W Wacute Wcircumflex Wdieresis Wgrave X Y Yacute Ycircumflex Ydieresis Ygrave Z Zacute Zcaron Zdotaccent G.ss01 H.ss01 K.ss01 W.ss01 X.ss01 W.ss02 W.ss03 W.ss04 Q_U";
name = Uppercase;
}
);
customParameters = (
{
name = fsType;
value = (
);
},
{
name = "Use Typo Metrics";
value = 1;
},
{
name = "EditView Line Height";
value = 1120;
}
);
date = "2026-07-02 07:36:52 +0000";
familyName = "Metropolitan Line";
featurePrefixes = (
{
automatic = 1;
code = "languagesystem DFLT dflt;

languagesystem latn dflt;
languagesystem latn AZE;
languagesystem latn CRT;
languagesystem latn KAZ;
languagesystem latn TAT;
languagesystem latn TRK;
languagesystem latn ROM;
languagesystem latn MOL;
languagesystem latn CAT;
";
name = Languagesystems;
}
);
features = (
{
automatic = 1;
code = "feature locl;
feature subs;
feature sinf;
feature sups;
feature ordn;
feature case;
feature ss01;
feature ss02;
feature ss03;
feature ss04;
";
tag = aalt;
},
{
automatic = 1;
code = "lookup ccmp_DFLT_1 {

glyphs = (
{
color = 4;
glyphname = A;
kernLeft = A;
kernRight = A;
lastChange = "2026-07-06 15:11:03 +0000";
layers = (
{
.lastUpdate = 805043467.826;
anchors = (
{
name = bottom;
pos = (338,0);
},
{
name = ogonek;
pos = (665,0);
},
{
name = top;
pos = (338,700);
}
);
layerId = m001;
shapes = (
{
closed = 1;
nodes = (
(122,0,l),
(336,526,l),
(555,0,l),
(665,0,l),
(378,700,l),
(299,700,l),
(12,0,l)
);
},
{
closed = 1;
nodes = (
(503,175,l),
(459,270,l),
(218,270,l),
(174,175,l)
);
}
);
width = 677;
}
);
unicode = 65;
userData = {
KernOnName = A;
};
},
{
color = 5;
glyphname = AE;
kernLeft = A;
kernRight = E;
lastChange = "2026-07-02 06:43:55 +0000";
layers = (
{
anchors = (
{
name = bottom;
pos = (391,0);
},
{
name = ogonek;
pos = (250,0);
},
{
name = top;
pos = (461,700);
}
);
layerId = m001;
shapes = (
{
closed = 1;
nodes = (
(881,0,l),
(881,100,l),
(571,100,l),
(571,325,l),
(784,325,l),
(784,425,l),
(571,425,l),
(571,600,l),
(861,600,l),
(861,700,l),
(461,700,l),
(461,0,l)
);
},
{
closed = 1;
nodes = (
(488,175,l),
(488,270,l),
(203,270,l),
(159,175,l)
);
},
{
closed = 1;
nodes = (
(389,700,l),
(12,0,l),
(132,0,l),
(507,700,l)
);
},
{
closed = 1;
nodes = (
(425,600,l),
(571,600,l),
(571,700,l),
(425,700,l)
);
}
);
width = 905;
}
);
metricLeft = A;
metricRight = E;
unicode = 198;
},
{
color = 4;
glyphname = B;
kernLeft = H;
kernRight = B;
lastChange = "2026-07-01 11:38:21 +0000";
layers = (
{
layerId = m001;
shapes = (
{
closed = 1;
nodes = (
(283,0,ls),
(428,0,o),
(526,92,o),
(526,209,cs),
(526,304,o),
(488,365,o),
(396,399,c),
(437,436,o),
(453,468,o),
(453,518,cs),
(453,620,o),
(367,700,o),
(240,700,cs),
(50,700,l),
(50,0,l)
);
},
{
closed = 1;
nodes = (
(160,332,l),
(213,332,l),
(282,332,ls),
(367,332,o),
(414,280,o),
(414,210,cs),
(414,147,o),
(368,100,o),
(284,100,cs),
(160,100,l)
);
},
{
closed = 1;
nodes = (
(160,600,l),
(240,600,ls),
(304,600,o),
(341,565,o),
(341,518,cs),
(341,469,o),
(305,432,o),
(243,432,cs),
(160,432,l)
);
}
);
width = 546;
}
);
metricLeft = H;
unicode = 66;
},
{
color = 4;
glyphname = C;
kernLeft = O;
kernRight = C;
lastChange = "2026-07-01 11:38:21 +0000";
layers = (
{
anchors = (
{
name = bottom;
pos = (388,0);
},
{
name = top;
pos = (387,700);
}
);
layerId = m001;
shapes = (
{
closed = 1;
nodes = (
(493,-10,o),
(568,23,o),
(633,68,c),
(633,203,l),
(582,138,o),
(489,90,o),
(392,90,cs),
(242,90,o),
(130,206,o),
(130,360,cs),
(130,504,o),
(241,612,o),
(389,612,cs),
(485,612,o),
(580,568,o),
(635,509,c),
(635,640,l),
(570,681,o),
(501,712,o),
(387,712,cs),
(176,712,o),
(18,561,o),
(18,360,cs),
(18,149,o),
(177,-10,o),
(388,-10,cs)
);
}
);
width = 653;
}
);
metricLeft = O;
metricRight = O;
unicode = 67;
userData = {
KernOnName = C;
};
},
{
color = 4;
glyphname = D;
kernLeft = H;
kernRight = O;
lastChange = "2026-07-01 11:37:32 +0000";
layers = (
{
anchors = (
{
name = bottom;
pos = (342,0);
},
{
name = center;
pos = (170,350);
},
{
name = top;
pos = (293,700);
}
);
layerId = m001;
shapes = (
{
closed = 1;
nodes = (
(295,0,ls),
(501,0,o),
(655,155,o),
(655,361,cs),
(655,555,o),
(500,700,o),
(293,700,cs),
(50,700,l),
(50,0,l)
);
},
{
closed = 1;
nodes = (
(160,600,l),
(295,600,ls),
(437,600,o),
(543,497,o),
(543,359,cs),
(543,211,o),
(437,100,o),
(295,100,cs),
(160,100,l)
);
}
);
width = 673;
}
);
metricLeft = H;
metricRight = O;
unicode = 68;
},
{
color = 4;
glyphname = E;
kernLeft = H;
kernRight = E;
lastChange = "2026-07-01 11:37:32 +0000";
layers = (
{
anchors = (
{
name = bottom;
pos = (257,0);
},
{
name = ogonek;
pos = (420,0);
},
{
name = top;
pos = (260,700);
},
{
name = topleft;
pos = (50,700);
}
);
layerId = m001;
shapes = (
{
closed = 1;
nodes = (
(490,0,l),
(490,100,l),
(160,100,l),
(160,325,l),
(393,325,l),
(393,425,l),
(160,425,l),
(160,600,l),
(470,600,l),
(470,700,l),
(50,700,l),
(50,0,l)
);
}
);
width = 514;
}
);
metricLeft = H;
unicode = 69;
},
{
color = 4;
glyphname = F;
kernLeft = H;
kernRight = F;
lastChange = "2026-07-01 11:38:21 +0000";
layers = (
{
layerId = m001;
shapes = (
{
closed = 1;
nodes = (
(160,0,l),
(160,325,l),
(393,325,l),
(393,425,l),
(160,425,l),
(160,600,l),
(470,600,l),
(470,700,l),
(50,700,l),
(50,0,l)
);
}
);
width = 494;
}
);
metricLeft = H;
unicode = 70;
userData = {
KernOnName = F;
};
},
{
color = 4;
glyphname = G;
kernLeft = O;
kernRight = C;
lastChange = "2026-07-01 11:37:32 +0000";
layers = (
{
anchors = (
{
name = bottom;
pos = (383,0);
},
{
name = top;
pos = (390,700);
}
);
layerId = m001;
shapes = (
{
closed = 1;
nodes = (
(487,-10,o),
(584,18,o),
(665,68,c),
(665,398,l),
(441,398,l),
(441,298,l),
(555,298,l),
(555,82,l),
(591,140,l),
(530,106,o),
(458,92,o),
(383,92,cs),
(234,92,o),
(130,211,o),
(130,365,cs),
(130,501,o),
(238,610,o),
(386,610,cs),
(494,610,o),
(592,574,o),
(653,515,c),
(653,640,l),
(578,684,o),
(483,712,o),
(390,712,cs),
(164,712,o),
(18,542,o),
(18,365,cs),
(18,156,o),
(183,-10,o),
(383,-10,cs)
);
}
);
width = 706;
}
);
metricLeft = O;
unicode = 71;
userData = {
KernOnName = G;
};
},
{
color = 4;
glyphname = H;
kernLeft = H;
kernRight = H;
lastChange = "2026-07-01 11:38:13 +0000";
layers = (
{
anchors = (
{
name = bottom;
pos = (339,0);
},
{
name = center;
pos = (339,560);
},
{
name = top;
pos = (339,700);
},
{
name = topleft;
pos = (50,700);
}
);
layerId = m001;
shapes = (
{
closed = 1;
nodes = (
(160,0,l),
(160,311,l),
(517,311,l),
(517,0,l),
(627,0,l),
(627,700,l),
(517,700,l),
(517,411,l),
(160,411,l),
(160,700,l),
(50,700,l),
(50,0,l)
);
}
);
width = 677;
}
);
unicode = 72;
userData = {
KernOnName = H;
};
},
{
color = 4;
glyphname = Hbar;
kernLeft = H;
kernRight = H;
lastChange = "2026-07-01 11:38:11 +0000";
layers = (
{
.lastUpdate = 805116814.633;
layerId = m001;
shapes = (
{
closed = 1;
nodes = (
(677,521,l),
(677,606,l),
(0,606,l),
(0,521,l)
);
},
{
ref = H;
}
);
width = 677;
}
);
unicode = 294;
},
{
color = 4;
glyphname = I;
kernLeft = I;
kernRight = I;
lastChange = "2026-07-01 11:38:21 +0000";
layers = (
{
anchors = (
{
name = bottom;
pos = (115,0);
},
{
name = ogonek;
pos = (170,0);
},
{
name = top;
pos = (115,700);
},
{
name = topleft;
pos = (60,700);
}
);
layerId = m001;
shapes = (
{
closed = 1;
nodes = (
(170,0,l),
(170,700,l),
(60,700,l),
(60,0,l)
);
}
);
width = 230;
}
);
metricLeft = "=H+10";
metricRight = "=H+10";
unicode = 73;
},
{
color = 4;
glyphname = IJ;
kernLeft = H;
kernRight = H;
lastChange = "2026-07-02 07:02:47 +0000";
layers = (
{
anchors = (
{
name = bottom;
pos = (254,0);
},
{
name = top;
pos = (254,700);
}
);
layerId = m001;
shapes = (
{
closed = 1;
nodes = (
(178,260,l),
(178,700,l),
(68,700,l),
(68,260,l)
);
},
{
closed = 1;
nodes = (
(360,-10,o),
(440,74,o),
(440,197,c),
(440,700,l),
(330,700,l),
(330,195,ls),
(330,134,o),
(294,92,o),
(242,92,cs),
(205,92,o),
(171,123,o),
(154,172,c),
(60,121,l),
(92,43,o),
(166,-10,o),
(243,-10,cs)
);
}
);
width = 490;
}
);
metricLeft = I;
metricRight = J;
unicode = 306;
},
{
color = 4;
glyphname = J;
kernLeft = J;
kernRight = U;
lastChange = "2026-07-01 11:38:21 +0000";
layers = (
{
anchors = (
{
name = bottom;
pos = (204,0);
},
{
name = top;
pos = (345,700);
}
);
layerId = m001;
shapes = (
{
closed = 1;
nodes = (
(320,-10,o),
(400,74,o),
(400,197,cs),
(400,700,l),
(290,700,l),
(290,195,ls),
(290,134,o),
(254,92,o),
(202,92,cs),
(165,92,o),
(131,123,o),
(114,172,c),
(20,121,l),
(52,43,o),
(126,-10,o),
(203,-10,cs)
);
}
);
width = 450;
}
);
metricRight = H;
unicode = 74;
userData = {
KernOnName = J;
};
},
{
color = 4;
glyphname = K;
kernLeft = H;
kernRight = K;
lastChange = "2026-07-01 11:37:32 +0000";
layers = (
{
anchors = (
{
name = bottom;
pos = (318,0);
},
{
name = top;
pos = (317,700);
}
);
guides = (
{
angle = 90;
pos = (606,187);
},
{
angle = 90;
pos = (160,700);
}
);
layerId = m001;
shapes = (
{
closed = 1;
nodes = (
(160,0,l),
(160,332,l),
(476,0,l),
(620,0,l),
(260,382,l),
(620,700,l),
(474,700,l),
(160,423,l),
(160,700,l),
(50,700,l),
(50,0,l)
);
}
);
width = 632;
}
);
metricLeft = H;
unicode = 75;
},
{
color = 4;
glyphname = L;
kernLeft = H;
kernRight = L;
lastChange = "2026-07-01 11:37:32 +0000";
layers = (
{
anchors = (
{
name = bottom;
pos = (259,0);
},
{
name = center;
pos = (297,382);
},
{
name = top;
pos = (105,700);
},
{
name = topright;
pos = (336,700);
}
);
layerId = m001;
shapes = (
{
closed = 1;
nodes = (
(468,0,l),
(468,100,l),
(160,100,l),
(160,700,l),
(50,700,l),
(50,0,l)
);
}
);
width = 480;
}
);
metricLeft = H;
unicode = 76;
userData = {
KernOnName = L;
};
},
{
color = 4;
glyphname = Lslash;
kernLeft = L;
kernRight = L;
lastChange = "2026-07-01 11:38:21 +0000";
layers = (
{
.lastUpdate = 805116814.636;
layerId = m001;
shapes = (
{
pos = (40,0);
ref = L;
},
{
closed = 1;
nodes = (
(109,232,l),
(175,282,l),
(348,440,l),
(348,555,l),
(172,395,l),
(112,350,l),
(30,275,l),
(30,160,l)
);
}
);
width = 520;
}
);
metricLeft = "=L-20";
metricRight = L;
unicode = 321;
},
{
color = 4;
glyphname = M;
kernLeft = H;
kernRight = H;
lastChange = "2026-07-01 11:37:32 +0000";
layers = (
{
anchors = (
{
name = bottom;
pos = (407,0);
},
{
name = top;
pos = (407,700);
}
);
layerId = m001;
shapes = (
{
closed = 1;
nodes = (
(160,0,l),
(160,540,l),
(407,240,l),
(654,540,l),
(654,0,l),
(764,0,l),
(764,700,l),
(652,700,l),
(407,400,l),
(162,700,l),
(50,700,l),
(50,0,l)
);
}
);
width = 814;
}
);
metricLeft = H;
metricRight = H;
unicode = 77;
},
{
color = 4;
glyphname = N;
kernLeft = H;
kernRight = H;
lastChange = "2026-07-01 11:37:32 +0000";
layers = (
{
anchors = (
{
name = bottom;
pos = (379,0);
},
{
name = top;
pos = (379,700);
}
);
layerId = m001;
shapes = (
{
closed = 1;
nodes = (
(160,0,l),
(160,533,l),
(595,0,l),
(707,0,l),
(707,700,l),
(597,700,l),
(597,169,l),
(163,700,l),
(50,700,l),
(50,0,l)
);
}
);
width = 757;
}
);
metricLeft = H;
metricRight = H;
unicode = 78;
userData = {
KernOnName = N;
};
},
{
color = 4;
glyphname = Eng;
kernLeft = H;
kernRight = H;
lastChange = "2026-07-01 11:37:32 +0000";
layers = (
{
anchors = (
{
name = bottom;
pos = (379,-225);
},
{
name = top;
pos = (379,700);
}
);
layerId = m001;
shapes = (
{
closed = 1;
nodes = (
(160,0,l),
(160,533,l),
(595,0,l),
(595,-95,o),
(568,-134,o),
(515,-134,cs),
(509,-134,o),
(503,-134,o),
(497,-133,c),
(497,-232,l),
(511,-234,o),
(536,-235,o),
(548,-235,cs),
(661,-235,o),
(707,-155,o),
(707,0,cs),
(707,700,l),
(597,700,l),
(597,169,l),
(163,700,l),
(50,700,l),
(50,0,l)
);
}
);
width = 757;
}
);
metricLeft = H;
metricRight = H;
unicode = 330;
},
{
color = 4;
glyphname = O;
kernLeft = O;
kernRight = O;
lastChange = "2026-07-01 11:37:32 +0000";
layers = (
{
anchors = (
{
name = bottom;
pos = (395,0);
},
{
name = center;
pos = (395,350);
},
{
name = ogonek;
pos = (573,32);
},
{
name = top;
pos = (395,700);
},
{
name = topleft;
pos = (-95,722);
},
{
name = topright;
pos = (770,700);
}
);
guides = (
{
angle = 180;
pos = (395,351);
},
{
angle = 90;
pos = (395,351);
}
);
layerId = m001;
shapes = (
{
closed = 1;
nodes = (
(606,-10,o),
(772,149,o),
(772,351,cs),
(772,553,o),
(606,712,o),
(395,712,cs),
(184,712,o),
(18,553,o),
(18,351,cs),
(18,149,o),
(184,-10,o),
(395,-10,cs)
);
},
{
closed = 1;
nodes = (
(247,92,o),
(130,206,o),
(130,351,cs),
(130,496,o),
(247,610,o),
(395,610,cs),
(543,610,o),
(660,496,o),
(660,351,cs),
(660,206,o),
(543,92,o),
(395,92,cs)
);
}
);
width = 790;
}
);
unicode = 79;
},
{
color = 4;
glyphname = Oslash;
kernLeft = O;
kernRight = O;
lastChange = "2026-07-01 11:37:32 +0000";
layers = (
{
.lastUpdate = 805116814.636;
layerId = m001;
shapes = (
{
ref = O;
},
{
closed = 1;
nodes = (
(289,30,l),
(306,85,l),
(551,587,l),
(592,650,l),
(656,781,l),
(561,781,l),
(512,682,l),
(480,627,l),
(236,128,l),
(214,72,l),
(150,-58,l),
(246,-58,l)
);
}
);
width = 790;
}
);
metricLeft = O;
metricRight = O;
unicode = 216;
},
{
color = 4;
glyphname = OE;
kernLeft = O;
kernRight = E;
lastChange = "2026-07-01 11:37:32 +0000";
layers = (
{
anchors = (
{
name = bottom;
pos = (576,0);
},
{
name = top;
pos = (576,700);
}
);
guides = (
{
angle = 90;
pos = (576,752);
}
);
layerId = m001;
shapes = (
{
closed = 1;
nodes = (
(606,-10,o),
(757,149,o),
(757,351,cs),
(757,553,o),
(606,712,o),
(395,712,cs),
(184,712,o),
(18,553,o),
(18,351,cs),
(18,149,o),
(184,-10,o),
(395,-10,cs)
);
},
{
closed = 1;
nodes = (
(247,92,o),
(130,206,o),
(130,351,cs),
(130,496,o),
(247,610,o),
(395,610,cs),
(543,610,o),
(645,496,o),
(645,351,cs),
(645,206,o),
(543,92,o),
(395,92,cs)
);
},
{
closed = 1;
nodes = (
(1066,0,l),
(1066,100,l),
(756,100,l),
(756,325,l),
(969,325,l),
(969,425,l),
(756,425,l),
(756,600,l),
(1046,600,l),
(1046,700,l),
(646,700,l),
(646,0,l)
);
}
);
width = 1090;
}
);
metricLeft = O;
metricRight = E;
unicode = 338;
},
{
color = 4;
glyphname = P;
kernLeft = H;
kernRight = P;
lastChange = "2026-07-01 11:37:32 +0000";
layers = (
{
layerId = m001;
shapes = (
{
closed = 1;
nodes = (
(160,0,l),
(160,268,l),
(259,268,ls),
(393,268,o),
(499,363,o),
(499,484,cs),
(499,605,o),
(393,700,o),
(258,700,cs),
(50,700,l),
(50,0,l)
);
},
{
closed = 1;
nodes = (
(160,600,l),
(259,600,ls),
(334,600,o),
(387,552,o),
(387,484,cs),
(387,416,o),
(334,368,o),
(259,368,cs),
(160,368,l)
);
}
);
width = 519;
}
);
metricLeft = H;
unicode = 80;
userData = {
KernOnName = P;
};
},
{
color = 4;
glyphname = Thorn;
kernLeft = H;
kernRight = P;
lastChange = "2026-07-01 11:37:32 +0000";
layers = (
{
layerId = m001;
shapes = (
{
closed = 1;
nodes = (
(160,0,l),
(160,208,l),
(259,208,ls),
(393,208,o),
(499,288,o),
(499,409,cs),
(499,530,o),
(393,610,o),
(258,610,cs),
(160,610,l),
(160,700,l),
(50,700,l),
(50,0,l)
);
},
{
closed = 1;
nodes = (
(160,510,l),
(259,510,ls),
(334,510,o),
(387,477,o),
(387,409,cs),
(387,341,o),
(334,308,o),
(259,308,cs),
(160,308,l)
);
}
);
width = 519;
}
);
metricLeft = H;
metricRight = P;
unicode = 222;
},
{
color = 4;
glyphname = Q;
kernLeft = O;
kernRight = O;
lastChange = "2026-07-01 11:37:32 +0000";
layers = (
{
.lastUpdate = 805116900.941;
layerId = m001;
shapes = (
{
closed = 1;
nodes = (
(768,59,l),
(542,256,l),
(477,182,l),
(702,-15,l)
);
},
{
ref = O;
}
);
width = 790;
}
);
metricLeft = O;
unicode = 81;
},
{
color = 4;
glyphname = R;
kernLeft = H;
kernRight = R;
lastChange = "2026-07-01 11:37:32 +0000";
layers = (
{
anchors = (
{
name = bottom;
pos = (299,0);
},
{
name = top;
pos = (222,700);
}
);
guides = (
{
angle = 90;
pos = (465,499);
}
);
layerId = m001;
shapes = (
{
closed = 1;
nodes = (
(160,0,l),
(160,295,l),
(259,295,ls),
(370,295,o),
(465,385,o),
(465,499,cs),
(465,612,o),
(365,700,o),
(248,700,cs),
(50,700,l),
(50,0,l)
);
},
{
closed = 1;
nodes = (
(569,0,l),
(339,335,l),
(233,308,l),
(447,0,l)
);
},
{
closed = 1;
nodes = (
(160,600,l),
(236,600,ls),
(302,600,o),
(353,555,o),
(353,498,cs),
(353,443,o),
(315,397,o),
(267,397,cs),
(160,397,l)
);
}
);
width = 589;
}
);
metricLeft = H;
unicode = 82;
userData = {
KernOnName = R;
};
},
{
color = 4;
glyphname = S;
kernLeft = S;
kernRight = S;
lastChange = "2026-07-01 11:37:32 +0000";
layers = (
{
anchors = (
{
name = bottom;
pos = (226,0);
},
{
name = top;
pos = (228,700);
}
);
guides = (
{
pos = (81,529);
},
{
angle = 90.548;
pos = (229,92);
}
);
layerId = m001;
shapes = (
{
closed = 1;
nodes = (
(351,-10,o),
(450,73,o),
(450,201,cs),
(450,329,o),
(372,370,o),
(265,425,cs),
(184,467,o),
(141,489,o),
(141,542,cs),
(141,585,o),
(177,610,o),
(219,610,cs),
(272,610,o),
(299,581,o),
(318,543,c),
(404,607,l),
(372,668,o),
(312,712,o),
(223,712,cs),
(115,712,o),
(24,643,o),
(24,537,cs),
(24,433,o),
(96,383,o),
(186,342,cs),
(282,298,o),
(338,267,o),
(338,190,cs),
(338,127,o),
(297,92,o),
(229,92,cs),
(167,92,o),
(124,131,o),
(103,190,c),
(10,131,l),
(46,47,o),
(124,-10,o),
(229,-10,cs)
);
}
);
width = 460;
}
);
unicode = 83;
},
{
color = 4;
glyphname = Germandbls;
kernLeft = H;
kernRight = B;
lastChange = "2026-07-02 07:25:10 +0000";
layers = (
{
background = {
shapes = (
{
closed = 1;
nodes = (
(362,0,ls),
(507,0,o),
(605,92,o),
(605,209,cs),
(605,304,o),
(567,365,o),
(475,399,c),
(516,436,o),
(532,468,o),
(532,518,cs),
(532,620,o),
(446,700,o),
(319,700,cs),
(129,700,l),
(129,0,l)
);
},
{
closed = 1;
nodes = (
(239,332,l),
(292,332,l),
(361,332,ls),
(446,332,o),
(493,280,o),
(493,210,cs),
(493,147,o),
(447,100,o),
(363,100,cs),
(239,100,l)
);
},
{
closed = 1;
nodes = (
(239,600,l),
(319,600,ls),
(383,600,o),
(420,565,o),
(420,518,cs),
(420,469,o),
(384,432,o),
(322,432,cs),
(239,432,l)
);
}
);
};
layerId = m001;
shapes = (
{
closed = 1;
nodes = (
(497,562,l),
(478,638,o),
(389,712,o),
(262,712,cs),
(138,712,o),
(50,641,o),
(50,540,cs),
(50,0,l),
(160,0,l),
(160,511,ls),
(160,575,o),
(200,612,o),
(269,612,cs),
(324,612,o),
(382,578,o),
(382,532,c),
(387,571,l),
(240,314,l),
(269,319,o),
(290,322,o),
(315,322,cs),
(420,322,o),
(484,278,o),
(484,203,cs),
(484,139,o),
(440,91,o),
(371,91,cs),
(315,91,o),
(266,123,o),
(238,158,c),
(238,32,l),
(277,7,o),
(324,-10,o),
(376,-10,cs),
(498,-10,o),
(596,86,o),
(596,203,cs),
(596,319,o),
(502,399,o),
(391,413,c),
(395,398,l)
);
}
);
width = 616;
}
);
metricLeft = L;
metricRight = B;
unicode = 7838;
},
{
color = 4;
glyphname = T;
kernLeft = T;
kernRight = T;
lastChange = "2026-07-01 11:37:32 +0000";
layers = (
{
anchors = (
{
name = bottom;
pos = (288,0);
},
{
name = center;
pos = (288,350);
},
{
name = top;
pos = (288,700);
}
);
layerId = m001;
shapes = (
{
closed = 1;
nodes = (
(343,0,l),
(343,600,l),
(556,600,l),
(556,700,l),
(20,700,l),
(20,600,l),
(233,600,l),
(233,0,l)
);
}
);
width = 576;
}
);
unicode = 84;
userData = {
KernOnName = T;
};
},
{
color = 4;
glyphname = U;
kernLeft = U;
kernRight = U;
lastChange = "2026-07-01 11:38:21 +0000";
layers = (
{
anchors = (
{
name = bottom;
pos = (353,0);
},
{
name = ogonek;
pos = (494,24);
},
{
name = top;
pos = (353,700);
},
{
name = topright;
pos = (656,700);
}
);
guides = (
{
pos = (333,287);
}
);
layerId = m001;
shapes = (
{
closed = 1;
nodes = (
(523,-10,o),
(656,121,o),
(656,287,c),
(656,700,l),
(546,700,l),
(546,287,ls),
(546,177,o),
(461,92,o),
(353,92,cs),
(245,92,o),
(160,177,o),
(160,287,cs),
(160,700,l),
(50,700,l),
(50,287,ls),
(50,121,o),
(183,-10,o),
(353,-10,cs)
);
}
);
width = 706;
}
);
metricLeft = H;
metricRight = H;
unicode = 85;
userData = {
KernOnName = U;
};
},
{
color = 4;
glyphname = V;
kernLeft = V;
kernRight = V;
lastChange = "2026-07-01 11:37:32 +0000";
layers = (
{
anchors = (
{
name = bottom;
pos = (333,0);
},
{
name = top;
pos = (333,700);
}
);
layerId = m001;
shapes = (
{
closed = 1;
nodes = (
(371,0,l),
(654,700,l),
(546,700,l),
(337,168,l),
(122,700,l),
(12,700,l),
(295,0,l)
);
}
);
width = 666;
}
);
unicode = 86;
userData = {
KernOnName = V;
};
},
{
color = 4;
glyphname = W;
kernLeft = V;
kernRight = V;
lastChange = "2026-07-01 11:38:21 +0000";
layers = (
{
anchors = (
{
name = bottom;
pos = (498,0);
},
{
name = top;
pos = (499,700);
}
);
layerId = m001;
shapes = (
{
closed = 1;
nodes = (
(343,0,l),
(498,508,l),
(653,0,l),
(753,0,l),
(984,700,l),
(879,700,l),
(707,166,l),
(553,678,l),
(448,678,l),
(295,166,l),
(121,700,l),
(12,700,l),
(243,0,l)
);
}
);
width = 996;
}
);
metricLeft = V;
metricRight = V;
unicode = 87;
userData = {
KernOnName = W;
};
},
{
color = 4;
glyphname = X;
kernLeft = X;
kernRight = X;
lastChange = "2026-07-01 11:37:32 +0000";
layers = (
{
anchors = (
{
name = bottom;
pos = (358,0);
},
{
name = top;
pos = (358,700);
}
);
layerId = m001;
shapes = (
{
closed = 1;
nodes = (
(705,0,l),
(170,700,l),
(44,700,l),
(576,0,l)
);
},
{
closed = 1;
nodes = (
(139,0,l),
(368,300,l),
(304,384,l),
(12,0,l)
);
},
{
closed = 1;
nodes = (
(671,700,l),
(545,700,l),
(347,441,l),
(411,357,l)
);
}
);
width = 715;
}
);
unicode = 88;
},
{
color = 4;
glyphname = Y;
kernLeft = Y;
kernRight = Y;
lastChange = "2026-07-01 11:37:32 +0000";
layers = (
{
anchors = (
{
name = bottom;
pos = (298,0);
},
{
name = top;
pos = (299,700);
},
{
name = topleft;
pos = (10,700);
}
);
guides = (
{
pos = (299,329);
},
{
angle = 90;
pos = (299,0);
}
);
layerId = m001;
shapes = (
{
closed = 1;
nodes = (
(354,0,l),
(354,316,l),
(588,700,l),
(475,700,l),
(299,406,l),
(123,700,l),
(7,700,l),
(244,317,l),
(244,0,l)
);
}
);
width = 595;
}
);
unicode = 89;
userData = {
KernOnName = Y;
};
},
{
color = 4;
glyphname = Z;
kernLeft = Z;
kernRight = Z;
lastChange = "2026-07-01 11:37:32 +0000";
layers = (
{
anchors = (
{
name = bottom;
pos = (339,0);
},
{
name = center;
pos = (348,350);
},
{
name = top;
pos = (354,700);
}
);
guides = (
{
angle = 180;
pos = (436,101);
},
{
angle = 270;
pos = (53,650);
},
{
angle = 90;
pos = (645,51);
}
);
layerId = m001;
shapes = (
{
closed = 1;
nodes = (
(645,0,l),
(645,100,l),
(227,100,l),
(655,700,l),
(53,700,l),
(53,600,l),
(462,600,l),
(33,0,l)
);
}
);
width = 670;
}
);
unicode = 90;
userData = {
KernOnName = Z;
};
},
{
color = 4;
glyphname = G.ss01;
kernLeft = O;
kernRight = C;
lastChange = "2026-07-02 07:13:48 +0000";
layers = (
{
anchors = (
{
name = bottom;
pos = (360,0);
},
{
name = top;
pos = (360,700);
}
);
layerId = m001;
shapes = (
{
closed = 1;
nodes = (
(487,-10,o),
(584,18,o),
(665,68,c),
(665,332,l),
(555,332,l),
(555,82,l),
(591,140,l),
(530,106,o),
(458,92,o),
(383,92,cs),
(234,92,o),
(130,211,o),
(130,365,cs),
(130,501,o),
(238,610,o),
(386,610,cs),
(494,610,o),
(592,574,o),
(653,515,c),
(653,640,l),
(578,684,o),
(483,712,o),
(390,712,cs),
(164,712,o),
(18,542,o),
(18,365,cs),
(18,156,o),
(183,-10,o),
(383,-10,cs)
);
}
);
width = 720;
}
);
},
{
color = 4;
glyphname = H.ss01;
kernLeft = H;
kernRight = H;
lastChange = "2026-07-02 07:14:00 +0000";
layers = (
{
anchors = (
{
name = bottom;
pos = (359,0);
},
{
name = center;
pos = (359,560);
},
{
name = top;
pos = (359,700);
},
{
name = topleft;
pos = (50,700);
}
);
layerId = m001;
shapes = (
{
closed = 1;
nodes = (
(160,0,l),
(160,311,l),
(557,311,l),
(557,0,l),
(667,0,l),
(667,700,l),
(557,700,l),
(557,411,l),
(160,411,l),
(160,700,l),
(50,700,l),
(50,0,l)
);
}
);
width = 717;
}
);
userData = {
KernOnName = H;
};
},
{
color = 4;
glyphname = K.ss01;
kernLeft = H;
kernRight = K;
lastChange = "2026-07-01 11:37:32 +0000";
layers = (
{
layerId = m001;
shapes = (
{
closed = 1;
nodes = (
(476,0,l),
(620,0,l),
(296,382,l),
(620,700,l),
(474,700,l),
(149,381,l)
);
},
{
closed = 1;
nodes = (
(160,700,l),
(50,700,l),
(50,0,l),
(160,0,l)
);
}
);
width = 632;
}
);
metricLeft = H;
metricRight = K;
},
{
color = 8;
glyphname = W.ss01;
kernLeft = V;
kernRight = V;
lastChange = "2026-07-06 13:06:31 +0000";
layers = (
{
.lastUpdate = 805035991.961;
anchors = (
{
name = bottom;
pos = (492,0);
},
{
name = top;
pos = (492,700);
}
);
layerId = m001;
shapes = (
{
closed = 1;
nodes = (
(391,0,l),
(674,700,l),
(567,700,l),
(340,138,l),
(348,138,l),
(124,700,l),
(12,700,l),
(295,0,l)
);
},
{
closed = 1;
nodes = (
(691,0,l),
(974,700,l),
(867,700,l),
(638,138,l),
(646,138,l),
(424,700,l),
(312,700,l),
(595,0,l)
);
}
);
width = 986;
}
);
metricLeft = V;
metricRight = V;
},
{
color = 8;
glyphname = X.ss01;
kernLeft = X;
kernRight = X;
lastChange = "2026-07-06 13:06:38 +0000";
layers = (
{
anchors = (
{
name = bottom;
pos = (282,0);
},
{
name = top;
pos = (282,700);
}
);
layerId = m001;
shapes = (
{
closed = 1;
nodes = (
(553,0,l),
(137.625,700,l),
(21.443,700,l),
(434.433,0,l)
);
},
{
closed = 1;
nodes = (
(128.977,0,l),
(305.053,300,l),
(244.167,384,l),
(12,0,l)
);
},
{
closed = 1;
nodes = (
(545.967,700,l),
(429.785,700,l),
(278.356,441,l),
(333.504,347.479,l)
);
}
);
width = 563;
}
);
metricLeft = X;
metricRight = X;
},
{
color = 8;
glyphname = W.ss02;
kernLeft = V;
kernRight = V;
lastChange = "2026-07-02 07:14:08 +0000";
layers = (
{
anchors = (
{
name = bottom;
pos = (462,0);
},
{
name = top;
pos = (462,700);
}
);
layerId = m001;
shapes = (
{
closed = 1;
nodes = (
(642,0,l),
(911,700,l),
(812,700,l),
(590,124,l)
);
},
{
closed = 1;
nodes = (
(713,0,l),
(474,700,l),
(369,700,l),
(610,0,l)
);
},
{
closed = 1;
nodes = (
(305,0,l),
(486,446,l),
(427,548,l),
(253,124,l)
);
},
{
closed = 1;
nodes = (
(384,0,l),
(115,700,l),
(12,700,l),
(273,0,l)
);
}
);
width = 923;
}
);
metricLeft = V;
metricRight = V;
},
{
color = 8;
glyphname = W.ss03;
kernLeft = V;
kernRight = V;
lastChange = "2026-07-02 07:12:50 +0000";
layers = (
{
anchors = (
{
name = bottom;
pos = (458,0);
},
{
name = top;
pos = (459,700);
}
);
background = {
shapes = (
{
closed = 1;
nodes = (
(652,0,l),
(620,82,l),
(858,700,l),
(751,700,l),
(570,230,l),
(391,700,l),
(284,700,l),
(368,474,l),
(274,231,l),
(95,700,l),
(-12,700,l),
(249,0,l),
(357,0,l),
(324,83,l),
(420,333,l),
(544,0,l)
);
}
);
};
layerId = m001;
shapes = (
{
closed = 1;
nodes = (
(343,0,l),
(463,400,l),
(448,400,l),
(563,0,l),
(663,0,l),
(864,700,l),
(759,700,l),
(617,166,l),
(500,548,l),
(410,548,l),
(295,166,l),
(121,700,l),
(12,700,l),
(243,0,l)
);
}
);
width = 876;
}
);
metricLeft = V;
metricRight = V;
},
{
color = 8;
glyphname = W.ss04;
kernLeft = V;
kernRight = V;
lastChange = "2026-07-01 11:37:49 +0000";
layers = (
{
anchors = (
{
name = bottom;
pos = (458,0);
},
{
name = top;
pos = (459,700);
}
);
background = {
shapes = (
{
closed = 1;
nodes = (
(676,0,l),
(644,82,l),
(882,700,l),
(775,700,l),
(594,230,l),
(415,700,l),
(308,700,l),
(392,474,l),
(298,231,l),
(119,700,l),
(12,700,l),
(273,0,l),
(381,0,l),
(348,83,l),
(444,333,l),
(568,0,l)
);
}
);
};
guides = (
{
pos = (663,3167);
}
);
layerId = m001;
shapes = (
{
closed = 1;
nodes = (
(561,0,l),
(663,0,l),
(864,700,l),
(759,700,l),
(617,166,l),
(435,700,l),
(327,700,l)
);
},
{
closed = 1;
nodes = (
(415,563,l),
(295,166,l),
(121,700,l),
(12,700,l),
(243,0,l),
(343,0,l),
(468,415,l)
);
}
);
width = 876;
}
);
metricLeft = V;
metricRight = V;
},
{
color = 4;
glyphname = Q_U;
kernLeft = O;
kernRight = U;
lastChange = "2026-07-01 11:38:21 +0000";
layers = (
{
layerId = m001;
shapes = (
{
closed = 1;
nodes = (
(847,-10,l),
(542,256,l),
(477,182,l),
(696,-10,l)
);
},
{
closed = 1;
nodes = (
(606,-10,o),
(772,149,o),
(772,351,cs),
(772,553,o),
(606,712,o),
(395,712,cs),
(184,712,o),
(18,553,o),
(18,351,cs),
(18,149,o),
(184,-10,o),
(395,-10,cs)
);
},
{
closed = 1;
nodes = (
(247,92,o),
(130,206,o),
(130,351,cs),
(130,496,o),
(247,610,o),
(395,610,cs),
(543,610,o),
(660,496,o),
(660,351,cs),
(660,206,o),
(543,92,o),
(395,92,cs)
);
},
{
closed = 1;
nodes = (
(1313,-10,o),
(1446,121,o),
(1446,287,c),
(1446,700,l),
(1336,700,l),
(1336,287,ls),
(1336,177,o),
(1251,92,o),
(1143,92,cs),
(1035,92,o),
(950,177,o),
(950,287,cs),
(950,700,l),
(840,700,l),
(840,287,ls),
(840,121,o),
(973,-10,o),
(1143,-10,cs)
);
}
);
width = 1496;
}
);
metricLeft = O;
metricRight = U;
},
{
color = 4;
glyphname = a;
kernLeft = a;
kernRight = n;
lastChange = "2026-07-01 11:37:32 +0000";
layers = (
{
anchors = (
{
name = bottom;
pos = (229,0);
},
{
name = ogonek;
pos = (417,0);
},
{
name = top;
pos = (229,475);
}
);
layerId = m001;
shapes = (
{
closed = 1;
nodes = (
(245,-10,o),
(284,3,o),
(317,25,c),
(317,0,l),
(417,0,l),
(417,300,ls),
(417,450,o),
(319,485,o),
(231,485,cs),
(175,485,o),
(126,470,o),
(85,444,c),
(48,320,l),
(58,320,l),
(114,371,o),
(162,389,o),
(217,389,cs),
(297,389,o),
(317,348,o),
(317,290,c),
(178,290,o),
(38,253,o),
(38,124,cs),
(38,39,o),
(103,-10,o),
(198,-10,cs)
);
},
{
closed = 1;
nodes = (
(162,71,o),
(133,90,o),
(133,128,cs),
(133,174,o),
(178,216,o),
(317,213,c),
(317,110,l),
(290,89,o),
(249,71,o),
(207,71,cs)
);
}
);
width = 458;
}
);
unicode = 97;
userData = {
KernOnName = a;
};
},
{
color = 4;
glyphname = ae;
kernLeft = a;
kernRight = e;
lastChange = "2026-07-01 11:37:32 +0000";
layers = (
{
anchors = (
{
name = bottom;
pos = (350,0);
},
{
name = top;
pos = (359,475);
}
);
layerId = m001;
shapes = (
{
closed = 1;
nodes = (
(595,-10,o),
(656,12,o),
(705,46,c),
(705,150,l),
(670,117,o),
(608,85,o),
(547,85,cs),
(464,85,o),
(395,130,o),
(383,212,c),
(732,212,l),
(751,414,o),
(626,485,o),
(517,485,cs),
(430,485,o),
(359,438,o),
(320,367,c),
(309,136,l),
(346,49,o),
(428,-10,o),
(532,-10,cs)
);
},
{
closed = 1;
nodes = (
(265,-10,o),
(313,15,o),
(361,79,c),
(311,124,l),
(277,85,o),
(236,71,o),
(197,71,cs),
(155,71,o),
(127,90,o),
(127,128,cs),
(127,174,o),
(170,216,o),
(301,213,c),
(301,77,l),
(371,167,l),
(381,388,l),
(352,465,o),
(283,485,o),
(220,485,cs),
(167,485,o),
(121,470,o),
(82,444,c),
(47,320,l),
(57,320,l),
(110,371,o),
(155,389,o),
(207,389,cs),
(282,389,o),
(301,348,o),
(301,290,c),
(170,290,o),
(38,253,o),
(38,124,cs),
(38,39,o),
(99,-10,o),
(189,-10,cs)
);
},
{
closed = 1;
nodes = (
(396,341,o),
(442,390,o),
(514,390,cs),
(588,390,o),
(634,342,o),
(641,281,c),
(670,294,l),
(350,294,l),
(383,281,l)
);
}
);
width = 759;
}
);
metricLeft = a;
metricRight = e;
unicode = 230;
},
{
color = 4;
glyphname = b;
kernLeft = H;
kernRight = o;
lastChange = "2026-07-01 11:37:32 +0000";
layers = (
{
layerId = m001;
shapes = (
{
closed = 1;
nodes = (
(417,-10,o),
(524,99,o),
(524,242,cs),
(524,376,o),
(417,485,o),
(278,485,cs),
(232,485,o),
(190,473,o),
(151,449,c),
(151,700,l),
(51,700,l),
(51,0,l),
(151,0,l),
(151,26,l),
(189,3,o),
(233,-10,o),
(279,-10,cs)
);
},
{
closed = 1;
nodes = (
(229,85,o),
(180,104,o),
(151,137,c),
(151,344,l),
(181,372,o),
(228,390,o),
(274,390,cs),
(361,390,o),
(424,323,o),
(424,241,cs),
(424,152,o),
(361,85,o),
(274,85,cs)
);
}
);
width = 555;
}
);
metricLeft = h;
metricRight = o;
unicode = 98;
},
{
color = 4;
glyphname = c;
kernLeft = o;
kernRight = c;
lastChange = "2026-07-01 11:37:32 +0000";
layers = (
{
anchors = (
{
name = bottom;
pos = (282,0);
},
{
name = top;
pos = (279,475);
}
);
layerId = m001;
shapes = (
{
closed = 1;
nodes = (
(332,-10,o),
(388,5,o),
(435,32,c),
(435,152,l),
(401,115,o),
(342,85,o),
(283,85,cs),
(194,85,o),
(131,152,o),
(131,236,cs),
(131,323,o),
(194,390,o),
(282,390,cs),
(343,390,o),
(402,358,o),
(435,323,c),
(435,443,l),
(391,468,o),
(337,485,o),
(281,485,cs),
(138,485,o),
(31,376,o),
(31,237,cs),
(31,99,o),
(138,-10,o),
(279,-10,cs)
);
}
);
width = 460;
}
);
metricLeft = o;
unicode = 99;
},
{
color = 4;
glyphname = d;
kernLeft = o;
kernRight = d;
lastChange = "2026-07-01 11:37:32 +0000";
layers = (
{
anchors = (
{
name = bottom;
pos = (278,0);
},
{
name = center;
pos = (386,587);
},
{
name = top;
pos = (278,475);
},
{
name = topright;
pos = (584,700);
}
);
layerId = m001;
shapes = (
{
closed = 1;
nodes = (
(322,-10,o),
(366,3,o),
(404,26,c),
(404,0,l),
(504,0,l),
(504,700,l),
(404,700,l),
(404,449,l),
(365,473,o),
(323,485,o),
(277,485,cs),
(138,485,o),
(31,376,o),
(31,242,cs),
(31,99,o),
(138,-10,o),
(276,-10,cs)
);
},
{
closed = 1;
nodes = (
(194,85,o),
(131,152,o),
(131,241,cs),
(131,323,o),
(194,390,o),
(281,390,cs),
(327,390,o),
(374,372,o),
(404,344,c),
(404,137,l),
(375,104,o),
(326,85,o),
(281,85,cs)
);
}
);
width = 555;
}
);
metricLeft = o;
metricRight = "=|h";
unicode = 100;
userData = {
KernOnName = d;
};
},
{
color = 4;
glyphname = eth;
kernLeft = o;
kernRight = o;
lastChange = "2026-07-02 07:36:16 +0000";
layers = (
{
layerId = m001;
shapes = (
{
closed = 1;
nodes = (
(458,268,l),
(424,350,o),
(352,439,o),
(240,439,cs),
(132,439,o),
(31,347,o),
(31,219,cs),
(31,91,o),
(130,-9,o),
(256,-9,cs),
(382,-9,o),
(481,75,o),
(481,246,cs),
(481,447,o),
(346,628,o),
(135,712,c),
(66,657,l),
(268,587,o),
(395,429,o),
(403,238,c)
);
},
{
closed = 1;
nodes = (
(182,79,o),
(123,140,o),
(123,219,cs),
(123,298,o),
(182,353,o),
(256,353,cs),
(330,353,o),
(389,298,o),
(389,219,cs),
(389,140,o),
(330,79,o),
(256,79,cs)
);
},
{
closed = 1;
nodes = (
(156,487,l),
(408,627,l),
(375,686,l),
(123,546,l)
);
}
);
width = 512;
},
{
associatedMasterId = m001;
layerId = "D754C126-B5DB-4BA7-A35D-808BDC5E499C";
name = "2 Jul 26 at 12:36";
shapes = (
{
closed = 1;
nodes = (
(382,-9,o),
(481,82,o),
(481,219,cs),
(481,288,o),
(402,439,o),
(240,439,cs),
(132,439,o),
(31,347,o),
(31,219,cs),
(31,91,o),
(130,-9,o),
(256,-9,cs)
);
},
{
closed = 1;
nodes = (
(182,79,o),
(123,140,o),
(123,219,cs),
(123,298,o),
(182,353,o),
(256,353,cs),
(330,353,o),
(389,298,o),
(389,219,cs),
(389,140,o),
(330,79,o),
(256,79,cs)
);
},
{
closed = 1;
nodes = (
(378,593,o),
(175,670,c),
(116,615,l),
(294,553,o),
(412,448,o),
(412,162,c),
(481,219,l),
(481,475,o)
);
},
{
closed = 1;
nodes = (
(156,477,l),
(408,617,l),
(375,676,l),
(123,536,l)
);
}
);
width = 512;
}
);
metricLeft = o;
metricRight = o;
unicode = 240;
},
{
color = 4;
glyphname = e;
kernLeft = o;
kernRight = e;
lastChange = "2026-07-01 11:37:32 +0000";
layers = (
{
anchors = (
{
name = bottom;
pos = (269,0);
},
{
name = ogonek;
pos = (415,16);
},
{
name = top;
pos = (278,475);
}
);
layerId = m001;
shapes = (
{
closed = 1;
nodes = (
(362,-10,o),
(428,12,o),
(481,46,c),
(481,150,l),
(443,117,o),
(376,85,o),
(310,85,cs),
(220,85,o),
(146,130,o),
(133,212,c),
(511,212,l),
(531,414,o),
(396,485,o),
(278,485,cs),
(134,485,o),
(31,376,o),
(31,240,cs),
(31,99,o),
(141,-10,o),
(294,-10,cs)
);
},
{
closed = 1;
nodes = (
(147,341,o),
(197,390,o),
(274,390,cs),
(355,390,o),
(404,342,o),
(412,281,c),
(443,294,l),
(97,294,l),
(132,281,l)
);
}
);
width = 538;
}
);
unicode = 101;
},
{
color = 4;
glyphname = f;
kernLeft = f;
kernRight = f;
lastChange = "2026-07-01 11:37:32 +0000";
layers = (
{
guides = (
{
angle = 90;
pos = (350,653);
}
);
layerId = m001;
shapes = (
{
closed = 1;
nodes = (
(188,0,l),
(188,385,l),
(350,385,l),
(350,475,l),
(188,475,l),
(188,525,ls),
(188,586,o),
(220,615,o),
(267,615,cs),
(291,615,o),
(313,611,o),
(350,592,c),
(350,690,l),
(321,702,o),
(289,710,o),
(253,710,cs),
(149,710,o),
(88,642,o),
(88,540,cs),
(88,474,l),
(8,474,l),
(8,386,l),
(88,386,l),
(88,0,l)
);
}
);
width = 363;
}
);
unicode = 102;
userData = {
KernOnName = f;
};
},
{
color = 4;
glyphname = g;
kernLeft = g;
kernRight = g;
lastChange = "2026-07-01 11:37:32 +0000";
layers = (
{
anchors = (
{
name = bottom;
pos = (243,-225);
},
{
name = top;
pos = (243,475);
}
);
guides = (
{
angle = 180;
pos = (243,308);
},
{
angle = 90;
pos = (243,308);
},
{
angle = 166.251;
pos = (297,64);
},
{
angle = 166.2509;
pos = (297,-21);
},
{
angle = 180;
pos = (478,-86);
}
);
layerId = m001;
shapes = (
{
closed = 1;
nodes = (
(389,-235,o),
(478,-183,o),
(478,-86,cs),
(478,-12,o),
(442,31,o),
(353,53,cs),
(250,78,ls),
(202,90,o),
(172,97,o),
(172,120,cs),
(172,134,o),
(183,144,o),
(213,157,c),
(127,184,l),
(99,166,o),
(72,144,o),
(72,102,cs),
(72,55,o),
(108,21,o),
(159,8,cs),
(300,-27,ls),
(355,-41,o),
(378,-61,o),
(378,-84,cs),
(378,-125,o),
(307,-140,o),
(243,-140,cs),
(179,-140,o),
(111,-124,o),
(111,-79,cs),
(111,-43,o),
(154,-12,o),
(239,7,c),
(151,45,l),
(72,18,o),
(10,-19,o),
(10,-91,cs),
(10,-194,o),
(117,-235,o),
(243,-235,cs)
);
},
{
closed = 1;
nodes = (
(350,130,o),
(431,206,o),
(431,308,cs),
(431,409,o),
(350,485,o),
(243,485,cs),
(136,485,o),
(55,409,o),
(55,308,cs),
(55,206,o),
(136,130,o),
(243,130,cs)
);
},
{
closed = 1;
nodes = (
(190,218,o),
(150,257,o),
(150,308,cs),
(150,359,o),
(190,397,o),
(243,397,cs),
(296,397,o),
(336,359,o),
(336,308,cs),
(336,257,o),
(296,218,o),
(243,218,cs)
);
},
{
closed = 1;
nodes = (
(472,395,l),
(472,475,l),
(283,475,l),
(329,395,l)
);
}
);
width = 488;
}
);
unicode = 103;
userData = {
KernOnName = g;
};
},
{
color = 4;
glyphname = h;
kernLeft = H;
kernRight = n;
lastChange = "2026-07-01 11:37:32 +0000";
layers = (
{
anchors = (
{
name = bottom;
pos = (267,0);
},
{
name = center;
pos = (169,595);
},
{
name = top;
pos = (101,654);
}
);
layerId = m001;
shapes = (
{
closed = 1;
nodes = (
(151,0,l),
(151,346,l),
(172,371,o),
(210,390,o),
(265,390,cs),
(341,390,o),
(383,345,o),
(383,269,cs),
(383,0,l),
(483,0,l),
(483,274,ls),
(483,406,o),
(408,485,o),
(287,485,cs),
(231,485,o),
(185,470,o),
(151,445,c),
(151,700,l),
(51,700,l),
(51,0,l)
);
}
);
width = 523;
}
);
unicode = 104;
userData = {
KernOnName = h;
};
},
{
color = 4;
glyphname = idotless;
kernLeft = idotless;
kernRight = idotless;
lastChange = "2026-07-01 11:37:32 +0000";
layers = (
{
anchors = (
{
name = bottom;
pos = (110,0);
},
{
name = ogonek;
pos = (160,0);
},
{
name = top;
pos = (110,475);
}
);
layerId = m001;
shapes = (
{
closed = 1;
nodes = (
(160,0,l),
(160,158,o),
(160,317,o),
(160,475,c),
(60,475,l),
(60,0,l)
);
}
);
width = 220;
}
);
unicode = 305;
},
{
color = 4;
glyphname = jdotless;
kernLeft = jdotless;
kernRight = jdotless;
lastChange = "2026-07-01 11:38:21 +0000";
layers = (
{
anchors = (
{
name = bottom;
pos = (111,-225);
},
{
name = top;
pos = (111,475);
}
);
layerId = m001;
shapes = (
{
closed = 1;
nodes = (
(115,-235,o),
(161,-155,o),
(161,0,c),
(161,475,l),
(61,475,l),
(61,0,ls),
(61,-95,o),
(34,-134,o),
(-19,-134,cs),
(-25,-134,o),
(-31,-134,o),
(-37,-133,c),
(-37,-232,l),
(-23,-234,o),
(-10,-235,o),
(2,-235,cs)
);
}
);
userData = {
com.fontlab.hintData = {
hhints = (
{
position = -243;
width = 100;
},
{
position = 454;
width = 20;
}
);
vhints = (
{
position = 51;
width = 99;
}
);
};
};
width = 212;
}
);
metricRight = u;
unicode = 567;
},
{
color = 4;
glyphname = k;
kernLeft = H;
kernRight = k;
lastChange = "2026-07-01 11:37:32 +0000";
layers = (
{
anchors = (
{
name = bottom;
pos = (254,0);
},
{
name = top;
pos = (254,700);
}
);
layerId = m001;
shapes = (
{
closed = 1;
nodes = (
(151,0,l),
(151,226,l),
(365,0,l),
(503,0,l),
(243,269,l),
(480,475,l),
(338,475,l),
(151,307,l),
(151,700,l),
(51,700,l),
(51,0,l)
);
}
);
width = 508;
}
);
unicode = 107;
userData = {
KernOnName = k;
};
},
{
color = 4;
glyphname = l;
kernLeft = H;
kernRight = l;
lastChange = "2026-07-01 11:37:32 +0000";
layers = (
{
anchors = (
{
name = bottom;
pos = (168,0);
},
{
name = center;
pos = (257,357);
},
{
name = top;
pos = (101,700);
},
{
name = topright;
pos = (252,700);
}
);
backgroundImage = {
imagePath = "/Users/alexeiva/github.com/cyrealtype/metropolitan-line/sources/Images/l-Regular.tif";
locked = 1;
pos = (8,-53);
scale = (2.1,2.1);
};
layerId = m001;
shapes = (
{
closed = 1;
nodes = (
(259,-10,o),
(288,-2,o),
(323,14,c),
(323,111,l),
(293,94,o),
(264,86,o),
(236,86,cs),
(181,86,o),
(151,119,o),
(151,175,cs),
(151,700,l),
(51,700,l),
(51,148,ls),
(51,56,o),
(124,-10,o),
(224,-10,cs)
);
}
);
width = 335;
}
);
metricLeft = h;
unicode = 108;
userData = {
KernOnName = l;
};
},
{
color = 4;
glyphname = lslash;
kernLeft = hbar;
kernRight = l;
lastChange = "2026-07-01 11:37:32 +0000";
layers = (
{
layerId = m001;
shapes = (
{
closed = 1;
nodes = (
(250.667,-11,o),
(294.333,2.667,o),
(325,24,c),
(325,125,l),
(294.333,102.333,o),
(250.667,89,o),
(216,89,cs),
(176,89,o),
(146,126,o),
(146,178,cs),
(146,698,l),
(46,698,l),
(46,148,ls),
(46,57.229,o),
(120.441,-11,o),
(216,-11,cs)
);
}
);
width = 325;
}
);
unicode = 322;
},
{
color = 4;
glyphname = m;
kernLeft = n;
kernRight = n;
lastChange = "2026-07-01 11:37:32 +0000";
layers = (
{
anchors = (
{
name = bottom;
pos = (418,0);
},
{
name = top;
pos = (418,475);
}
);
layerId = m001;
shapes = (
{
closed = 1;
nodes = (
(795,0,l),
(795,274,ls),
(795,403,o),
(732,485,o),
(609,485,cs),
(544,485,o),
(487,470,o),
(431,413,c),
(466,324,l),
(496,370,o),
(536,390,o),
(587,390,cs),
(657,390,o),
(695,357,o),
(695,269,cs),
(695,0,l)
);
},
{
closed = 1;
nodes = (
(151,0,l),
(151,475,l),
(51,475,l),
(51,0,l)
);
},
{
closed = 1;
nodes = (
(473,0,l),
(473,274,ls),
(473,406,o),
(402,485,o),
(287,485,cs),
(231,485,o),
(185,470,o),
(151,445,c),
(151,346,l),
(172,371,o),
(210,390,o),
(265,390,cs),
(335,390,o),
(373,345,o),
(373,269,cs),
(373,0,l)
);
}
);
width = 835;
}
);
metricLeft = n;
metricRight = n;
unicode = 109;
userData = {
KernOnName = m;
};
},
{
color = 4;
glyphname = n;
kernLeft = n;
kernRight = n;
lastChange = "2026-07-01 11:37:32 +0000";
layers = (
{
anchors = (
{
name = bottom;
pos = (267,0);
},
{
name = top;
pos = (287,475);
}
);
layerId = m001;
shapes = (
{
closed = 1;
nodes = (
(151,0,l),
(151,346,l),
(172,371,o),
(210,390,o),
(265,390,cs),
(341,390,o),
(383,345,o),
(383,269,cs),
(383,0,l),
(483,0,l),
(483,274,ls),
(483,406,o),
(408,485,o),
(287,485,cs),
(231,485,o),
(185,470,o),
(151,445,c),
(151,475,l),
(51,475,l),
(51,0,l)
);
}
);
width = 523;
}
);
unicode = 110;
userData = {
KernOnName = n;
};
},
{
color = 4;
glyphname = eng;
kernLeft = n;
kernRight = n;
lastChange = "2026-07-01 11:37:32 +0000";
layers = (
{
anchors = (
{
name = bottom;
pos = (267,0);
},
{
name = top;
pos = (287,475);
}
);
layerId = m001;
shapes = (
{
closed = 1;
nodes = (
(437,-235,o),
(483,-155,o),
(483,0,cs),
(483,274,ls),
(483,406,o),
(408,485,o),
(287,485,cs),
(231,485,o),
(185,470,o),
(151,445,c),
(151,475,l),
(51,475,l),
(51,0,l),
(151,0,l),
(151,346,l),
(172,371,o),
(210,390,o),
(265,390,cs),
(341,390,o),
(383,345,o),
(383,269,cs),
(383,0,ls),
(383,-95,o),
(356,-134,o),
(303,-134,cs),
(297,-134,o),
(291,-134,o),
(285,-133,c),
(285,-232,l),
(299,-234,o),
(312,-235,o),
(324,-235,cs)
);
}
);
width = 523;
}
);
metricLeft = n;
metricRight = n;
unicode = 331;
},
{
color = 4;
glyphname = o;
kernLeft = o;
kernRight = o;
lastChange = "2026-07-01 11:37:32 +0000";
layers = (
{
anchors = (
{
name = bottom;
pos = (275,0);
},
{
name = center;
pos = (275,238);
},
{
name = ogonek;
pos = (394,21);
},
{
name = top;
pos = (275,475);
},
{
name = topright;
pos = (398,451);
}
);
guides = (
{
angle = 90.1157;
pos = (275,238);
},
{
angle = 180.1169;
pos = (276,238);
}
);
layerId = m001;
shapes = (
{
closed = 1;
nodes = (
(412,-10,o),
(519,99,o),
(519,237,cs),
(519,376,o),
(412,485,o),
(275,485,cs),
(138,485,o),
(31,376,o),
(31,237,cs),
(31,99,o),
(138,-10,o),
(275,-10,cs)
);
},
{
closed = 1;
nodes = (
(194,85,o),
(131,152,o),
(131,237,cs),
(131,323,o),
(194,390,o),
(275,390,cs),
(356,390,o),
(419,323,o),
(419,237,cs),
(419,152,o),
(356,85,o),
(275,85,cs)
);
}
);
width = 550;
}
);
unicode = 111;
userData = {
KernOnName = o;
};
},
{
color = 4;
glyphname = oslash;
kernLeft = o;
kernRight = o;
lastChange = "2026-07-01 11:37:32 +0000";
layers = (
{
.lastUpdate = 805116900.948;
anchors = (
{
name = top;
pos = (275,475);
}
);
layerId = m001;
shapes = (
{
closed = 1;
nodes = (
(158,-34,l),
(191,22,l),
(230,77,l),
(398,355,l),
(435,408,l),
(499,515,l),
(406,515,l),
(366,447,l),
(331,398,l),
(162,117,l),
(129,71,l),
(66,-34,l)
);
},
{
ref = o;
}
);
width = 550;
}
);
metricLeft = o;
metricRight = o;
unicode = 248;
},
{
color = 4;
glyphname = oe;
kernLeft = o;
kernRight = e;
lastChange = "2026-07-01 11:37:32 +0000";
layers = (
{
anchors = (
{
name = bottom;
pos = (414,0);
},
{
name = top;
pos = (414,475);
}
);
guides = (
{
angle = 90;
pos = (416,77);
}
);
layerId = m001;
shapes = (
{
closed = 1;
nodes = (
(663,-10,o),
(724,12,o),
(773,46,c),
(773,150,l),
(738,117,o),
(676,85,o),
(615,85,cs),
(532,85,o),
(463,130,o),
(451,212,c),
(800,212,l),
(819,414,o),
(694,485,o),
(585,485,cs),
(498,485,o),
(427,438,o),
(388,367,c),
(389,122,l),
(414,49,o),
(496,-10,o),
(600,-10,cs)
);
},
{
closed = 1;
nodes = (
(317,-10,o),
(375,21,o),
(420,77,c),
(420,394,l),
(382,451,o),
(321,485,o),
(248,485,cs),
(122,485,o),
(31,382,o),
(31,237,cs),
(31,93,o),
(122,-10,o),
(248,-10,cs)
);
},
{
closed = 1;
nodes = (
(179,85,o),
(131,148,o),
(131,237,cs),
(131,326,o),
(179,390,o),
(248,390,cs),
(323,390,o),
(376,326,o),
(376,237,cs),
(376,148,o),
(323,85,o),
(248,85,cs)
);
},
{
closed = 1;
nodes = (
(464,341,o),
(510,390,o),
(582,390,cs),
(656,390,o),
(702,342,o),
(709,281,c),
(738,294,l),
(418,294,l),
(451,281,l)
);
}
);
width = 827;
}
);
metricLeft = o;
metricRight = e;
unicode = 339;
},
{
color = 4;
glyphname = p;
kernLeft = n;
kernRight = o;
lastChange = "2026-07-01 11:37:32 +0000";
layers = (
{
anchors = (
{
name = bottom;
pos = (278,0);
},
{
name = top;
pos = (278,475);
}
);
layerId = m001;
shapes = (
{
closed = 1;
nodes = (
(151,-225,l),
(151,26,l),
(189,3,o),
(233,-10,o),
(279,-10,cs),
(417,-10,o),
(524,99,o),
(524,242,cs),
(524,376,o),
(417,485,o),
(278,485,cs),
(232,485,o),
(190,473,o),
(151,449,c),
(151,475,l),
(51,475,l),
(51,-225,l)
);
},
{
closed = 1;
nodes = (
(229,85,o),
(180,104,o),
(151,137,c),
(151,344,l),
(181,372,o),
(228,390,o),
(274,390,cs),
(361,390,o),
(424,323,o),
(424,241,cs),
(424,152,o),
(361,85,o),
(274,85,cs)
);
}
);
width = 555;
}
);
metricLeft = h;
metricRight = o;
unicode = 112;
},
{
color = 4;
glyphname = thorn;
kernLeft = h;
kernRight = o;
lastChange = "2026-07-01 11:37:32 +0000";
layers = (
{
anchors = (
{
name = bottom;
pos = (278,0);
},
{
name = top;
pos = (278,475);
}
);
layerId = m001;
shapes = (
{
closed = 1;
nodes = (
(151,-225,l),
(151,26,l),
(189,3,o),
(233,-10,o),
(279,-10,cs),
(417,-10,o),
(524,99,o),
(524,242,cs),
(524,376,o),
(417,485,o),
(278,485,cs),
(232,485,o),
(190,473,o),
(151,449,c),
(151,700,l),
(51,700,l),
(51,-225,l)
);
},
{
closed = 1;
nodes = (
(229,85,o),
(180,104,o),
(151,137,c),
(151,344,l),
(181,372,o),
(228,390,o),
(274,390,cs),
(361,390,o),
(424,323,o),
(424,241,cs),
(424,152,o),
(361,85,o),
(274,85,cs)
);
}
);
width = 555;
}
);
metricLeft = h;
metricRight = p;
unicode = 254;
},
{
color = 4;
glyphname = r;
kernLeft = n;
kernRight = r;
lastChange = "2026-07-07 11:32:54 +0000";
layers = (
{
.lastUpdate = 805116774.923;
anchors = (
{
name = bottom;
pos = (101,0);
},
{
name = top;
pos = (207,475);
}
);
guides = (
{
angle = 269.8794;
pos = (152,238);
}
);
layerId = m001;
shapes = (
{
closed = 1;
nodes = (
(151,0,l),
(151,321,l),
(174,367,o),
(215,387,o),
(265,387,cs),
(292,387,o),
(320,381,o),
(357,360,c),
(357,462,l),
(330,476,o),
(303,485,o),
(269,485,cs),
(223,485,o),
(181,469,o),
(151,435,c),
(151,475,l),
(51,475,l),
(51,0,l)
);
}
);
width = 372;
}
);
metricLeft = n;
unicode = 114;
userData = {
KernOnName = r;
};
},
{
color = 4;
glyphname = s;
kernLeft = s;
kernRight = s;
lastChange = "2026-07-01 11:37:32 +0000";
layers = (
{
anchors = (
{
name = bottom;
pos = (217,0);
},
{
name = top;
pos = (213,475);
}
);
layerId = m001;
shapes = (
{
closed = 1;
nodes = (
(321,-10,o),
(413,30,o),
(413,139,cs),
(413,223,o),
(357,266,o),
(246,292,cs),
(172,309,o),
(140,322,o),
(140,351,cs),
(140,382,o),
(176,393,o),
(219,393,cs),
(283,393,o),
(333,370,o),
(372,341,c),
(372,444,l),
(328,470,o),
(265,485,o),
(213,485,cs),
(108,485,o),
(39,433,o),
(39,351,cs),
(39,267,o),
(101,228,o),
(206,204,cs),
(285,186,o),
(313,163,o),
(313,135,cs),
(313,107,o),
(285,85,o),
(215,85,cs),
(133,85,o),
(89,108,o),
(39,155,c),
(39,41,l),
(89,9,o),
(143,-10,o),
(217,-10,cs)
);
}
);
width = 440;
}
);
unicode = 115;
userData = {
KernOnName = s;
};
},
{
color = 4;
glyphname = germandbls;
kernLeft = h;
kernRight = germandbls;
lastChange = "2026-07-02 07:21:54 +0000";
layers = (
{
layerId = m001;
shapes = (
{
closed = 1;
nodes = (
(151,0.257,l),
(151,525.257,ls),
(151,586.257,o),
(197.319,615.257,o),
(264.194,615.257,cs),
(325.452,615.257,o),
(373.2,590.925,o),
(373.2,550.333,cs),
(373.2,482.281,o),
(239,474.798,o),
(239,354.561,cs),
(239,275.893,o),
(296.448,234.936,o),
(393.8,209.787,cs),
(467.048,190.866,o),
(493,166.836,o),
(493,137.437,cs),
(493,108.096,o),
(467.05,85,o),
(402.15,85,cs),
(326.15,85,o),
(285.35,108,o),
(239,155,c),
(239,41,l),
(286.35,9,o),
(337.45,-10,o),
(407.5,-10,cs),
(505.9,-10,o),
(593,30.866,o),
(593,142.162,cs),
(593,227.971,o),
(541.151,272.101,o),
(438.25,299.389,cs),
(369.701,317.568,o),
(340,331.48,o),
(340,357.801,cs),
(340,414.742,o),
(479,435.019,o),
(479,544.119,cs),
(479,631.73,o),
(389.361,710.257,o),
(260.527,710.257,cs),
(140.639,710.257,o),
(51,642.257,o),
(51,540.257,cs),
(51,0.257,l)
);
}
);
width = 620;
}
);
metricLeft = longs;
metricRight = s;
unicode = 223;
},
{
color = 4;
glyphname = longs;
kernLeft = h;
kernRight = f;
lastChange = "2026-07-01 11:37:32 +0000";
layers = (
{
layerId = m001;
shapes = (
{
closed = 1;
nodes = (
(151,0,l),
(151,525,l),
(151,586,o),
(183,615,o),
(230,615,cs),
(254,615,o),
(276,611,o),
(313,592,c),
(313,690,l),
(284,702,o),
(252,710,o),
(216,710,cs),
(112,710,o),
(51,642,o),
(51,540,c),
(51,0,l)
);
}
);
width = 326;
}
);
metricLeft = h;
metricRight = f;
unicode = 383;
},
{
color = 4;
glyphname = t;
kernLeft = t;
kernRight = t;
lastChange = "2026-07-01 11:37:32 +0000";
layers = (
{
anchors = (
{
name = bottom;
pos = (258,0);
},
{
name = center;
pos = (200,291);
},
{
name = top;
pos = (170,570);
},
{
name = topright;
pos = (430,630);
}
);
guides = (
{
angle = 90;
pos = (399,72);
}
);
layerId = m001;
shapes = (
{
closed = 1;
nodes = (
(327,-10,o),
(369,3,o),
(399,24,c),
(399,120,l),
(368,97,o),
(327,84,o),
(294,84,cs),
(241,84,o),
(220,121,o),
(220,173,cs),
(220,385,l),
(399,385,l),
(399,475,l),
(220,475,l),
(220,570,l),
(120,570,l),
(120,475,l),
(21,475,l),
(21,385,l),
(120,385,l),
(120,148,ls),
(120,47,o),
(184,-10,o),
(287,-10,cs)
);
}
);
width = 430;
}
);
unicode = 116;
userData = {
KernOnName = t;
};
},
{
color = 4;
glyphname = tcaron;
kernLeft = t;
kernRight = t;
lastChange = "2026-07-01 11:37:32 +0000";
layers = (
{
layerId = m001;
shapes = (
{
closed = 1;
nodes = (
(327,-10,o),
(369,3,o),
(399,24,c),
(399,120,l),
(368,97,o),
(327,84,o),
(294,84,cs),
(241,84,o),
(220,121,o),
(220,173,cs),
(220,385,l),
(349,385,l),
(349,475,l),
(220,475,l),
(220,570,l),
(120,570,l),
(120,475,l),
(21,475,l),
(21,385,l),
(120,385,l),
(120,148,ls),
(120,47,o),
(184,-10,o),
(287,-10,cs)
);
},
{
closed = 1;
nodes = (
(449,465,o),
(520,522,o),
(520,600,cs),
(520,700,l),
(420,700,l),
(420,600,ls),
(420,539,o),
(411,498,o),
(383,476,c),
(383,465,l)
);
}
);
width = 520;
}
);
metricLeft = t;
unicode = 357;
},
{
color = 4;
glyphname = u;
kernLeft = u;
kernRight = u;
lastChange = "2026-07-01 11:37:32 +0000";
layers = (
{
anchors = (
{
name = bottom;
pos = (240,0);
},
{
name = ogonek;
pos = (472,0);
},
{
name = top;
pos = (262,475);
},
{
name = topright;
pos = (472,475);
}
);
layerId = m001;
shapes = (
{
closed = 1;
nodes = (
(292,-10,o),
(338,5,o),
(372,30,c),
(372,0,l),
(472,0,l),
(472,475,l),
(372,475,l),
(372,129,l),
(351,104,o),
(313,85,o),
(258,85,cs),
(182,85,o),
(140,130,o),
(140,206,cs),
(140,475,l),
(40,475,l),
(40,201,ls),
(40,69,o),
(115,-10,o),
(236,-10,cs)
);
}
);
width = 523;
}
);
unicode = 117;
userData = {
KernOnName = u;
};
},
{
color = 4;
glyphname = v;
kernLeft = v;
kernRight = v;
lastChange = "2026-07-01 11:37:32 +0000";
layers = (
{
anchors = (
{
name = bottom;
pos = (278,0);
},
{
name = top;
pos = (280,475);
}
);
guides = (
{
angle = 90;
pos = (278,0);
}
);
layerId = m001;
shapes = (
{
closed = 1;
nodes = (
(330,0,l),
(544,475,l),
(425,475,l),
(280,127,l),
(135,475,l),
(12,475,l),
(226,0,l)
);
}
);
width = 554;
}
);
unicode = 118;
userData = {
KernOnName = v;
};
},
{
color = 4;
glyphname = w;
kernLeft = v;
kernRight = v;
lastChange = "2026-07-01 11:37:32 +0000";
layers = (
{
anchors = (
{
name = bottom;
pos = (390,0);
},
{
name = top;
pos = (390,475);
}
);
guides = (
{
angle = 180;
pos = (717,475);
}
);
layerId = m001;
shapes = (
{
closed = 1;
nodes = (
(283,0,l),
(387,278,l),
(497,0,l),
(595,0,l),
(768,475,l),
(659,475,l),
(527,111,l),
(553,111,l),
(427,434,l),
(347,434,l),
(227,111,l),
(253,111,l),
(121,475,l),
(12,475,l),
(185,0,l)
);
}
);
width = 779;
}
);
unicode = 119;
userData = {
KernOnName = w;
};
},
{
color = 4;
glyphname = x;
kernLeft = x;
kernRight = x;
lastChange = "2026-07-01 11:37:32 +0000";
layers = (
{
anchors = (
{
name = bottom;
pos = (247,0);
},
{
name = top;
pos = (249,475);
}
);
guides = (
{
angle = 53.2267;
pos = (308,238);
},
{
angle = 53.1494;
pos = (183,238);
}
);
layerId = m001;
shapes = (
{
closed = 1;
nodes = (
(488,0,l),
(132,475,l),
(8,475,l),
(363,0,l)
);
},
{
closed = 1;
nodes = (
(130,0,l),
(252,169,l),
(195,252,l),
(5,0,l)
);
},
{
closed = 1;
nodes = (
(490,475,l),
(366,475,l),
(247,307,l),
(304,225,l)
);
}
);
width = 490;
}
);
unicode = 120;
},
{
color = 4;
glyphname = y;
kernLeft = y;
kernRight = y;
lastChange = "2026-07-01 11:38:21 +0000";
layers = (
{
anchors = (
{
name = bottom;
pos = (280,-225);
},
{
name = top;
pos = (281,475);
}
);
backgroundImage = {
imagePath = "/Users/alexeiva/github.com/cyrealtype/metropolitan-line/sources/Images/y-Regular.tif";
locked = 1;
pos = (-57,-288);
scale = (2.5,2.5);
};
layerId = m001;
shapes = (
{
closed = 1;
nodes = (
(145,-236,o),
(219,-184,o),
(280,-69,cs),
(567,475,l),
(448,475,l),
(188,-29,ls),
(154,-96,o),
(117,-133,o),
(73,-133,cs),
(62,-133,o),
(51,-131,o),
(40,-128,c),
(40,-231,l),
(55,-234,o),
(68,-236,o),
(81,-236,cs)
);
},
{
closed = 1;
nodes = (
(318,115,l),
(135,475,l),
(12,475,l),
(259,11,l)
);
}
);
width = 577;
},
{
anchors = (
{
name = bottom;
pos = (280,-225);
},
{
name = top;
pos = (281,475);
}
);
associatedMasterId = m001;
layerId = "AE55D6E1-22C8-4D07-96E4-CAFCC75DF8EC";
name = "30 Jun 26 at 01:01";
shapes = (
{
closed = 1;
nodes = (
(202,-230,o),
(260,-177,o),
(289,-112,cs),
(552,475,l),
(433,475,l),
(280,109,l),
(202,-64,ls),
(185,-101,o),
(153,-125,o),
(113,-125,cs),
(102,-125,o),
(91,-123,o),
(80,-120,c),
(80,-225,l),
(95,-228,o),
(109,-230,o),
(122,-230,cs)
);
},
{
closed = 1;
nodes = (
(297,108,l),
(135,475,l),
(12,475,l),
(235,-2,l)
);
}
);
width = 562;
}
);
metricLeft = v;
metricRight = v;
unicode = 121;
userData = {
KernOnName = y;
};
},
{
color = 4;
glyphname = z;
kernLeft = z;
kernRight = z;
lastChange = "2026-07-01 11:37:32 +0000";
layers = (
{
anchors = (
{
name = bottom;
pos = (239,0);
},
{
name = center;
pos = (239,238);
},
{
name = top;
pos = (239,475);
}
);
layerId = m001;
shapes = (
{
closed = 1;
nodes = (
(446,0,l),
(446,100,l),
(203,100,l),
(462,475,l),
(38,475,l),
(38,375,l),
(277,375,l),
(16,0,l)
);
}
);
width = 478;
}
);
unicode = 122;
userData = {
KernOnName = z;
};
},
{
color = 5;
glyphname = a.ss01;
kernLeft = o;
kernRight = u;
lastChange = "2026-07-01 11:37:49 +0000";
layers = (
{
anchors = (
{
name = bottom;
pos = (278,0);
},
{
name = center;
pos = (280,241);
},
{
name = ogonek;
pos = (504,0);
},
{
name = top;
pos = (278,475);
},
{
name = topright;
pos = (504,475);
}
);
layerId = m001;
shapes = (
{
closed = 1;
nodes = (
(322,-10,o),
(366,3,o),
(404,26,c),
(404,0,l),
(504,0,l),
(504,475,l),
(404,475,l),
(404,449,l),
(365,473,o),
(323,485,o),
(277,485,cs),
(138,485,o),
(31,376,o),
(31,242,cs),
(31,99,o),
(138,-10,o),
(276,-10,cs)
);
},
{
closed = 1;
nodes = (
(194,85,o),
(131,152,o),
(131,241,cs),
(131,323,o),
(194,390,o),
(281,390,cs),
(327,390,o),
(374,372,o),
(404,344,c),
(404,137,l),
(375,104,o),
(326,85,o),
(281,85,cs)
);
}
);
width = 555;
}
);
metricLeft = o;
metricRight = "=|h";
userData = {
KernOnName = d;
};
},
{
color = 5;
glyphname = g.ss01;
kernLeft = g;
kernRight = g;
lastChange = "2026-07-02 07:22:07 +0000";
layers = (
{
anchors = (
{
name = bottom;
pos = (217,-225);
},
{
name = top;
pos = (217,475);
}
);
backgroundImage = {
imagePath = "/Users/alexeiva/github.com/cyrealtype/metropolitan-line/sources/Images/g.ss01-Regular.tif";
locked = 1;
pos = (-50,-276);
scale = (1.95,1.95);
};
guides = (
{
angle = 180;
pos = (217,308);
},
{
angle = 90;
pos = (217,308);
},
{
angle = 166.251;
pos = (271,64);
},
{
angle = 166.2509;
pos = (271,-21);
},
{
angle = 180;
pos = (452,-86);
},
{
angle = 90;
pos = (322,65);
}
);
layerId = m001;
shapes = (
{
closed = 1;
nodes = (
(334,-235,o),
(417,-181,o),
(417,-86,cs),
(417,475,l),
(411,475,l),
(322,475,l),
(257,475,l),
(303,415,l),
(322,415,l),
(322,202,l),
(253,178,l),
(86,58,o),
(10,-16,o),
(10,-109,cs),
(10,-191,o),
(74,-235,o),
(193,-235,cs)
);
},
{
closed = 1;
nodes = (
(107,-55,o),
(165,28,o),
(322,146,c),
(322,-78,ls),
(322,-134,o),
(267,-150,o),
(197,-150,cs),
(147,-150,o),
(107,-143,o),
(107,-102,cs)
);
},
{
closed = 1;
nodes = (
(304,130,o),
(405,206,o),
(405,308,c),
(373,464,l),
(308,481,o),
(259,485,o),
(227,485,cs),
(90,485,o),
(29,388,o),
(29,296,cs),
(29,195,o),
(90,130,o),
(197,130,cs)
);
},
{
closed = 1;
nodes = (
(166,206,o),
(124,234,o),
(124,299,cs),
(124,360,o),
(163,400,o),
(227,400,cs),
(267,400,o),
(294,395,o),
(322,384,c),
(322,230,l),
(292,214,o),
(269,206,o),
(221,206,cs)
);
}
);
width = 427;
}
);
metricLeft = g;
metricRight = g;
userData = {
KernOnName = g;
};
},
{
color = 4;
glyphname = q.ss01;
kernLeft = o;
kernRight = q.alt;
lastChange = "2026-07-01 11:48:08 +0000";
layers = (
{
.lastUpdate = 805116900.945;
background = {
shapes = (
{
closed = 1;
nodes = (
(930,-228,o),
(986,-194,c),
(986,-107,l),
(948,-132,o),
(907,-145,o),
(861,-147,cs),
(773,-152,o),
(680,-122,o),
(567,-59,cs),
(517,-31,o),
(460,5,o),
(402,44,c),
(179,9,l),
(249,-21,o),
(277,-9,o),
(411,-89,cs),
(490,-136,o),
(650,-240,o),
(814,-240,cs),
(869,-240,o)
);
}
);
};
layerId = m001;
shapes = (
{
alignment = -1;
ref = o;
},
{
closed = 1;
nodes = (
(154.909,21.037,l),
(206.555,-11.936,o),
(260.756,-14.072,o),
(327.771,-43.659,cs),
(446.17,-95.933,o),
(616.626,-239.218,o),
(819.022,-239.218,cs),
(885.154,-239.218,o),
(938.523,-223.921,o),
(986,-185,c),
(986,-107,l),
(944.221,-134.618,o),
(896.584,-147.329,o),
(846.728,-147.329,cs),
(705.106,-147.329,o),
(523.816,-40.636,o),
(406.4,35,c)
);
}
);
width = 550;
}
);
metricLeft = o;
},
{
color = 5;
glyphname = g.ss02;
kernLeft = g;
kernRight = g;
lastChange = "2026-07-02 07:22:11 +0000";
layers = (
{
anchors = (
{
name = bottom;
pos = (248,-225);
},
{
name = top;
pos = (248,475);
}
);
backgroundImage = {
imagePath = "/Users/alexeiva/github.com/cyrealtype/metropolitan-line/sources/Images/g.ss02-Regular.tif";
locked = 1;
pos = (-53,-281);
scale = (1.6,1.6);
};
guides = (
{
angle = 180;
pos = (248,308);
},
{
angle = 90;
pos = (248,308);
},
{
angle = 166.251;
pos = (302,64);
},
{
angle = 166.2509;
pos = (302,-21);
},
{
angle = 180;
pos = (483,-86);
},
{
angle = 90;
pos = (353,65);
}
);
layerId = m001;
shapes = (
{
closed = 1;
nodes = (
(418,-235,o),
(516,-172,o),
(516,-104,cs),
(516,-49,o),
(492,-11,o),
(389,52,c),
(389,154,l),
(285,145,l),
(285,72,l),
(96,33,o),
(10,-31,o),
(10,-101,cs),
(10,-183,o),
(143,-235,o),
(262,-235,cs)
);
},
{
closed = 1;
nodes = (
(366,93,o),
(455,177,o),
(455,290,cs),
(455,401,o),
(366,485,o),
(248,485,cs),
(130,485,o),
(41,401,o),
(41,290,cs),
(41,177,o),
(130,93,o),
(248,93,cs)
);
},
{
closed = 1;
nodes = (
(190,190,o),
(145,233,o),
(145,290,cs),
(145,346,o),
(190,388,o),
(248,388,cs),
(306,388,o),
(351,346,o),
(351,290,cs),
(351,233,o),
(306,190,o),
(248,190,cs)
);
},
{
closed = 1;
nodes = (
(149,-145,o),
(110,-119,o),
(110,-98,cs),
(110,-69,o),
(174,-38,o),
(316,-4,c),
(376,-32,o),
(415,-60,o),
(415,-87,cs),
(415,-119,o),
(369,-145,o),
(265,-145,cs)
);
},
{
closed = 1;
nodes = (
(477,395,l),
(477,475,l),
(288,475,l),
(334,395,l)
);
}
);
width = 526;
}
);
metricLeft = g;
metricRight = g;
userData = {
KernOnName = g;
};
},
{
color = 4;
glyphname = ainferior;
kernLeft = ainferior;
kernRight = ainferior;
lastChange = "2026-07-02 07:33:52 +0000";
layers = (
{
layerId = m001;
shapes = (
{
closed = 1;
nodes = (
(131.426,-100,o),
(168.575,-75.633,o),
(183.268,-44.22,c),
(176.493,-11.753,l),
(160.302,-24.119,o),
(137.472,-32.943,o),
(121.375,-32.943,cs),
(106.455,-32.943,o),
(98.34,-25.364,o),
(98.34,-15.538,cs),
(98.34,0.981,o),
(121.279,9.135,o),
(158.583,9.135,c),
(179.445,56.722,l),
(78.95,56.724,o),
(19.96,32.675,o),
(19.96,-25.259,cs),
(19.96,-67.286,o),
(51.003,-100,o),
(94.171,-100,cs)
);
},
{
closed = 1;
nodes = (
(150.763,-95.614,l),
(234.382,-95.614,l),
(234.382,55.55,ls),
(234.382,137.217,o),
(178.739,156.272,o),
(128.774,156.272,cs),
(99.046,156.272,o),
(70.289,146.977,o),
(43.766,130.866,c),
(25.976,52.606,l),
(61.76,69.673,o),
(85.691,80.007,o),
(112.215,80.007,cs),
(136.205,80.007,o),
(149.982,71.553,o),
(150.069,52.786,cs)
);
}
);
width = 255;
}
);
unicode = 8336;
},
{
color = 4;
glyphname = einferior;
kernLeft = ainferior;
kernRight = ainferior;
lastChange = "2026-07-02 07:33:52 +0000";
layers = (
{
layerId = m001;
shapes = (
{
closed = 1;
nodes = (
(63.49,4.373,l),
(257.849,4.373,l),
(267.513,70.542,o),
(235.965,156.272,o),
(142.576,156.272,cs),
(63.767,156.272,o),
(15.755,99.753,o),
(15.755,30.552,cs),
(15.755,-43.655,o),
(70.965,-100,o),
(146.835,-100,cs),
(177.871,-100,o),
(213.068,-90.571,o),
(246.927,-72.98,c),
(246.927,-1.638,l),
(225.213,-19,o),
(190.285,-31.663,o),
(157.42,-31.663,cs),
(106.814,-31.663,o),
(86.57,-1.638,o),
(86.598,32.574,cs),
(86.629,70.542,o),
(111.609,91.193,o),
(139.935,91.193,cs),
(169.982,91.193,o),
(186.194,67.956,o),
(186.194,48.452,c),
(192.381,59.497,l),
(63.799,59.497,l)
);
}
);
width = 275;
}
);
unicode = 8337;
},
{
color = 4;
glyphname = oinferior;
kernLeft = ainferior;
kernRight = ainferior;
lastChange = "2026-07-02 07:33:52 +0000";
layers = (
{
layerId = m001;
shapes = (
{
closed = 1;
nodes = (
(222,-100,o),
(280,-43,o),
(280,28,cs),
(280,100,o),
(222,156,o),
(148,156,cs),
(74,156,o),
(16,100,o),
(16,28,cs),
(16,-43,o),
(74,-100,o),
(148,-100,cs)
);
},
{
closed = 1;
nodes = (
(122,-19,o),
(102,2,o),
(102,28,cs),
(102,55,o),
(122,75,o),
(148,75,cs),
(174,75,o),
(193,55,o),
(193,28,cs),
(193,2,o),
(174,-19,o),
(148,-19,cs)
);
}
);
width = 296;
}
);
unicode = 8338;
},
{
color = 4;
glyphname = xinferior;
kernLeft = ainferior;
kernRight = ainferior;
lastChange = "2026-07-02 07:33:52 +0000";
layers = (
{
layerId = m001;
shapes = (
{
closed = 1;
nodes = (
(305.315,-90,l),
(179.232,55.583,l),
(111.666,147,l),
(3.87,147,l),
(128.833,2.37,l),
(196.974,-90,l)
);
},
{
closed = 1;
nodes = (
(110.98,-90,l),
(166.711,-9.611,l),
(124.777,46.861,l),
(2.28,-90,l)
);
},
{
closed = 1;
nodes = (
(306.052,147,l),
(198.02,147,l),
(144.387,67.973,l),
(185.723,10.979,l)
);
}
);
width = 307;
}
);
unicode = 8339;
},
{
color = 4;
glyphname = ordfeminine;
kernLeft = ordmasculine;
kernRight = ordmasculine;
lastChange = "2026-07-02 07:33:52 +0000";
layers = (
{
layerId = m001;
shapes = (
{
closed = 1;
nodes = (
(131.426,406,o),
(168.575,430.367,o),
(183.268,461.78,c),
(176.493,494.247,l),
(160.302,481.881,o),
(137.472,473.057,o),
(121.375,473.057,cs),
(106.455,473.057,o),
(98.34,480.636,o),
(98.34,490.462,cs),
(98.34,506.981,o),
(121.279,515.135,o),
(158.583,515.135,c),
(179.445,562.722,l),
(78.95,562.724,o),
(19.96,538.675,o),
(19.96,480.741,cs),
(19.96,438.714,o),
(51.003,406,o),
(94.171,406,cs)
);
},
{
closed = 1;
nodes = (
(150.763,410.386,l),
(234.382,410.386,l),
(234.382,561.55,ls),
(234.382,643.217,o),
(178.739,662.272,o),
(128.774,662.272,cs),
(99.046,662.272,o),
(70.289,652.977,o),
(43.766,636.866,c),
(25.976,558.606,l),
(61.76,575.673,o),
(85.691,586.007,o),
(112.215,586.007,cs),
(136.205,586.007,o),
(149.982,577.553,o),
(150.069,558.786,cs)
);
}
);
width = 255;
}
);
metricLeft = ainferior;
metricRight = ainferior;
unicode = 170;
},
{
color = 4;
glyphname = ordmasculine;
kernLeft = ordmasculine;
kernRight = ordmasculine;
lastChange = "2026-07-02 07:33:52 +0000";
layers = (
{
layerId = m001;
shapes = (
{
closed = 1;
nodes = (
(222,406,o),
(280,463,o),
(280,534,cs),
(280,606,o),
(222,662,o),
(148,662,cs),
(74,662,o),
(16,606,o),
(16,534,cs),
(16,463,o),
(74,406,o),
(148,406,cs)
);
},
{
closed = 1;
nodes = (
(122,487,o),
(102,508,o),
(102,534,cs),
(102,561,o),
(122,581,o),
(148,581,cs),
(174,581,o),
(193,561,o),
(193,534,cs),
(193,508,o),
(174,487,o),
(148,487,cs)
);
}
);
width = 296;
}
);
metricLeft = oinferior;
metricRight = oinferior;
unicode = 186;
},
{
color = 4;
glyphname = mu;
kernLeft = p;
kernRight = u;
lastChange = "2026-07-01 11:37:32 +0000";
layers = (
{
layerId = m001;
shapes = (
{
closed = 1;
nodes = (
(372,475,l),
(372,129,l),
(351,104,o),
(313,85,o),
(258,85,cs),
(182,85,o),
(140,130,o),
(140,206,cs),
(140,475,l),
(40,475,l),
(40,-112,l),
(140,-112,l),
(140,56,l),
(116,45,l),
(149,6,o),
(182,-10,o),
(236,-10,cs),
(292,-10,o),
(338,5,o),
(372,30,c),
(372,0,l),
(472,0,l),
(472,475,l)
);
}
);
width = 523;
}
);
metricLeft = u;
metricRight = u;
unicode = 956;
},
{
color = 4;
glyphname = hinferior;
kernLeft = hinferior;
kernRight = hinferior;
lastChange = "2026-07-02 07:33:55 +0000";
layers = (
{
layerId = m001;
shapes = (
{
closed = 1;
nodes = (
(113,-90,l),
(113,47,l),
(123,58,o),
(135,65,o),
(148.424,65,cs),
(166,65,o),
(178,53,o),
(178,32,cs),
(178,-90,l),
(265,-90,l),
(265,54,ls),
(265,114,o),
(222,151,o),
(164.966,151,cs),
(144,151,o),
(121,146,o),
(98,125,c),
(113,116,l),
(113,250.575,l),
(26,250.575,l),
(26,-90,l)
);
}
);
width = 285;
}
);
unicode = 8341;
},
{
color = 4;
glyphname = kinferior;
kernLeft = hinferior;
kernRight = hinferior;
lastChange = "2026-07-02 07:33:55 +0000";
layers = (
{
layerId = m001;
shapes = (
{
closed = 1;
nodes = (
(112.582,-89.984,l),
(112.582,-16.06,l),
(175.545,-89.755,l),
(296.164,-90.323,l),
(163.941,40.717,l),
(291.798,147.17,l),
(164.688,147.371,l),
(112.582,92.529,l),
(112.582,250.574,l),
(25.913,250.574,l),
(25.913,-89.984,l)
);
}
);
width = 304;
}
);
unicode = 8342;
},
{
color = 4;
glyphname = linferior;
kernLeft = hinferior;
kernRight = hinferior;
lastChange = "2026-07-02 07:33:55 +0000";
layers = (
{
layerId = m001;
shapes = (
{
closed = 1;
nodes = (
(144.619,-100,o),
(165.501,-92.951,o),
(186.761,-81.202,c),
(186.761,-0.863,l),
(164.049,-14,o),
(149.49,-17.794,o),
(138.185,-17.794,cs),
(121.599,-17.794,o),
(112.582,-9.628,o),
(112.582,12.002,cs),
(112.582,250.575,l),
(25.913,250.575,l),
(25.913,-11.12,ls),
(25.913,-62.31,o),
(68.168,-100,o),
(123.737,-100,cs)
);
}
);
width = 195;
}
);
unicode = 8343;
},
{
color = 4;
glyphname = minferior;
kernLeft = hinferior;
kernRight = hinferior;
lastChange = "2026-07-02 07:33:55 +0000";
layers = (
{
layerId = m001;
shapes = (
{
closed = 1;
nodes = (
(112.582,-89.981,l),
(112.582,146.982,l),
(25.913,146.982,l),
(25.913,-89.981,l)
);
},
{
closed = 1;
nodes = (
(260.024,-89.981,l),
(260.024,39.146,ls),
(260.024,105.28,o),
(222.945,151.272,o),
(169.971,151.272,cs),
(136.835,151.272,o),
(102.393,133.276,o),
(71.703,108.054,c),
(71.703,12.977,l),
(98.343,43.357,o),
(125.958,66.446,o),
(144.342,66.446,cs),
(163.147,66.446,o),
(173.355,57.99,o),
(173.355,36.953,cs),
(173.355,-89.981,l)
);
},
{
closed = 1;
nodes = (
(407.466,-89.981,l),
(407.466,39.146,ls),
(407.466,105.28,o),
(370.387,151.272,o),
(317.413,151.272,cs),
(284.277,151.272,o),
(249.835,133.276,o),
(219.145,108.054,c),
(219.145,12.977,l),
(245.786,43.357,o),
(273.4,66.446,o),
(291.784,66.446,cs),
(310.589,66.446,o),
(320.797,57.99,o),
(320.797,36.953,cs),
(320.797,-89.981,l)
);
}
);
width = 428;
}
);
unicode = 8344;
},
{
color = 4;
glyphname = ninferior;
kernLeft = hinferior;
kernRight = hinferior;
lastChange = "2026-07-02 07:33:55 +0000";
layers = (
{
layerId = m001;
shapes = (
{
closed = 1;
nodes = (
(113,-90,l),
(113,47,l),
(123,58,o),
(135,65,o),
(148.424,65,cs),
(166,65,o),
(178,53,o),
(178,32,cs),
(178,-90,l),
(265,-90,l),
(265,54,ls),
(265,114,o),
(222,151,o),
(164.966,151,cs),
(144,151,o),
(121,146,o),
(98,125,c),
(113,116,l),
(113,147,l),
(26,147,l),
(26,-90,l)
);
}
);
width = 285;
}
);
unicode = 8345;
},
{
color = 4;
glyphname = pinferior;
kernLeft = hinferior;
kernRight = hinferior;
lastChange = "2026-07-02 07:33:55 +0000";
layers = (
{
layerId = m001;
shapes = (
{
closed = 1;
nodes = (
(112.582,65.359,l),
(122.474,71.466,o),
(133.518,75.446,o),
(146.629,75.446,cs),
(176.445,75.446,o),
(196.708,54.863,o),
(196.708,28.334,cs),
(196.708,1.805,o),
(176.445,-19.174,o),
(143.241,-19.174,cs),
(125.792,-19.174,o),
(110.952,-13.38,o),
(97.718,-1.466,c),
(98,-84,l),
(118.84,-97.879,o),
(141.213,-105,o),
(164.165,-105,cs),
(229.7,-105,o),
(283.376,-46.947,o),
(283.376,23.583,cs),
(283.376,94.681,o),
(228.832,151.272,o),
(164.782,151.272,cs),
(135.077,151.272,o),
(113.838,139.1,o),
(97.939,124.894,c),
(112.582,115.741,l),
(112.582,146.886,l),
(25.913,146.886,l),
(25.913,-199.302,l),
(112.582,-199.302,l)
);
}
);
width = 300;
}
);
unicode = 8346;
},
{
color = 4;
glyphname = sinferior;
kernLeft = hinferior;
kernRight = hinferior;
lastChange = "2026-07-02 07:33:55 +0000";
layers = (
{
layerId = m001;
shapes = (
{
closed = 1;
nodes = (
(169.83,-100,o),
(221.55,-75.931,o),
(221.55,-19.883,cs),
(221.55,65.994,o),
(100.127,53.457,o),
(99.732,76.591,cs),
(99.632,82.425,o),
(107.248,89.446,o),
(123.151,89.446,cs),
(144.255,89.446,o),
(177.746,77.082,o),
(210.776,50.36,c),
(210.776,131.883,l),
(186.292,146.618,o),
(158.584,156.272,o),
(125.356,156.272,cs),
(63.118,156.272,o),
(26.418,122.4,o),
(26.418,75.6,cs),
(26.418,-9.721,o),
(148.392,3.099,o),
(148.392,-20.218,cs),
(148.392,-25.793,o),
(141.42,-33.174,o),
(122.033,-33.174,cs),
(94.748,-33.174,o),
(61.493,-18.553,o),
(29.418,7.545,c),
(29.418,-71.767,l),
(51.385,-88.364,o),
(79.977,-100,o),
(116.829,-100,cs)
);
}
);
width = 245;
}
);
unicode = 8347;
},
{
color = 4;
glyphname = tinferior;
kernLeft = hinferior;
kernRight = hinferior;
lastChange = "2026-07-02 07:33:55 +0000";
layers = (
{
layerId = m001;
shapes = (
{
closed = 1;
nodes = (
(174.214,-100,o),
(198.847,-92.01,o),
(224.14,-75.702,c),
(224.14,11.496,l),
(202.074,-7.538,o),
(179.085,-17.794,o),
(164.346,-17.794,cs),
(151.194,-17.794,o),
(142.176,-9.628,o),
(142.176,12.002,cs),
(142.176,193.555,l),
(55.508,193.555,l),
(55.508,-11.12,ls),
(55.508,-62.31,o),
(97.763,-100,o),
(150.111,-100,cs)
);
},
{
closed = 1;
nodes = (
(10,69.766,l),
(224,69.766,l),
(224,146.766,l),
(10,146.766,l)
);
}
);
width = 240;
}
);
unicode = 8348;
},
{
color = 4;
glyphname = zero;
lastChange = "2026-07-02 07:21:20 +0000";
layers = (
{
layerId = m001;
shapes = (
{
closed = 1;
nodes = (
(452.178,-10,o),
(550,122.22,o),
(550,350.902,cs),
(550,583.319,o),
(448.956,712,o),
(312,712,cs),
(175.044,712,o),
(74,583.319,o),
(74,350.902,cs),
(74,122.22,o),
(171.822,-10,o),
(312,-10,cs)
);
},
{
closed = 1;
nodes = (
(234,92,o),
(186,195.956,o),
(186,350.643,cs),
(186,505.331,o),
(234,610,o),
(312,610,cs),
(390,610,o),
(438,505.331,o),
(438,350.643,cs),
(438,195.956,o),
(390,92,o),
(312,92,cs)
);
}
);
width = 620;
}
);
unicode = 48;
},
{
color = 4;
glyphname = one;
lastChange = "2026-07-02 07:21:20 +0000";
layers = (
{
layerId = m001;
shapes = (
{
closed = 1;
nodes = (
(100,0,l),
(210,0,l),
(210,723,l),
(100,592,l)
);
}
);
width = 310;
}
);
unicode = 49;
},
{
color = 4;
glyphname = two;
lastChange = "2026-07-02 07:21:20 +0000";
layers = (
{
layerId = m001;
shapes = (
{
closed = 1;
nodes = (
(516,0,l),
(516,100,l),
(271,100,l),
(277,87,l),
(434.211,337.582,ls),
(484,417,o),
(499.96,460.577,o),
(499.685,510.348,cs),
(499.043,626.664,o),
(410.921,712,o),
(290.013,712,cs),
(221.731,712,o),
(156.958,684.784,o),
(109,635.939,c),
(109,469,l),
(164.871,564.653,o),
(222.174,610,o),
(286.708,610,cs),
(349.399,610,o),
(390.097,567.208,o),
(390.097,501.789,cs),
(390.097,471.794,o),
(382,442,o),
(355.4,399.558,cs),
(106,0,l)
);
}
);
width = 620;
}
);
unicode = 50;
},
{
color = 4;
glyphname = three;
lastChange = "2026-07-02 07:21:20 +0000";
layers = (
{
layerId = m001;
shapes = (
{
closed = 1;
nodes = (
(431,-10,o),
(542,88,o),
(542,215,cs),
(542,325,o),
(457.3,417.382,o),
(347.154,433.762,c),
(358.125,402.347,l),
(529,700,l),
(94,700,l),
(94,601,l),
(357,601,l),
(208,344,l),
(333.126,367.106,o),
(430,308.124,o),
(430,215.456,cs),
(430,145,o),
(374,90,o),
(298.734,90,cs),
(237,90,o),
(184,127,o),
(161,183,c),
(85,119,l),
(126,42,o),
(206,-10,o),
(300.824,-10,cs)
);
}
);
width = 620;
}
);
unicode = 51;
},
{
color = 4;
glyphname = four;
lastChange = "2026-07-02 07:21:20 +0000";
layers = (
{
layerId = m001;
shapes = (
{
closed = 1;
nodes = (
(213.167,294,l),
(219.02,286.006,l),
(392.6,480.002,l),
(386,485.144,l),
(386,0,l),
(496,0,l),
(496,735,l),
(15,199,l),
(608,199,l),
(608,294,l)
);
}
);
width = 620;
}
);
unicode = 52;
},
{
color = 4;
glyphname = five;
lastChange = "2026-07-02 07:21:20 +0000";
layers = (
{
layerId = m001;
shapes = (
{
closed = 1;
nodes = (
(404,-10,o),
(509,96,o),
(509,222.183,cs),
(509,362.594,o),
(378.986,465.146,o),
(228.502,439.127,c),
(255.114,412.497,l),
(279,600,l),
(469,600,l),
(537,700,l),
(189,700,l),
(139,327,l),
(268.064,380.716,o),
(405,326.038,o),
(405,216.504,cs),
(405,144,o),
(345,90,o),
(273.16,90,cs),
(217,90,o),
(179,123,o),
(140,174,c),
(82,91,l),
(125,28,o),
(193,-10,o),
(272.021,-10,cs)
);
}
);
width = 620;
}
);
unicode = 53;
},
{
color = 4;
glyphname = six;
lastChange = "2026-07-02 07:21:20 +0000";
layers = (
{
layerId = m001;
shapes = (
{
closed = 1;
nodes = (
(167.668,371,l),
(206.618,409.277,o),
(274.362,429,o),
(326.245,429,cs),
(441.589,429,o),
(536,331.522,o),
(536,210.584,cs),
(536,88,o),
(439,-10,o),
(316.24,-10,cs),
(191,-10,o),
(83,92,o),
(83,252.296,cs),
(83,417.749,o),
(198.061,597.752,o),
(340,700,c),
(490.366,700,l),
(293.18,567.416,o),
(193,387.761,o),
(193,243.053,cs),
(193,132,o),
(252,90,o),
(316.521,90,cs),
(389,90,o),
(426,143,o),
(426,211.026,cs),
(426,280.267,o),
(384,330,o),
(314,330,cs),
(256,330,o),
(203,314,o),
(168,274,c)
);
}
);
width = 620;
}
);
unicode = 54;
},
{
color = 4;
glyphname = seven;
lastChange = "2026-07-02 07:21:20 +0000";
layers = (
{
layerId = m001;
shapes = (
{
closed = 1;
nodes = (
(147,0,l),
(260,0,l),
(576,700,l),
(113,700,l),
(113,600,l),
(421,600,l)
);
}
);
width = 620;
}
);
unicode = 55;
},
{
color = 4;
glyphname = eight;
lastChange = "2026-07-02 07:21:20 +0000";
layers = (
{
background = {
shapes = (
{
pos = (-93,0);
ref = O;
}
);
};
layerId = m001;
shapes = (
{
closed = 1;
nodes = (
(234,90,o),
(187,141.693,o),
(187,197.314,cs),
(187,339.87,o),
(499,343.896,o),
(499,533.962,cs),
(499,628.467,o),
(421.863,712,o),
(310,712,cs),
(198.137,712,o),
(121,628.466,o),
(121,533.959,cs),
(121,343.584,o),
(434,340.132,o),
(434,197.426,cs),
(434,141.901,o),
(387,90,o),
(310,90,cs)
);
},
{
closed = 1;
nodes = (
(440,-10,o),
(533,86.842,o),
(533,195.31,cs),
(533,393.822,o),
(221,405.362,o),
(221,535.609,cs),
(221,576.319,o),
(251.481,612.25,o),
(311.1,612.25,cs),
(369.894,612.25,o),
(399,577.306,o),
(399,537.161,cs),
(399,405.725,o),
(87,388.945,o),
(87,193.365,cs),
(87,86.169,o),
(181,-10,o),
(310,-10,cs)
);
}
);
width = 620;
}
);
unicode = 56;
},
{
color = 4;
glyphname = nine;
lastChange = "2026-07-02 07:21:20 +0000";
layers = (
{
background = {
shapes = (
{
closed = 1;
nodes = (
(451,329,l),
(412,291,o),
(345,271,o),
(293,271,cs),
(177,271,o),
(83,368,o),
(83,489,cs),
(83,612,o),
(180,710,o),
(303,710,cs),
(428,710,o),
(536,608,o),
(536,448,cs),
(536,282,o),
(421,102,o),
(279,0,c),
(129,0,l),
(326,133,o),
(426,312,o),
(426,457,cs),
(426,568,o),
(367,610,o),
(302,610,cs),
(230,610,o),
(193,557,o),
(193,489,cs),
(193,420,o),
(235,370,o),
(305,370,cs),
(363,370,o),
(416,386,o),
(451,426,c)
);
}
);
};
layerId = m001;
shapes = (
{
closed = 1;
nodes = (
(451,340,l),
(411,290,o),
(355,271,o),
(293,271,cs),
(177,271,o),
(83,369,o),
(83,489,cs),
(83,612,o),
(180,710,o),
(303,710,cs),
(428,710,o),
(536,608,o),
(536,448,cs),
(536,283,o),
(422,103,o),
(279,0,c),
(129,0,l),
(326,133,o),
(426,312,o),
(426,457,cs),
(426,568,o),
(367,613,o),
(302,613,cs),
(230,613,o),
(193,557,o),
(193,489,cs),
(193,420,o),
(231,370,o),
(301,370,cs),
(372,370,o),
(411,386,o),
(451,426,c)
);
}
);
width = 620;
}
);
unicode = 57;
},
{
color = 4;
glyphname = zeroinferior;
lastChange = "2026-07-02 07:21:20 +0000";
layers = (
{
layerId = m001;
shapes = (
{
closed = 1;
nodes = (
(252.863,-100,o),
(307.2,-30.34,o),
(307.2,90.14,cs),
(307.2,212.58,o),
(251.074,280.371,o),
(175,280.371,cs),
(98.926,280.371,o),
(42.8,212.58,o),
(42.8,90.14,cs),
(42.8,-30.34,o),
(97.137,-100,o),
(175,-100,cs)
);
},
{
closed = 1;
nodes = (
(150.61,-10.914,o),
(135.6,30.055,o),
(135.6,91.018,cs),
(135.6,152.013,o),
(150.61,193.286,o),
(175,193.286,cs),
(199.39,193.286,o),
(214.4,152.013,o),
(214.4,91.018,cs),
(214.4,30.055,o),
(199.39,-10.914,o),
(175,-10.914,cs)
);
}
);
width = 350;
}
);
unicode = 8320;
},
{
color = 4;
glyphname = oneinferior;
lastChange = "2026-07-02 07:21:20 +0000";
layers = (
{
layerId = m001;
shapes = (
{
closed = 1;
nodes = (
(41.571,-90.059,l),
(133.429,-90.059,l),
(133.429,291.477,l),
(41.571,182.083,l)
);
}
);
width = 175;
}
);
unicode = 8321;
},
{
color = 4;
glyphname = twoinferior;
lastChange = "2026-07-02 07:21:20 +0000";
layers = (
{
layerId = m001;
shapes = (
{
closed = 1;
nodes = (
(303.257,-89.757,l),
(303.257,-2.614,l),
(210.42,-2.614,l),
(261.653,73.25,ls),
(288.708,113.312,o),
(295.566,143.472,o),
(295.566,167.264,cs),
(295.566,231.714,o),
(245.251,280.371,o),
(175.987,280.371,cs),
(139.142,280.371,o),
(101.449,266.602,o),
(71.386,241.891,c),
(71.386,127.123,l),
(111.829,175.79,o),
(143.44,192.286,o),
(169.574,192.286,cs),
(192.805,192.286,o),
(205.853,179.252,o),
(205.853,155.747,cs),
(205.853,140.396,o),
(200.288,123.211,o),
(190.131,107.345,cs),
(63.959,-89.757,l)
);
}
);
width = 350;
}
);
unicode = 8322;
},
{
color = 4;
glyphname = threeinferior;
lastChange = "2026-07-02 07:21:20 +0000";
layers = (
{
layerId = m001;
shapes = (
{
closed = 1;
nodes = (
(242.117,-100,o),
(307.1,-50.068,o),
(307.1,22.696,cs),
(307.1,84.404,o),
(260.364,129.737,o),
(204.403,136.107,c),
(218.441,108.07,l),
(309.929,268,l),
(52.314,268,l),
(52.314,182.882,l),
(173.586,182.882,l),
(112.833,76.419,l),
(174.369,91.99,o),
(216.714,72.368,o),
(216.714,30.81,cs),
(216.714,1.006,o),
(194.935,-14.419,o),
(172.742,-14.419,cs),
(147.03,-14.419,o),
(123.655,6.285,o),
(108.986,41.362,c),
(42.815,-15.843,l),
(70.051,-66.076,o),
(117.375,-100,o),
(173.737,-100,cs)
);
}
);
width = 350;
}
);
unicode = 8323;
},
{
color = 4;
glyphname = fourinferior;
lastChange = "2026-07-02 07:21:20 +0000";
layers = (
{
layerId = m001;
shapes = (
{
closed = 1;
nodes = (
(213,-90,l),
(291,-90,l),
(290.829,304.446,l),
(9.251,-0.471,l),
(343.629,-0.471,l),
(343.629,74.314,l),
(164.064,74,l),
(212.57,126.729,l),
(213,90.496,l)
);
}
);
width = 350;
}
);
unicode = 8324;
},
{
color = 4;
glyphname = fiveinferior;
lastChange = "2026-07-02 07:21:20 +0000";
layers = (
{
layerId = m001;
shapes = (
{
closed = 1;
nodes = (
(228.596,-100,o),
(291.957,-48.957,o),
(291.957,25.076,cs),
(291.957,99.926,o),
(227.191,149.009,o),
(147.962,140.43,c),
(158.921,126.744,l),
(167.142,182.419,l),
(263.686,182.419,l),
(312.943,268,l),
(98.602,268,l),
(73.718,66.658,l),
(94.59,74.039,o),
(113.673,78.452,o),
(132.216,78.452,cs),
(173.704,78.452,o),
(201.929,56.363,o),
(201.929,26.545,cs),
(201.929,1.4,o),
(181.858,-16.383,o),
(157.58,-16.383,cs),
(135.876,-16.383,o),
(111.585,-2.169,o),
(91.809,35.349,c),
(35.122,-23.942,l),
(64.146,-71.108,o),
(107.63,-100,o),
(159.565,-100,cs)
);
}
);
width = 350;
}
);
unicode = 8325;
},
{
color = 4;
glyphname = sixinferior;
lastChange = "2026-07-02 07:21:20 +0000";
layers = (
{
layerId = m001;
shapes = (
{
closed = 1;
nodes = (
(81.982,98.94,l),
(109.709,126.188,o),
(145.947,143.957,o),
(184.474,143.957,cs),
(250.912,143.957,o),
(302.686,91.119,o),
(302.686,23.13,cs),
(302.686,-51.138,o),
(240.906,-99,o),
(173.619,-99,cs),
(97.765,-99,o),
(42.129,-38.175,o),
(42.129,42.99,cs),
(42.129,123.506,o),
(96.879,210.404,o),
(176.832,268,c),
(299.761,268,l),
(184.124,173.858,o),
(129.986,101.762,o),
(129.986,41.95,cs),
(129.986,6.599,o),
(148.898,-11.857,o),
(173.772,-11.857,cs),
(197.439,-11.857,o),
(213.829,4.853,o),
(213.829,28.944,cs),
(213.829,52.348,o),
(198.362,67.343,o),
(174.155,67.343,cs),
(148.241,67.343,o),
(118.928,50.159,o),
(82.755,13.781,c)
);
}
);
width = 350;
}
);
unicode = 8326;
},
{
color = 4;
glyphname = seveninferior;
lastChange = "2026-07-02 07:21:20 +0000";
layers = (
{
layerId = m001;
shapes = (
{
closed = 1;
nodes = (
(61.201,-90,l),
(158.494,-90,l),
(325.497,268,l),
(56.271,268,l),
(56.271,183.791,l),
(190.373,183.791,l)
);
}
);
width = 350;
}
);
unicode = 8327;
},
{
color = 4;
glyphname = eightinferior;
lastChange = "2026-07-02 07:21:20 +0000";
layers = (
{
layerId = m001;
shapes = (
{
closed = 1;
nodes = (
(145.621,-23.837,o),
(123.014,-4.295,o),
(123.014,18.199,cs),
(123.014,78.984,o),
(288.1,63.847,o),
(288.1,174.641,cs),
(288.1,234.985,o),
(239.128,280,o),
(175,280,cs),
(110.872,280,o),
(61.9,234.985,o),
(61.9,174.634,cs),
(61.9,63.67,o),
(227.457,79.054,o),
(227.457,18.215,cs),
(227.457,-4.272,o),
(204.84,-23.837,o),
(175.222,-23.837,cs)
);
},
{
closed = 1;
nodes = (
(248.229,-100,o),
(304.129,-55.623,o),
(304.129,9.456,cs),
(304.129,121.293,o),
(139.043,110.72,o),
(139.043,170.422,cs),
(139.043,188.904,o),
(154.865,201.954,o),
(175.378,201.954,cs),
(195.64,201.954,o),
(210.957,189.221,o),
(210.957,170.825,cs),
(210.957,110.429,o),
(45.871,119.083,o),
(45.871,8.401,cs),
(45.871,-56.02,o),
(101.797,-100,o),
(174.848,-100,cs)
);
}
);
width = 350;
}
);
unicode = 8328;
},
{
color = 4;
glyphname = nineinferior;
lastChange = "2026-07-02 07:21:20 +0000";
layers = (
{
layerId = m001;
shapes = (
{
closed = 1;
nodes = (
(267.908,79.06,l),
(240.181,51.812,o),
(203.943,34.043,o),
(165.415,34.043,cs),
(98.978,34.043,o),
(47.204,86.881,o),
(47.204,154.87,cs),
(47.204,229.138,o),
(108.983,277,o),
(176.271,277,cs),
(252.124,277,o),
(307.761,216.175,o),
(307.761,135.01,cs),
(307.761,54.494,o),
(253.011,-32.404,o),
(173.058,-90,c),
(50.129,-90,l),
(165.766,4.142,o),
(219.904,76.238,o),
(219.904,136.05,cs),
(219.904,171.401,o),
(200.992,189.857,o),
(176.118,189.857,cs),
(152.451,189.857,o),
(136.061,173.147,o),
(136.061,149.056,cs),
(136.061,125.652,o),
(151.528,110.657,o),
(175.735,110.657,cs),
(201.649,110.657,o),
(230.962,127.841,o),
(267.135,164.219,c)
);
}
);
width = 350;
}
);
unicode = 8329;
},
{
color = 4;
glyphname = zerosuperior;
lastChange = "2026-07-02 07:21:20 +0000";
layers = (
{
layerId = m001;
shapes = (
{
closed = 1;
nodes = (
(252.863,400,o),
(307.2,469.66,o),
(307.2,590.14,cs),
(307.2,712.58,o),
(251.074,780.371,o),
(175,780.371,cs),
(98.926,780.371,o),
(42.8,712.58,o),
(42.8,590.14,cs),
(42.8,469.66,o),
(97.137,400,o),
(175,400,cs)
);
},
{
closed = 1;
nodes = (
(150.61,489.086,o),
(135.6,530.055,o),
(135.6,591.018,cs),
(135.6,652.013,o),
(150.61,693.286,o),
(175,693.286,cs),
(199.39,693.286,o),
(214.4,652.013,o),
(214.4,591.018,cs),
(214.4,530.055,o),
(199.39,489.086,o),
(175,489.086,cs)
);
}
);
width = 350;
}
);
metricLeft = zeroinferior;
metricRight = zeroinferior;
unicode = 8304;
},
{
color = 4;
glyphname = onesuperior;
lastChange = "2026-07-02 07:21:20 +0000";
layers = (
{
layerId = m001;
shapes = (
{
closed = 1;
nodes = (
(41.571,409.941,l),
(133.429,409.941,l),
(133.429,791.477,l),
(41.571,682.083,l)
);
}
);
width = 175;
}
);
metricLeft = oneinferior;
metricRight = oneinferior;
unicode = 185;
},
{
color = 4;
glyphname = twosuperior;
lastChange = "2026-07-02 07:21:20 +0000";
layers = (
{
layerId = m001;
shapes = (
{
closed = 1;
nodes = (
(303.257,410.243,l),
(303.257,497.386,l),
(210.42,497.386,l),
(261.653,573.25,ls),
(288.708,613.312,o),
(295.566,643.472,o),
(295.566,667.264,cs),
(295.566,731.714,o),
(245.251,780.371,o),
(175.987,780.371,cs),
(139.142,780.371,o),
(101.449,766.602,o),
(71.386,741.891,c),
(71.386,627.123,l),
(111.829,675.79,o),
(143.44,692.286,o),
(169.574,692.286,cs),
(192.805,692.286,o),
(205.853,679.252,o),
(205.853,655.747,cs),
(205.853,640.396,o),
(200.288,623.211,o),
(190.131,607.345,cs),
(63.959,410.243,l)
);
}
);
width = 350;
}
);
metricLeft = twoinferior;
metricRight = twoinferior;
unicode = 178;
},
{
color = 4;
glyphname = threesuperior;
lastChange = "2026-07-02 07:21:20 +0000";
layers = (
{
layerId = m001;
shapes = (
{
closed = 1;
nodes = (
(242.117,400,o),
(307.1,449.932,o),
(307.1,522.696,cs),
(307.1,584.404,o),
(260.364,629.737,o),
(204.403,636.107,c),
(218.441,608.07,l),
(309.929,768,l),
(52.314,768,l),
(52.314,682.882,l),
(173.586,682.882,l),
(112.833,576.419,l),
(174.369,591.99,o),
(216.714,572.368,o),
(216.714,530.81,cs),
(216.714,501.006,o),
(194.935,485.581,o),
(172.742,485.581,cs),
(147.03,485.581,o),
(123.655,506.285,o),
(108.986,541.362,c),
(42.815,484.157,l),
(70.051,433.924,o),
(117.375,400,o),
(173.737,400,cs)
);
}
);
width = 350;
}
);
metricLeft = threeinferior;
metricRight = threeinferior;
unicode = 179;
},
{
color = 4;
glyphname = foursuperior;
lastChange = "2026-07-02 07:21:20 +0000";
layers = (
{
layerId = m001;
shapes = (
{
closed = 1;
nodes = (
(213,410,l),
(291,410,l),
(290.829,804.446,l),
(9.251,499.529,l),
(343.629,499.529,l),
(343.629,574.314,l),
(164.064,574,l),
(212.57,626.729,l),
(213,590.496,l)
);
}
);
width = 350;
}
);
metricLeft = fourinferior;
metricRight = fourinferior;
unicode = 8308;
},
{
color = 4;
glyphname = fivesuperior;
lastChange = "2026-07-02 07:21:20 +0000";
layers = (
{
layerId = m001;
shapes = (
{
closed = 1;
nodes = (
(228.596,400,o),
(291.957,451.043,o),
(291.957,525.076,cs),
(291.957,599.926,o),
(227.191,649.009,o),
(147.962,640.43,c),
(158.921,626.744,l),
(167.142,682.419,l),
(263.686,682.419,l),
(312.943,768,l),
(98.602,768,l),
(73.718,566.658,l),
(94.59,574.039,o),
(113.673,578.452,o),
(132.216,578.452,cs),
(173.704,578.452,o),
(201.929,556.363,o),
(201.929,526.545,cs),
(201.929,501.4,o),
(181.858,483.617,o),
(157.58,483.617,cs),
(135.876,483.617,o),
(111.585,497.831,o),
(91.809,535.349,c),
(35.122,476.058,l),
(64.146,428.892,o),
(107.63,400,o),
(159.565,400,cs)
);
}
);
width = 350;
}
);
metricLeft = fiveinferior;
metricRight = fiveinferior;
unicode = 8309;
},
{
color = 4;
glyphname = sixsuperior;
lastChange = "2026-07-02 07:21:20 +0000";
layers = (
{
layerId = m001;
shapes = (
{
closed = 1;
nodes = (
(81.982,598.94,l),
(109.709,626.188,o),
(145.947,643.957,o),
(184.474,643.957,cs),
(250.912,643.957,o),
(302.686,591.119,o),
(302.686,523.13,cs),
(302.686,448.862,o),
(240.906,401,o),
(173.619,401,cs),
(97.765,401,o),
(42.129,461.825,o),
(42.129,542.99,cs),
(42.129,623.506,o),
(96.879,710.404,o),
(176.832,768,c),
(299.761,768,l),
(184.124,673.858,o),
(129.986,601.762,o),
(129.986,541.95,cs),
(129.986,506.599,o),
(148.898,488.143,o),
(173.772,488.143,cs),
(197.439,488.143,o),
(213.829,504.853,o),
(213.829,528.944,cs),
(213.829,552.348,o),
(198.362,567.343,o),
(174.155,567.343,cs),
(148.241,567.343,o),
(118.928,550.159,o),
(82.755,513.781,c)
);
}
);
width = 350;
}
);
metricLeft = sixinferior;
metricRight = sixinferior;
unicode = 8310;
},
{
color = 4;
glyphname = sevensuperior;
lastChange = "2026-07-02 07:21:20 +0000";
layers = (
{
layerId = m001;
shapes = (
{
closed = 1;
nodes = (
(61.201,410,l),
(158.494,410,l),
(325.497,768,l),
(56.271,768,l),
(56.271,683.791,l),
(190.373,683.791,l)
);
}
);
width = 350;
}
);
metricLeft = seveninferior;
metricRight = seveninferior;
unicode = 8311;
},
{
color = 4;
glyphname = eightsuperior;
lastChange = "2026-07-02 07:21:20 +0000";
layers = (
{
layerId = m001;
shapes = (
{
closed = 1;
nodes = (
(145.621,476.163,o),
(123.014,495.705,o),
(123.014,518.199,cs),
(123.014,578.984,o),
(288.1,563.847,o),
(288.1,674.641,cs),
(288.1,734.985,o),
(239.128,780,o),
(175,780,cs),
(110.872,780,o),
(61.9,734.985,o),
(61.9,674.634,cs),
(61.9,563.67,o),
(227.457,579.054,o),
(227.457,518.215,cs),
(227.457,495.728,o),
(204.84,476.163,o),
(175.222,476.163,cs)
);
},
{
closed = 1;
nodes = (
(248.229,400,o),
(304.129,444.377,o),
(304.129,509.456,cs),
(304.129,621.293,o),
(139.043,610.72,o),
(139.043,670.422,cs),
(139.043,688.904,o),
(154.865,701.954,o),
(175.378,701.954,cs),
(195.64,701.954,o),
(210.957,689.221,o),
(210.957,670.825,cs),
(210.957,610.429,o),
(45.871,619.083,o),
(45.871,508.401,cs),
(45.871,443.98,o),
(101.797,400,o),
(174.848,400,cs)
);
}
);
width = 350;
}
);
metricLeft = eightinferior;
metricRight = eightinferior;
unicode = 8312;
},
{
color = 4;
glyphname = ninesuperior;
lastChange = "2026-07-02 07:21:20 +0000";
layers = (
{
layerId = m001;
shapes = (
{
closed = 1;
nodes = (
(267.908,579.06,l),
(240.181,551.812,o),
(203.943,534.043,o),
(165.415,534.043,cs),
(98.978,534.043,o),
(47.204,586.881,o),
(47.204,654.87,cs),
(47.204,729.138,o),
(108.983,777,o),
(176.271,777,cs),
(252.124,777,o),
(307.761,716.175,o),
(307.761,635.01,cs),
(307.761,554.494,o),
(253.011,467.596,o),
(173.058,410,c),
(50.129,410,l),
(165.766,504.142,o),
(219.904,576.238,o),
(219.904,636.05,cs),
(219.904,671.401,o),
(200.992,689.857,o),
(176.118,689.857,cs),
(152.451,689.857,o),
(136.061,673.147,o),
(136.061,649.056,cs),
(136.061,625.652,o),
(151.528,610.657,o),
(175.735,610.657,cs),
(201.649,610.657,o),
(230.962,627.841,o),
(267.135,664.219,c)
);
}
);
width = 350;
}
);
metricLeft = nineinferior;
metricRight = nineinferior;
unicode = 8313;
},
{
color = 4;
glyphname = .notdef;
kernLeft = .notdef;
kernRight = .notdef;
lastChange = "2026-07-07 10:19:21 +0000";
layers = (
{
.lastUpdate = 805112361.939;
layerId = m001;
shapes = (
{
closed = 1;
nodes = (
(80,0,l),
(441,0,l),
(441,700,l),
(80,700,l)
);
},
{
closed = 1;
nodes = (
(381,640,l),
(381,60,l),
(140,60,l),
(140,640,l)
);
}
);
width = 521;
}
);
metricRight = "=|";
},
{
color = 4;
glyphname = period;
kernLeft = period;
kernRight = period;
lastChange = "2026-07-01 11:37:32 +0000";
layers = (
{
layerId = m001;
shapes = (
{
closed = 1;
nodes = (
(160,0,l),
(160,97,l),
(60,97,l),
(60,0,l)
);
}
);
width = 220;
}
);
unicode = 46;
userData = {
KernOnSpecialSpacing = {
L = period;
R = period;
};
};
},
{
color = 4;
glyphname = comma;
kernLeft = period;
kernRight = period;
lastChange = "2026-07-01 11:38:21 +0000";
layers = (
{
layerId = m001;
shapes = (
{
closed = 1;
nodes = (
(146,-143,o),
(217,-86,o),
(217,-8,c),
(217,92,l),
(117,92,l),
(117,-8,ls),
(117,-87,o),
(95,-120,o),
(60,-132,c),
(60,-143,l)
);
}
);
width = 277;
}
);
metricLeft = period;
metricRight = period;
unicode = 44;
userData = {
KernOnSpecialSpacing = {
L = period;
R = period;
};
};
},
{
color = (153,254,255,255);
glyphname = colon;
lastChange = "2026-07-02 07:02:47 +0000";
layers = (
{
layerId = m001;
shapes = (
{
closed = 1;
nodes = (
(60,0,l),
(160,0,l),
(160,97,l),
(60,97,l)
);
},
{
closed = 1;
nodes = (
(60,341,l),
(160,341,l),
(160,438,l),
(60,438,l)
);
}
);
width = 220;
}
);
metricLeft = period;
metricRight = period;
unicode = 58;
},
{
color = (153,254,255,255);
glyphname = semicolon;
lastChange = "2026-07-02 07:02:47 +0000";
layers = (
{
layerId = m001;
shapes = (
{
closed = 1;
nodes = (
(60,-143,l),
(146,-143,o),
(217,-86,o),
(217,-8,cs),
(217,92,l),
(117,92,l),
(117,-8,ls),
(117,-87,o),
(95,-120,o),
(60,-132,c)
);
},
{
closed = 1;
nodes = (
(117,341,l),
(217,341,l),
(217,438,l),
(117,438,l)
);
}
);
width = 277;
}
);
metricLeft = comma;
metricRight = period;
unicode = 59;
},
{
color = (153,254,255,255);
glyphname = exclam;
kernLeft = exclam;
kernRight = exclam;
lastChange = "2026-07-07 11:33:53 +0000";
layers = (
{
.lastUpdate = 805116794.516;
layerId = m001;
shapes = (
{
closed = 1;
nodes = (
(114,156,l),
(170,156,l),
(201,612,l),
(201,700,l),
(81,700,l),
(81,612,l)
);
},
{
closed = 1;
nodes = (
(141,-17,l),
(212,54,l),
(141,125,l),
(70,54,l)
);
}
);
width = 282;
}
);
unicode = 33;
},
{
color = (153,254,255,255);
glyphname = exclamdown;
kernLeft = exclam;
kernRight = exclam;
lastChange = "2026-07-07 11:34:00 +0000";
layers = (
{
.lastUpdate = 805116828.773;
layerId = m001;
shapes = (
{
closed = 1;
nodes = (
(167,319,l),
(111,319,l),
(80,-137,l),
(80,-225,l),
(200,-225,l),
(200,-137,l)
);
},
{
closed = 1;
nodes = (
(140,492,l),
(70,421,l),
(140,351,l),
(211,421,l)
);
}
);
width = 281;
}
);
metricLeft = exclam;
metricRight = exclam;
unicode = 161;
},
{
color = (153,254,255,255);
glyphname = question;
lastChange = "2026-07-01 11:46:30 +0000";
layers = (
{
layerId = m001;
shapes = (
{
closed = 1;
nodes = (
(292.187,222.659,l),
(262.685,233.318,o),
(242.013,258.426,o),
(242.013,283.584,cs),
(242.013,304.866,o),
(256.806,324.127,o),
(304.587,356.94,cs),
(386.157,412.955,o),
(418,461.35,o),
(418,530.73,cs),
(418,644.866,o),
(331.822,712,o),
(224.327,712,cs),
(132.186,712,o),
(57.38,662.674,o),
(32.5,572.436,c),
(115.566,519.737,l),
(127.704,583.7,o),
(176.85,614.827,o),
(225.486,614.827,cs),
(275.73,614.827,o),
(315.838,581.607,o),
(315.838,531.963,cs),
(315.838,495.511,o),
(294.214,466.125,o),
(233.708,422.106,cs),
(187.095,388.195,o),
(136.407,343.214,o),
(136.407,279.509,cs),
(136.407,231.793,o),
(164.844,185.376,o),
(213.688,149.327,c)
);
},
{
closed = 1;
nodes = (
(214.361,-16.711,l),
(285.071,54,l),
(214.361,124.711,l),
(143.65,54,l)
);
}
);
width = 450;
}
);
unicode = 63;
},
{
color = (153,254,255,255);
glyphname = questiondown;
lastChange = "2026-07-07 11:34:12 +0000";
layers = (
{
.lastUpdate = 805116852.057;
layerId = m001;
shapes = (
{
closed = 1;
nodes = (
(158,252,l),
(187,242,o),
(208,217,o),
(208,191,cs),
(208,170,o),
(193,151,o),
(145,118,cs),
(64,62,o),
(32,14,o),
(32,-56,cs),
(32,-170,o),
(118,-237,o),
(226,-237,cs),
(318,-237,o),
(393,-188,o),
(418,-97,c),
(334,-45,l),
(322,-109,o),
(273,-140,o),
(225,-140,cs),
(174,-140,o),
(134,-107,o),
(134,-57,cs),
(134,-21,o),
(156,9,o),
(216,53,cs),
(263,87,o),
(314,132,o),
(314,195,cs),
(314,243,o),
(285,290,o),
(236,326,c)
);
},
{
closed = 1;
nodes = (
(236,492,l),
(165,421,l),
(236,350,l),
(306,421,l)
);
}
);
width = 451;
}
);
metricLeft = "=|question";
metricRight = "=|question";
unicode = 191;
},
{
color = (153,254,255,255);
glyphname = periodcentered;
lastChange = "2026-07-01 11:46:30 +0000";
layers = (
{
anchors = (
{
name = _center;
pos = (78,279);
}
);
layerId = m001;
shapes = (
{
closed = 1;
nodes = (
(30,231,l),
(130,231,l),
(130,328,l),
(30,328,l)
);
}
);
width = 160;
}
);
unicode = 183;
},
{
color = (153,254,255,255);
glyphname = bullet;
lastChange = "2026-07-02 07:02:47 +0000";
layers = (
{
anchors = (
{
name = center;
pos = (159,300);
}
);
layerId = m001;
shapes = (
{
closed = 1;
nodes = (
(159,201,l),
(258,300,l),
(159,399,l),
(60,300,l)
);
}
);
width = 318;
}
);
metricLeft = I;
metricRight = I;
unicode = 8226;
},
{
color = (153,254,255,255);
glyphname = asterisk;
lastChange = "2026-07-07 11:34:21 +0000";
layers = (
{
.lastUpdate = 805116861.311;
layerId = m001;
shapes = (
{
closed = 1;
nodes = (
(175,328,l),
(270,328,l),
(237,522,l),
(270,715,l),
(175,715,l),
(208,522,l)
);
},
{
closed = 1;
nodes = (
(74,655,l),
(30,571,l),
(216,509,l),
(371,388,l),
(415,472,l),
(229,534,l)
);
},
{
closed = 1;
nodes = (
(371,655,l),
(216,534,l),
(30,472,l),
(74,388,l),
(229,509,l),
(415,571,l)
);
}
);
width = 445;
}
);
unicode = 42;
},
{
color = (153,254,255,255);
glyphname = exclamationquestion;
lastChange = "2026-07-07 11:33:32 +0000";
layers = (
{
.lastUpdate = 805116812.892;
layerId = m001;
shapes = (
{
closed = 1;
nodes = (
(504,223,l),
(475,233,o),
(454,258,o),
(454,284,cs),
(454,305,o),
(469,324,o),
(517,357,cs),
(598,413,o),
(630,461,o),
(630,531,cs),
(630,645,o),
(544,712,o),
(436,712,cs),
(344,712,o),
(269,663,o),
(245,572,c),
(328,520,l),
(340,584,o),
(389,615,o),
(437,615,cs),
(488,615,o),
(528,582,o),
(528,532,cs),
(528,496,o),
(506,466,o),
(446,422,cs),
(399,388,o),
(348,343,o),
(348,280,cs),
(348,232,o),
(377,185,o),
(426,149,c)
);
},
{
closed = 1;
nodes = (
(426,-17,l),
(497,54,l),
(426,125,l),
(356,54,l)
);
},
{
closed = 1;
nodes = (
(114,156,l),
(170,156,l),
(201,612,l),
(201,700,l),
(81,700,l),
(81,612,l)
);
},
{
closed = 1;
nodes = (
(141,-17,l),
(212,54,l),
(141,125,l),
(70,54,l)
);
}
);
width = 662;
}
);
metricLeft = exclam;
metricRight = question;
unicode = 8265;
},
{
color = (153,254,255,255);
glyphname = exclamdouble;
lastChange = "2026-07-07 11:33:32 +0000";
layers = (
{
.lastUpdate = 805116812.893;
layerId = m001;
shapes = (
{
closed = 1;
nodes = (
(374,156,l),
(430,156,l),
(461,612,l),
(461,700,l),
(341,700,l),
(341,612,l)
);
},
{
closed = 1;
nodes = (
(401,-17,l),
(472,54,l),
(401,125,l),
(330,54,l)
);
},
{
closed = 1;
nodes = (
(114,156,l),
(170,156,l),
(201,612,l),
(201,700,l),
(81,700,l),
(81,612,l)
);
},
{
closed = 1;
nodes = (
(141,-17,l),
(212,54,l),
(141,125,l),
(70,54,l)
);
}
);
width = 542;
}
);
metricLeft = exclam;
metricRight = exclam;
unicode = 8252;
},
{
color = (153,254,255,255);
glyphname = numbersign;
lastChange = "2026-07-01 11:46:30 +0000";
layers = (
{
layerId = m001;
shapes = (
{
closed = 1;
nodes = (
(328.448,81.308,l),
(422.602,81.308,l),
(564.21,587.85,l),
(467.698,587.85,l)
);
},
{
closed = 1;
nodes = (
(76.118,380.094,l),
(622.194,380.094,l),
(643.927,469.813,l),
(99.827,469.813,l)
);
},
{
closed = 1;
nodes = (
(33.07,204.019,l),
(577.476,204.019,l),
(604.054,290.935,l),
(57.604,290.935,l)
);
},
{
closed = 1;
nodes = (
(115.876,81.308,l),
(211.359,81.308,l),
(351.794,587.85,l),
(258.422,587.85,l)
);
}
);
width = 677;
}
);
unicode = 35;
},
{
color = (153,254,255,255);
glyphname = doublequestion;
lastChange = "2026-07-01 11:46:30 +0000";
layers = (
{
layerId = m001;
shapes = (
{
closed = 1;
nodes = (
(527.361,-16.711,l),
(598.071,54,l),
(527.361,124.711,l),
(456.65,54,l)
);
},
{
closed = 1;
nodes = (
(215.361,-16.711,l),
(286.071,54,l),
(215.361,124.711,l),
(144.65,54,l)
);
},
{
closed = 1;
nodes = (
(442.223,577.805,o),
(481.41,614.827,o),
(536.009,614.827,cs),
(587.73,614.827,o),
(628.838,581.607,o),
(628.838,531.704,cs),
(628.838,495.511,o),
(607.214,466.125,o),
(546.708,422.106,cs),
(500.095,388.195,o),
(449.407,343.214,o),
(449.407,279.509,cs),
(449.407,231.793,o),
(477.844,185.376,o),
(526.688,149.327,c),
(605.187,222.659,l),
(575.685,233.318,o),
(555.013,258.426,o),
(555.013,283.584,cs),
(555.013,304.866,o),
(569.806,324.127,o),
(617.587,356.94,cs),
(699.157,412.955,o),
(731,461.35,o),
(731,530.481,cs),
(731,644.866,o),
(643.822,712,o),
(536.327,712,cs),
(466.002,712,o),
(405.775,683.266,o),
(370.135,619.539,c),
(392,620,l),
(357.72,682.592,o),
(295.474,712,o),
(224.327,712,cs),
(132.186,712,o),
(57.38,662.674,o),
(32.5,572.436,c),
(115.566,519.737,l),
(127.704,583.7,o),
(176.85,614.827,o),
(225.486,614.827,cs),
(275.73,614.827,o),
(316.838,581.607,o),
(316.838,531.704,cs),
(316.838,495.511,o),
(295.214,466.125,o),
(234.708,422.106,cs),
(188.095,388.195,o),
(137.407,343.214,o),
(137.407,279.509,cs),
(137.407,231.793,o),
(165.844,185.376,o),
(214.688,149.327,c),
(293.187,222.659,l),
(263.685,233.318,o),
(243.013,258.426,o),
(243.013,283.584,cs),
(243.013,304.866,o),
(257.806,324.127,o),
(301.407,354.069,cs),
(363.699,396.846,o),
(398.632,439.414,o),
(419.089,504.361,cs)
);
}
);
width = 763;
}
);
metricLeft = question;
metricRight = question;
unicode = 8263;
},
{
color = (153,254,255,255);
glyphname = questionexclamation;
lastChange = "2026-07-07 11:33:32 +0000";
layers = (
{
.lastUpdate = 805116812.893;
layerId = m001;
shapes = (
{
closed = 1;
nodes = (
(522,156,l),
(578,156,l),
(609,612,l),
(609,700,l),
(489,700,l),
(489,612,l)
);
},
{
closed = 1;
nodes = (
(549,-16.711,l),
(619.711,54,l),
(549,124.711,l),
(478.289,54,l)
);
},
{
closed = 1;
nodes = (
(292.187,222.659,l),
(262.685,233.318,o),
(242.013,258.426,o),
(242.013,283.584,cs),
(242.013,304.866,o),
(256.806,324.127,o),
(304.587,356.94,cs),
(386.157,412.955,o),
(418,461.35,o),
(418,530.73,cs),
(418,644.866,o),
(331.822,712,o),
(224.327,712,cs),
(132.186,712,o),
(57.38,662.674,o),
(32.5,572.436,c),
(115.566,519.737,l),
(127.704,583.7,o),
(176.85,614.827,o),
(225.486,614.827,cs),
(275.73,614.827,o),
(315.838,581.607,o),
(315.838,531.963,cs),
(315.838,495.511,o),
(294.214,466.125,o),
(233.708,422.106,cs),
(187.095,388.195,o),
(136.407,343.214,o),
(136.407,279.509,cs),
(136.407,231.793,o),
(164.844,185.376,o),
(213.688,149.327,c)
);
},
{
closed = 1;
nodes = (
(214.361,-16.711,l),
(285.071,54,l),
(214.361,124.711,l),
(143.65,54,l)
);
}
);
width = 690;
}
);
metricLeft = question;
metricRight = exclam;
unicode = 8264;
},
{
color = (153,254,255,255);
glyphname = slash;
lastChange = "2026-07-01 11:46:30 +0000";
layers = (
{
guides = (
{
pos = (0,-203);
}
);
layerId = m001;
shapes = (
{
closed = 1;
nodes = (
(1,-162.986,l),
(111,-162.986,l),
(307,740.002,l),
(204,740.002,l)
);
}
);
width = 308;
}
);
unicode = 47;
},
{
color = (153,254,255,255);
glyphname = twodotenleader;
lastChange = "2026-07-02 07:02:47 +0000";
layers = (
{
layerId = m001;
shapes = (
{
closed = 1;
nodes = (
(245,0,l),
(345,0,l),
(345,97,l),
(245,97,l)
);
},
{
closed = 1;
nodes = (
(60,0,l),
(160,0,l),
(160,97,l),
(60,97,l)
);
}
);
width = 405;
}
);
metricLeft = period;
metricRight = period;
unicode = 8229;
},
{
color = 4;
glyphname = periodcentered.loclCAT;
lastChange = "2026-07-06 13:08:15 +0000";
layers = (
{
anchors = (
{
name = _center;
pos = (101,357);
}
);
layerId = m001;
shapes = (
{
closed = 1;
nodes = (
(45,378,l),
(145,378,l),
(145,475,l),
(45,475,l)
);
}
);
width = 160;
}
);
},
{
color = (154,153,255,255);
glyphname = periodcentered.loclCAT.case;
lastChange = "2026-07-02 07:08:51 +0000";
layers = (
{
anchors = (
{
name = _center;
pos = (78,354);
}
);
layerId = m001;
shapes = (
{
closed = 1;
nodes = (
(30,306,l),
(130,306,l),
(130,403,l),
(30,403,l)
);
}
);
width = 160;
}
);
},
{
color = (153,254,255,255);
glyphname = hyphen;
layers = (
{
layerId = m001;
shapes = (
{
closed = 1;
nodes = (
(345,228,l),
(345,318,l),
(35,318,l),
(35,228,l)
);
}
);
width = 380;
}
);
unicode = 45;
},
{
color = (153,254,255,255);
glyphname = endash;
lastChange = "2026-07-02 07:11:30 +0000";
layers = (
{
layerId = m001;
shapes = (
{
closed = 1;
nodes = (
(500,228,l),
(500,328,l),
(0,328,l),
(0,228,l)
);
}
);
width = 500;
}
);
unicode = 8211;
},
{
color = (153,254,255,255);
glyphname = emdash;
lastChange = "2026-07-02 07:35:22 +0000";
layers = (
{
layerId = m001;
shapes = (
{
closed = 1;
nodes = (
(750,228,l),
(750,328,l),
(0,328,l),
(0,228,l)
);
}
);
width = 750;
}
);
unicode = 8212;
},
{
color = (153,254,255,255);
glyphname = underscore;
lastChange = "2026-07-02 07:35:22 +0000";
layers = (
{
layerId = m001;
shapes = (
{
closed = 1;
nodes = (
(0,-95,l),
(630,-95,l),
(630,0,l),
(0,0,l)
);
}
);
width = 630;
}
);
unicode = 95;
},
{
color = (153,255,154,255);
glyphname = parenleftinferior;
lastChange = "2026-07-02 07:09:19 +0000";
layers = (
{
layerId = m001;
shapes = (
{
closed = 1;
nodes = (
(165.345,-173.851,l),
(129.692,-103.317,o),
(105.923,-28.495,o),
(105.923,52.235,cs),
(105.923,133.085,o),
(128.366,206.522,o),
(163.213,279.114,c),
(72.527,279.114,l),
(39.048,213.043,o),
(18.192,138.488,o),
(18.192,52.235,cs),
(18.192,-31.8,o),
(35.305,-99.309,o),
(72.985,-173.851,c)
);
}
);
width = 182;
}
);
unicode = 8333;
},
{
color = (153,255,154,255);
glyphname = parenrightinferior;
lastChange = "2026-07-02 07:35:22 +0000";
layers = (
{
layerId = m001;
shapes = (
{
closed = 1;
nodes = (
(109.329,-173.851,l),
(142.205,-108.812,o),
(164.123,-35.308,o),
(164.123,52.235,cs),
(164.123,138.488,o),
(143.267,213.043,o),
(109.787,279.114,c),
(19.102,279.114,l),
(53.948,206.522,o),
(76.392,133.085,o),
(76.392,52.235,cs),
(76.392,-28.495,o),
(52.623,-103.317,o),
(16.969,-173.851,c)
);
}
);
width = 183;
}
);
unicode = 8334;
},
{
color = (153,254,255,255);
glyphname = parenleft;
lastChange = "2026-07-02 07:35:22 +0000";
layers = (
{
layerId = m001;
shapes = (
{
closed = 1;
nodes = (
(218,-163,l),
(158,-40.809,o),
(118,103.914,o),
(118,287.633,cs),
(118,471.353,o),
(156,613.476,o),
(215,740,c),
(117,740,l),
(56,616.076,o),
(18,468.753,o),
(18,287.633,cs),
(18,103.914,o),
(58,-40.809,o),
(118,-163,c)
);
}
);
width = 234;
}
);
metricLeft = O;
metricRight = z;
unicode = 40;
},
{
color = (153,254,255,255);
glyphname = parenright;
lastChange = "2026-07-02 07:35:22 +0000";
layers = (
{
layerId = m001;
shapes = (
{
closed = 1;
nodes = (
(16,-163,l),
(76,-40.809,o),
(116,103.914,o),
(116,287.633,cs),
(116,471.353,o),
(78,613.476,o),
(19,740,c),
(117,740,l),
(178,616.076,o),
(216,468.753,o),
(216,287.633,cs),
(216,103.914,o),
(176,-40.809,o),
(116,-163,c)
);
}
);
width = 234;
}
);
metricLeft = z;
metricRight = O;
unicode = 41;
},
{
color = (153,254,255,255);
glyphname = braceleft;
lastChange = "2026-07-02 07:35:22 +0000";
layers = (
{
guides = (
{
pos = (0,248);
}
);
layerId = m001;
shapes = (
{
closed = 1;
nodes = (
(146,307.016,o),
(165,343.622,o),
(165,406.016,cs),
(165,558.016,ls),
(165,610.361,o),
(192.957,645.016,o),
(240,645.016,cs),
(258,645.016,l),
(258,740.016,l),
(234,740.016,ls),
(137.917,740.016,o),
(70,675.46,o),
(70,584.016,cs),
(70,413.016,ls),
(70,351.722,o),
(53,316.016,o),
(7,288.016,c),
(53,260.016,o),
(70,225.31,o),
(70,164.016,cs),
(70,-6.984,ls),
(70,-98.428,o),
(137.917,-162.984,o),
(234,-162.984,cs),
(258,-162.984,l),
(258,-67.984,l),
(240,-67.984,ls),
(192.957,-67.984,o),
(165,-33.329,o),
(165,19.016,cs),
(165,170.016,ls),
(165,232.41,o),
(146,269.016,o),
(118,288.016,c)
);
}
);
width = 288;
}
);
unicode = 123;
},
{
color = (153,254,255,255);
glyphname = bracketleft;
lastChange = "2026-07-02 07:35:22 +0000";
layers = (
{
layerId = m001;
shapes = (
{
closed = 1;
nodes = (
(70,-163,l),
(258,-163,l),
(258,-68,l),
(165,-68,l),
(165,645,l),
(258,645,l),
(258,740,l),
(70,740,l)
);
}
);
width = 288;
}
);
unicode = 91;
},
{
color = (153,255,154,255);
glyphname = parenleftsuperior;
lastChange = "2026-07-02 07:35:22 +0000";
layers = (
{
layerId = m001;
shapes = (
{
closed = 1;
nodes = (
(165.345,326.149,l),
(129.692,396.683,o),
(105.923,471.505,o),
(105.923,552.235,cs),
(105.923,633.085,o),
(128.366,706.522,o),
(163.213,779.114,c),
(72.527,779.114,l),
(39.048,713.043,o),
(18.192,638.488,o),
(18.192,552.235,cs),
(18.192,468.2,o),
(35.305,400.691,o),
(72.985,326.149,c)
);
}
);
width = 182;
}
);
unicode = 8317;
},
{
color = (153,255,154,255);
glyphname = parenrightsuperior;
lastChange = "2026-07-02 07:09:08 +0000";
layers = (
{
layerId = m001;
shapes = (
{
closed = 1;
nodes = (
(109.329,326.149,l),
(142.205,391.188,o),
(164.123,464.692,o),
(164.123,552.235,cs),
(164.123,638.488,o),
(143.267,713.043,o),
(109.787,779.114,c),
(19.102,779.114,l),
(53.948,706.522,o),
(76.392,633.085,o),
(76.392,552.235,cs),
(76.392,471.505,o),
(52.623,396.683,o),
(16.969,326.149,c)
);
}
);
width = 183;
}
);
unicode = 8318;
},
{
color = (153,254,255,255);
glyphname = quotedblleft;
lastChange = "2026-07-02 07:35:22 +0000";
layers = (
{
layerId = m001;
shapes = (
{
closed = 1;
nodes = (
(345,700,l),
(262.037,700,o),
(187,645,o),
(187,565,cs),
(187,481,l),
(287,481,l),
(287,565,ls),
(287,644,o),
(310.484,677.495,o),
(345,689,c)
);
},
{
closed = 1;
nodes = (
(165,700,l),
(79,700,o),
(8,643,o),
(8,565,cs),
(8,457,l),
(108,457,l),
(108,565,ls),
(108,644,o),
(130,677,o),
(165,689,c)
);
}
);
width = 358;
}
);
unicode = 8220;
},
{
color = (153,254,255,255);
glyphname = quotedblright;
lastChange = "2026-07-02 07:09:07 +0000";
layers = (
{
layerId = m001;
shapes = (
{
closed = 1;
nodes = (
(13,457,l),
(99,457,o),
(170,514,o),
(170,592,cs),
(170,700,l),
(70,700,l),
(70,592,ls),
(70,513,o),
(48,480,o),
(13,468,c)
);
},
{
closed = 1;
nodes = (
(192,481,l),
(274.963,481,o),
(350,536,o),
(350,616,cs),
(350,700,l),
(250,700,l),
(250,616,ls),
(250,537,o),
(226.516,503.505,o),
(192,492,c)
);
}
);
width = 358;
}
);
unicode = 8221;
},
{
color = (153,254,255,255);
glyphname = quoteleft;
lastChange = "2026-07-02 07:35:22 +0000";
layers = (
{
layerId = m001;
shapes = (
{
closed = 1;
nodes = (
(165,700,l),
(79,700,o),
(8,643,o),
(8,565,cs),
(8,457,l),
(108,457,l),
(108,565,ls),
(108,644,o),
(130,677,o),
(165,689,c)
);
}
);
width = 178;
}
);
unicode = 8216;
},
{
color = (153,254,255,255);
glyphname = quoteright;
lastChange = "2026-07-02 07:09:08 +0000";
layers = (
{
layerId = m001;
shapes = (
{
closed = 1;
nodes = (
(13,457,l),
(99,457,o),
(170,514,o),
(170,592,cs),
(170,700,l),
(70,700,l),
(70,592,ls),
(70,513,o),
(48,480,o),
(13,468,c)
);
}
);
width = 178;
}
);
unicode = 8217;
},
{
color = (153,254,255,255);
glyphname = guilsinglleft;
lastChange = "2026-07-02 07:35:22 +0000";
layers = (
{
layerId = m001;
shapes = (
{
closed = 1;
nodes = (
(179,101,l),
(319,101,l),
(143,288,l),
(319,473,l),
(179,473,l),
(7,287,l)
);
}
);
width = 349;
}
);
metricLeft = braceleft;
metricRight = bracketleft;
unicode = 8249;
},
{
color = (153,254,255,255);
glyphname = guilsinglright;
lastChange = "2026-07-02 07:35:22 +0000";
layers = (
{
layerId = m001;
shapes = (
{
closed = 1;
nodes = (
(170.3,101,l),
(342.3,287,l),
(170.3,473,l),
(30.3,473,l),
(206.3,288,l),
(30.3,101,l)
);
}
);
width = 349;
}
);
metricLeft = bracketright;
metricRight = braceright;
unicode = 8250;
},
{
color = (153,254,255,255);
glyphname = quotedbl;
lastChange = "2026-07-02 07:35:22 +0000";
layers = (
{
layerId = m001;
shapes = (
{
closed = 1;
nodes = (
(73,457,l),
(109,457,l),
(140,600,l),
(140,700,l),
(40,700,l),
(40,600,l)
);
},
{
closed = 1;
nodes = (
(243,457,l),
(279,457,l),
(310,600,l),
(310,700,l),
(210,700,l),
(210,600,l)
);
}
);
width = 350;
}
);
metricLeft = i;
metricRight = i;
unicode = 34;
},
{
color = (153,254,255,255);
glyphname = quotesingle;
lastChange = "2026-07-02 07:34:02 +0000";
layers = (
{
layerId = m001;
shapes = (
{
closed = 1;
nodes = (
(73,457,l),
(109,457,l),
(140,600,l),
(140,700,l),
(40,700,l),
(40,600,l)
);
}
);
width = 180;
}
);
metricLeft = i;
metricRight = i;
unicode = 39;
},
{
color = 8;
glyphname = reversedRotatedFloralHeartBullet;
kernLeft = alpha;
kernRight = alpha;
lastChange = "2026-07-07 10:16:30 +0000";
layers = (
{
.lastUpdate = 805112190.254;
layerId = m001;
shapes = (
{
closed = 1;
nodes = (
(261.516,-237.724,o),
(361.585,-161.844,o),
(407,-63,c),
(411.667,-56.333,o),
(414,-48,o),
(414,-38,cs),
(414,-28.667,o),
(417.667,-21,o),
(425,-15,c),
(497,-8.333,o),
(564.333,10.667,o),
(611,72,c),
(641,121.5,ls),
(651,138.5,o),
(655,156.667,o),
(653,176,c),
(636.854,106.035,o),
(568.952,48.608,o),
(500,38,c),
(481.369,40.329,o),
(451.28,26.72,o),
(434,44,c),
(436.667,53.333,o),
(437.667,63,o),
(437,73,cs),
(436.333,83,o),
(436.333,92.667,o),
(437,102,c),
(445,124.667,o),
(446,151.333,o),
(446,178,cs),
(446,218,ls),
(446,231.333,o),
(447,244.333,o),
(449,257,c),
(455,263,l),
(608,272,ls),
(630,272,o),
(651,275.833,o),
(671,283.5,cs),
(691,291.167,o),
(710.667,296.333,o),
(730,299,c),
(712.667,260.333,o),
(722,217.667,o),
(734,179,c),
(742,179,l),
(742,185,o),
(740.333,190.167,o),
(737,194.5,cs),
(733.667,198.833,o),
(731.333,203.667,o),
(730,209,cs),
(722,258.333,o),
(738.667,306.333,o),
(776,341,c),
(793.391,361.869,o),
(817.315,361.838,o),
(820,386,c),
(804,380.667,o),
(788.333,373.333,o),
(773,364,cs),
(757.667,354.667,o),
(741.333,348,o),
(724,344,c),
(678,341.333,o),
(632.5,337.5,o),
(587.5,332.5,cs),
(542.5,327.5,o),
(497.333,325.333,o),
(452,326,c),
(446,332,l),
(444.667,388,o),
(445,457.667,o),
(449,515,c),
(455,521,l),
(501.873,528.812,o),
(541,508,o),
(580,483.5,cs),
(625,455,o),
(647,444,o),
(632,392,c),
(658.268,415.641,o),
(710.804,443.221,o),
(695,488,c),
(631,549.333,o),
(549,569.667,o),
(461,563,c),
(452,571,l),
(457.017,631.207,o),
(451.137,702.768,o),
(470,757,c),
(461,757,l),
(434.333,737,o),
(406.333,720.667,o),
(377,708,cs),
(347.667,695.333,o),
(319,680.667,o),
(291,664,c),
(291,655,l),
(308.333,665.667,o),
(319.667,666.667,o),
(341,664,c),
(347.667,658,o),
(354.667,652.833,o),
(362,648.5,cs),
(369.333,644.167,o),
(374.333,637.333,o),
(377,628,c),
(377,598.904,o),
(392.699,564.389,o),
(365,545,c),
(278.436,503.03,o),
(163.868,430.524,o),
(156,323,c),
(114.667,307,o),
(75,289.667,o),
(39,263,c),
(39,248,l),
(59,256,o),
(81,258.333,o),
(105,257,cs),
(123.784,257,o),
(136.604,272.754,o),
(150,254,c),
(158,207.5,ls),
(166.112,159.841,o),
(177.651,115.349,o),
(213,80,c),
(241.666,39.868,o),
(280.559,16.679,o),
(323,-0.5,cs),
(365,-18,l),
(361,-82,o),
(331.667,-137.333,o),
(285,-180,c),
(249,-192,o),
(203,-199.333,o),
(171,-174,c),
(129.667,-146,o),
(105.365,-106.389,o),
(108,-57,cs),
(110.705,-6.284,o),
(147,40,o),
(195,56,c),
(186,60,l),
(140.491,32.189,o),
(67.461,2.227,o),
(54,-57,c),
(27.98,-101.233,o),
(48.309,-161.514,o),
(72,-201,c),
(92.276,-226.344,o),
(129.583,-230.992,o),
(156,-243,c)
);
},
{
closed = 1;
nodes = (
(288.79,98.239,o),
(236.251,181.235,o),
(231,260,c),
(371,260,l),
(377,254,l),
(379,225,o),
(378.667,195.5,o),
(376,164.5,cs),
(373.333,133.5,o),
(372.667,104.667,o),
(374,78,c),
(368,60,l)
);
},
{
closed = 1;
nodes = (
(219.667,338.333,o),
(219.333,348.5,o),
(224,359.5,cs),
(228.667,370.5,o),
(231.667,381.333,o),
(233,392,c),
(257.192,455.504,o),
(305.953,509.244,o),
(368,517,c),
(374,500,l),
(374,329,l),
(225,329,l)
);
},
{
closed = 1;
nodes = (
(689,0,l),
(734,44,l),
(736.466,66.191,o),
(706.843,79.254,o),
(704,102,c),
(687.848,121.383,o),
(692.123,97.281,o),
(671,92,c),
(652.333,77.333,o),
(638.333,64,o),
(629,44,c),
(647.667,36,o),
(663.667,16,o),
(677,0,c)
);
}
);
width = 859;
}
);
unicode = 9753;
},
{
color = 4;
glyphname = floralHeart;
kernLeft = floralHeart;
kernRight = floralHeart;
lastChange = "2026-07-02 07:35:19 +0000";
layers = (
{
layerId = m001;
shapes = (
{
closed = 1;
nodes = (
(997,-226,o),
(1215,-21,o),
(1215,237,cs),
(1215,494,o),
(999,700,o),
(728,700,cs),
(392,700,o),
(344,382,o),
(268,382,cs),
(258,382,o),
(252,388,o),
(252,398,cs),
(252,426,o),
(294,461,o),
(354,483,cs),
(431,511,l),
(431,518,l),
(356,490,ls),
(288,466,o),
(245,429,o),
(245,398,cs),
(245,383,o),
(253,375,o),
(267,375,cs),
(351,375,o),
(396,676,o),
(711,676,cs),
(965,676,o),
(1170,480,o),
(1170,244,cs),
(1170,0,o),
(951,-211,o),
(707,-211,cs),
(486,-211,o),
(301,-37,o),
(301,167,cs),
(301,293,o),
(371,391,o),
(464,391,cs),
(521,391,o),
(558,354,o),
(558,297,cs),
(558,199,o),
(450,135,o),
(315,135,cs),
(93,135,l),
(93,290,l),
(740,290,l),
(541,123,l),
(1396,123,l),
(1396,320,l),
(928,320,ls),
(821,320,o),
(732,250,o),
(732,143,cs),
(732,68,o),
(775,21,o),
(841,21,cs),
(929,21,o),
(990,107,o),
(990,227,cs),
(990,387,o),
(880,508,o),
(735,508,cs),
(587,508,o),
(462,381,o),
(462,226,cs),
(462,83,o),
(569,-23,o),
(715,-23,cs),
(752,-23,o),
(772,-16,o),
(772,-4,cs),
(772,7,o),
(758,14,o),
(736,14,cs),
(716,14,o),
(698,8,o),
(660,-9,cs),
(614,-31,l),
(614,-38,l),
(669,-12,ls),
(696,2,o),
(718,8,o),
(737,8,cs),
(753,8,o),
(764,3,o),
(764,-3,cs),
(764,-12,o),
(748,-16,o),
(719,-16,cs),
(580,-16,o),
(474,81,o),
(474,207,cs),
(474,344,o),
(599,468,o),
(731,468,cs),
(862,468,o),
(977,346,o),
(977,208,cs),
(977,115,o),
(926,47,o),
(850,47,cs),
(793,47,o),
(757,85,o),
(758,149,cs),
(758,245,o),
(840,309,o),
(946,309,cs),
(1367,309,l),
(1367,151,l),
(588,151,l),
(787,319,l),
(60,319,l),
(60,121,l),
(332,121,ls),
(470,122,o),
(590,194,o),
(590,297,cs),
(590,365,o),
(538,415,o),
(468,415,cs),
(366,415,o),
(292,309,o),
(292,167,cs),
(292,-58,o),
(477,-226,o),
(724,-226,cs)
);
}
);
width = 1456;
}
);
metricLeft = I;
metricRight = I;
unicode = 10086;
},
{
color = 4;
glyphname = rotatedFloralHeartBullet;
kernLeft = rotatedFloralHeartBullet;
kernRight = rotatedFloralHeartBullet;
lastChange = "2026-07-02 07:35:19 +0000";
layers = (
{
layerId = m001;
shapes = (
{
closed = 1;
nodes = (
(950.611,382.182,o),
(932.086,336.146,o),
(924,335,c),
(923,337,l),
(923.209,349.747,o),
(936.21,389.731,o),
(951,391,c)
);
},
{
closed = 1;
nodes = (
(2076,382.142,o),
(2076.531,427.633,o),
(2090,431,c),
(2107.479,421.466,o),
(2115,406.253,o),
(2115,386,cs),
(2115,370.549,o),
(2105.677,351,o),
(2088,351,cs),
(2079.481,351,o),
(2076,362.993,o),
(2076,370,cs)
);
},
{
closed = 1;
nodes = (
(3055,353.138,o),
(3044.459,398,o),
(3021,398,cs),
(3012.22,398,o),
(3003.78,395,o),
(2995,395,cs),
(2968.641,395,o),
(2984.01,449,o),
(2908,449,cs),
(2890.598,449,o),
(2869.802,445.758,o),
(2870,424,c),
(2874.965,411.965,o),
(2893,406.522,o),
(2893,393,cs),
(2893,375.515,o),
(2874.272,356.214,o),
(2858,352,c),
(2847.607,357.465,o),
(2841,372.664,o),
(2841,384,cs),
(2841,404.587,o),
(2852,423.413,o),
(2852,444,cs),
(2852,448.97,o),
(2851.095,454.636,o),
(2846,457,c),
(2820.528,452.648,o),
(2814.119,408.129,o),
(2786,399,c),
(2779.53,404.476,o),
(2779,421.961,o),
(2779,430,cs),
(2779,465.967,o),
(2803.163,617.225,o),
(2832,635,c),
(2875.52,641.372,o),
(2919.581,646.99,o),
(2963.635,647,c),
(2956,629,l),
(2956.032,592.919,o),
(3014.76,574,o),
(3044,574,cs),
(3117.945,574,o),
(3112.626,647.928,o),
(3122,652,cs),
(3124.373,653.031,o),
(3127.508,653.235,o),
(3130,654,c),
(3131.016,655.719,o),
(3132.332,658.374,o),
(3132.332,660.472,cs),
(3132.332,664.842,o),
(3129.064,668.853,o),
(3128,673,c),
(3110.123,686.488,o),
(3075.815,688,o),
(3054,688,cs),
(2985.166,688,o),
(2918.849,664,o),
(2850,664,cs),
(2828.782,664,o),
(2831.749,674,o),
(2819,674,cs),
(2815.965,674,o),
(2812.95,673.749,o),
(2810,673,c),
(2795.477,657.382,o),
(2791.289,653.802,o),
(2771,646,cs),
(2766.277,644.184,o),
(2742,636.022,o),
(2742,631,cs),
(2742,626.69,o),
(2771.979,625.834,o),
(2778,624,c),
(2772.681,603.652,o),
(2685.104,462.001,o),
(2668,441,cs),
(2662.384,434.104,o),
(2651.646,423,o),
(2642,423,cs),
(2633.362,423,o),
(2630.437,437.336,o),
(2624.755,437.336,cs),
(2603.38,437.336,o),
(2574.433,391.305,o),
(2556,378,c),
(2545.858,396.456,o),
(2544.958,418.921,o),
(2532,436,c),
(2507.971,432.961,o),
(2493.456,399,o),
(2481,399,cs),
(2466.452,399,o),
(2465.56,444,o),
(2448,444,cs),
(2415.402,444,o),
(2388.827,387,o),
(2369,387,cs),
(2366.747,387,o),
(2364.233,387.681,o),
(2362,388,c),
(2355.981,412.848,o),
(2361.615,451,o),
(2325,451,cs),
(2312.1,451,o),
(2270.764,411.803,o),
(2252,405,c),
(2258.751,453.474,o),
(2330.663,756,o),
(2306,756,cs),
(2287.277,756,o),
(2282.832,721.3,o),
(2279,711,cs),
(2270.156,687.23,o),
(2256.009,665.315,o),
(2241,645,cs),
(2220.914,617.813,o),
(2092.609,480.083,o),
(2069,464,cs),
(2048.234,449.854,o),
(2037,377.791,o),
(2037,353,cs),
(2037,337.312,o),
(2038.137,318.967,o),
(2051,308,c),
(2053.079,307.48,o),
(2056.964,306,o),
(2059,306,cs),
(2098.558,306,o),
(2109.878,339.209,o),
(2139,357,c),
(2145.064,366.263,o),
(2148,377.987,o),
(2148,389,cs),
(2148,430.693,o),
(2117,457.894,o),
(2117,472,cs),
(2117,488.07,o),
(2252.568,633.304,o),
(2263,635,c),
(2277.269,585.06,o),
(2216,450.127,o),
(2216,381,cs),
(2216,364.571,o),
(2222.983,333.465,o),
(2227,332,c),
(2259.244,339.502,o),
(2278.307,416,o),
(2311,416,cs),
(2327.85,416,o),
(2327.942,334.9,o),
(2332,318,c),
(2350.13,331.24,o),
(2398.477,382,o),
(2418,382,cs),
(2434.673,382,o),
(2435.989,335.937,o),
(2440,324,c),
(2470.205,329.012,o),
(2485.471,381,o),
(2502,381,cs),
(2508.445,381,o),
(2520.002,333.157,o),
(2525,325,c),
(2559.132,334.117,o),
(2578.547,369.417,o),
(2601,376,c),
(2604.985,372.473,o),
(2607,368.33,o),
(2607,363,cs),
(2607,351.528,o),
(2603,340.488,o),
(2603,329,cs),
(2603,317.514,o),
(2606.152,304.022,o),
(2617,298,c),
(2643.674,298.424,o),
(2647,331.411,o),
(2647,351,cs),
(2647,373.38,o),
(2744.499,533.554,o),
(2759,539,c),
(2759.485,537.304,o),
(2761,533.646,o),
(2761,532,cs),
(2761,475.89,o),
(2740,422.128,o),
(2740,366,cs),
(2740,353.694,o),
(2741.506,340.529,o),
(2746,329,c),
(2773.715,330.997,o),
(2781.454,364.045,o),
(2805,374,c),
(2819.127,370.455,o),
(2801.397,325.268,o),
(2842,315,c),
(2942.554,370.935,o),
(2909.284,399.914,o),
(2926,414,c),
(2942.674,399.373,o),
(2945,384.147,o),
(2945,363,cs),
(2945,350.45,o),
(2940,338.53,o),
(2940,326,cs),
(2940,320.642,o),
(2943.033,315.246,o),
(2948,313,c),
(2980.317,316.915,o),
(2981.329,359.908,o),
(2998,361,c),
(3007.265,349.547,o),
(3023,321.709,o),
(3023,307,cs),
(3023,293.14,o),
(3003,291.249,o),
(3003,284,cs),
(3003,279.246,o),
(3007.031,276.191,o),
(3011.068,274.675,c),
(3039.086,278.883,o),
(3055,308.754,o),
(3055,335,cs)
);
},
{
closed = 1;
nodes = (
(2991.281,646.079,o),
(2996.575,646.33,o),
(3000.791,646.33,cs),
(3018.843,646.33,o),
(3059.211,635.095,o),
(3072,622,c),
(3069.369,610.097,o),
(3055.711,606,o),
(3045,606,cs),
(3025.686,606,o),
(2988.025,619.506,o),
(2988,643,c)
);
},
{
closed = 1;
nodes = (
(2068,10.604,o),
(2028.626,-10,o),
(2045,-10,cs),
(2062.962,-10,o),
(2095,19.151,o),
(2095,47,cs),
(2095,126.943,o),
(1953,123.295,o),
(1953,168.314,cs),
(1953,187.246,o),
(1962.591,197.141,o),
(1987,202,cs),
(2071.283,218.779,o),
(2155.615,227.569,o),
(2241,236,cs),
(2289.354,240.775,o),
(2345.826,239.094,o),
(2392,254,c),
(2392,255,l),
(2298.021,251.981,o),
(2205.476,243.565,o),
(2111,234,cs),
(2034.304,226.235,o),
(1732,186.982,o),
(1732,146,cs),
(1732,88.691,o),
(2068,104.192,o),
(2068,29,cs)
);
},
{
closed = 1;
nodes = (
(1986,580.379,o),
(1964.479,722,o),
(1826.705,722,cs),
(1768.859,722,o),
(1707,697.034,o),
(1707,672,cs),
(1707,609.936,o),
(1787,559.495,o),
(1787,488,cs),
(1787,480.048,o),
(1786.709,475,o),
(1777,475,cs),
(1766.241,475,o),
(1755.759,478,o),
(1745,478,cs),
(1708.101,478,o),
(1692.015,430.557,o),
(1665,412,c),
(1660.716,414.225,o),
(1652.74,420,o),
(1648,420,cs),
(1622.463,420,o),
(1606.669,372.112,o),
(1587,366,c),
(1581,434,l),
(1569.358,432.364,o),
(1522.716,330.42,o),
(1485,330,c),
(1482,333,l),
(1482.083,384.865,o),
(1545.433,415.328,o),
(1553,451,c),
(1552.079,455.176,o),
(1548.832,460,o),
(1544,460,cs),
(1538.144,460,o),
(1525.236,452.319,o),
(1519,450,cs),
(1496.234,441.534,o),
(1461.358,438,o),
(1437,438,cs),
(1417.484,438,o),
(1399.516,448,o),
(1380,448,cs),
(1372.844,448,o),
(1365.464,444.378,o),
(1360,440,c),
(1359.156,436.245,o),
(1358.781,432.408,o),
(1358.781,428.562,cs),
(1358.781,410.917,o),
(1367,394.41,o),
(1367,377,cs),
(1367,350.206,o),
(1349.181,325.152,o),
(1329,309,c),
(1298.427,308.796,o),
(1297.962,350.022,o),
(1297.962,371.596,cs),
(1297.962,397.569,o),
(1304.285,422.867,o),
(1304,449,c),
(1274.431,448.271,o),
(1194.617,316.786,o),
(1167,316,c),
(1164.796,350.716,o),
(1170.016,387.408,o),
(1170.016,422.5,cs),
(1170.016,427.687,o),
(1169.223,436,o),
(1162,436,cs),
(1150.512,436,o),
(1144.07,415.771,o),
(1138,408,c),
(1111.574,396.32,o),
(1080.283,321,o),
(1059,321,cs),
(1048.9,321,o),
(1044,354.354,o),
(1044,362,cs),
(1044,372.836,o),
(1044.721,420.094,o),
(1049,427,cs),
(1056.306,438.792,o),
(1077.882,433.57,o),
(1087,459,c),
(1084.378,479.826,o),
(1048,460.831,o),
(1048,487,cs),
(1048,513.187,o),
(1053.173,539.135,o),
(1053.173,565.672,cs),
(1053.173,582.294,o),
(1053.517,629.809,o),
(1037,639,c),
(987.977,638.192,o),
(1023.075,467,o),
(962,467,cs),
(884.636,467,o),
(807.859,455.324,o),
(731,448,cs),
(652.75,440.543,o),
(573.505,440.092,o),
(496,426,cs),
(483.118,423.658,o),
(470.182,420,o),
(457,420,cs),
(448.457,420,o),
(446.701,425.42,o),
(446.701,432.689,cs),
(446.701,453.176,o),
(448.634,473.578,o),
(450,494,cs),
(456.931,597.596,o),
(453.696,570.995,o),
(556,588,cs),
(612.966,597.469,o),
(670.175,604,o),
(728,604,cs),
(756.382,604,o),
(814.696,602.544,o),
(838,587,c),
(809.165,554.352,o),
(763.043,550.679,o),
(735,523,c),
(739,520,l),
(772.62,524.919,o),
(871,561.479,o),
(871,602,cs),
(871,624.796,o),
(770.774,634,o),
(752,634,cs),
(658.342,634,o),
(566.078,613.755,o),
(472.242,613.755,cs),
(463.783,613.755,o),
(453,614.916,o),
(453,626,cs),
(453,645.085,o),
(457,663.915,o),
(457,683,cs),
(457,689.251,o),
(457.985,714,o),
(448,714,cs),
(439.236,714,o),
(429.283,711.517,o),
(425,703,c),
(412.283,584.017,o),
(442.25,596.504,o),
(316,575,cs),
(291.808,570.879,o),
(150,547.384,o),
(150,526,cs),
(150,520.821,o),
(156.297,520,o),
(160,520,cs),
(217.47,520,o),
(278.761,537.556,o),
(335,549,cs),
(355.278,553.126,o),
(375.053,561,o),
(396,561,cs),
(413.565,561,o),
(415,557.819,o),
(415,541,cs),
(415,519.844,o),
(408.775,409.918,o),
(389,404,cs),
(361.258,395.697,o),
(241,388.022,o),
(241,359,cs),
(241,350.906,o),
(254.214,352,o),
(259,352,cs),
(298.492,352,o),
(335.482,370,o),
(375,370,cs),
(386.507,370,o),
(396,371.056,o),
(396,356,cs),
(396,330.716,o),
(379.229,262.583,o),
(357,249,c),
(340.053,246.231,o),
(323.051,248,o),
(306,248,cs),
(294.917,248,o),
(278.973,244.1,o),
(275,232,c),
(275.421,222.583,o),
(279.219,211.725,o),
(286,205,cs),
(319.351,171.924,o),
(498.708,167,o),
(550,167,cs),
(593.266,167,o),
(782.549,185.732,o),
(792,234,c),
(787,234,ls),
(761.807,234,o),
(730.94,220.608,o),
(706,215,cs),
(644.582,201.189,o),
(579.819,197,o),
(517,197,cs),
(497.853,197,o),
(479.072,201.861,o),
(460,203,cs),
(439.067,204.25,o),
(372.653,201.274,o),
(369,230,c),
(378.155,248.863,o),
(397.447,259.15,o),
(406,280,cs),
(417.358,307.686,o),
(417.898,340.209,o),
(430,367,cs),
(447.402,405.525,o),
(856.726,437,o),
(920,437,cs),
(927.534,437,o),
(935.836,434.282,o),
(942,430,c),
(920.4,383.238,o),
(878,357.228,o),
(878,295,cs),
(878,282.944,o),
(880.002,268.134,o),
(892,262,c),
(946.405,283.653,o),
(967.605,380.059,o),
(999,427,c),
(1014.222,413.802,o),
(1001.841,260.835,o),
(1038,259,c),
(1069.032,271.961,o),
(1101.643,344,o),
(1121,344,cs),
(1134.495,344,o),
(1129.189,295.828,o),
(1129.189,286.22,cs),
(1129.189,279.622,o),
(1130.492,257,o),
(1141,257,cs),
(1156.014,257,o),
(1171.512,268.168,o),
(1177,282,c),
(1197.14,292.333,o),
(1234.922,360.733,o),
(1250,362,c),
(1262.997,337.173,o),
(1252.448,264,o),
(1295,264,cs),
(1305.395,264,o),
(1312.882,270.517,o),
(1321,276,cs),
(1330.789,282.611,o),
(1341.391,287.757,o),
(1350,296,cs),
(1396.362,340.389,o),
(1374.211,411.193,o),
(1457.344,411.193,cs),
(1467.262,411.193,o),
(1477.176,410.316,o),
(1487,409,c),
(1472.54,367.679,o),
(1442,360.656,o),
(1442,310,cs),
(1442,299.808,o),
(1445.485,287,o),
(1458,287,cs),
(1482.925,287,o),
(1512.295,329.24,o),
(1539,336,c),
(1546.516,324.266,o),
(1543.195,304.696,o),
(1547,291,c),
(1549.233,290.681,o),
(1551.747,290,o),
(1554,290,cs),
(1586.636,290,o),
(1606.003,361,o),
(1624,361,cs),
(1630.238,361,o),
(1639.718,288.881,o),
(1656,278,c),
(1668.562,283.8,o),
(1690.542,446,o),
(1730,446,cs),
(1739.123,446,o),
(1750.706,438.127,o),
(1757,432,c),
(1757,392.875,o),
(1729,360.336,o),
(1729,321,cs),
(1729,311.079,o),
(1732.221,283,o),
(1746,283,cs),
(1797.762,283,o),
(1815,405.525,o),
(1815,444,cs),
(1815,553.856,o),
(1734,657.215,o),
(1734,671,cs),
(1734,684.988,o),
(1759.588,695,o),
(1793.109,695,cs),
(1944.003,695,o),
(1950,492.116,o),
(1950,435.83,cs),
(1950,130.647,o),
(1773.713,-215.61,o),
(1549.946,-215.61,cs),
(1428.086,-215.61,o),
(1367.449,-112.92,o),
(1340,-33,c),
(1340.133,-54.715,o),
(1348.5,-75.958,o),
(1356,-96,cs),
(1385.616,-175.141,o),
(1440.48,-243,o),
(1550.159,-243,cs),
(1657.484,-243,o),
(1762.579,-178.022,o),
(1856.568,-31.347,cs),
(1958.093,127.088,o),
(1986,286.186,o),
(1986,442.824,cs)
);
}
);
width = 3284;
}
);
unicode = 10087;
},
{
color = (153,254,255,255);
glyphname = at;
kernLeft = at;
kernRight = at;
lastChange = "2026-07-02 07:35:19 +0000";
layers = (
{
layerId = m001;
shapes = (
{
closed = 1;
nodes = (
(691.4,50.85,o),
(749,138.2,o),
(749,254.25,cs),
(749,443.55,o),
(595.65,602,o),
(385,602,cs),
(174,602,o),
(18,443,o),
(18,241,cs),
(18,39,o),
(174,-120,o),
(385,-120,cs),
(440.2,-120,o),
(492.35,-109.1,o),
(539.25,-89.4,c),
(587,26.95,l),
(534.3,-20.5,o),
(463.55,-49.15,o),
(385,-49.15,cs),
(219.2,-49.15,o),
(98.1,78.55,o),
(98.1,241,cs),
(98.1,403.45,o),
(219.2,531.15,o),
(385,531.15,cs),
(550.45,531.15,o),
(671.9,404,o),
(671.9,242.25,cs),
(671.9,172.15,o),
(649.1,122,o),
(583.549,122,cs),
(542.05,122,o),
(524.65,142.1,o),
(524.65,173.05,cs),
(524.65,283.6,ls),
(524.65,395.85,o),
(451.3,422.05,o),
(385.45,422.05,cs),
(343.85,422.05,o),
(307.05,410.65,o),
(275.9,390.9,c),
(253.85,289.7,l),
(299.4,331.15,o),
(335.7,345.75,o),
(375.2,345.75,cs),
(438.4,345.75,o),
(444.516,309.1,o),
(444.8,259.7,cs),
(445.45,146.55,ls),
(445.77,90.824,o),
(499.446,50.587,o),
(577.117,50.693,cs)
);
},
{
closed = 1;
nodes = (
(408.512,53.61,o),
(445.404,71.674,o),
(475.41,100.317,c),
(459.214,158.299,l),
(439.123,138.386,o),
(403.104,118.918,o),
(366.54,118.918,cs),
(336.764,118.918,o),
(316.706,131.83,o),
(316.706,157.376,cs),
(316.706,188.628,o),
(346.723,216.406,o),
(438.328,217,cs),
(462.129,217.154,l),
(448.681,279.253,l),
(346.428,281.749,o),
(241.147,250.271,o),
(241.147,155.27,cs),
(241.147,90.584,o),
(289.958,53.609,o),
(361.298,53.61,cs)
);
}
);
width = 767;
}
);
metricLeft = O;
metricRight = O;
unicode = 64;
},
{
color = (153,254,255,255);
glyphname = ampersand;
kernLeft = ampersand;
kernRight = ampersand;
lastChange = "2026-07-02 07:35:19 +0000";
layers = (
{
layerId = m001;
shapes = (
{
closed = 1;
nodes = (
(613,376.55,l),
(493,376.55,l),
(404.868,237.593,ls),
(342.249,138.86,o),
(283.931,90.71,o),
(225.612,90.71,cs),
(166.881,90.71,o),
(118,139.542,o),
(118,199.594,cs),
(118,248.948,o),
(151.017,283.525,o),
(230.202,317.072,cs),
(285.716,340.591,ls),
(379.915,380.499,o),
(433,448.551,o),
(433,530.278,cs),
(433,630.714,o),
(352.829,712.235,o),
(254.065,712.235,cs),
(156.765,712.235,o),
(76,633.113,o),
(76,541.192,cs),
(76,486.74,o),
(104.341,422.196,o),
(145.468,380.439,cs),
(520,0.177,l),
(657,0.177,l),
(243.171,425.462,ls),
(193.888,476.11,o),
(176,505.316,o),
(176,535.355,cs),
(176,577.075,o),
(210.502,610.512,o),
(254.244,610.512,cs),
(298.014,610.512,o),
(333,577.031,o),
(333,534.587,cs),
(333,489.598,o),
(293.694,450.607,o),
(212.191,414.857,cs),
(158.463,391.289,ls),
(66.528,350.963,o),
(18,283.681,o),
(18,195.365,cs),
(18,77.365,o),
(104.63,-9.78,o),
(221.241,-9.998,cs),
(317.128,-10.178,o),
(402.376,48.477,o),
(476.798,164.398,cs)
);
}
);
width = 669;
}
);
metricLeft = O;
metricRight = V;
unicode = 38;
},
{
color = (153,254,255,255);
glyphname = paragraph;
kernLeft = paragraph;
kernRight = H;
lastChange = "2026-07-02 07:35:19 +0000";
layers = (
{
layerId = m001;
shapes = (
{
closed = 1;
nodes = (
(306,-100,l),
(306,640.017,l),
(379,640.017,l),
(379,-100,l),
(453,-100,l),
(453,640.017,l),
(509,640.017,l),
(509,700.017,l),
(223.779,700.017,ls),
(109.661,700.017,o),
(32,628.112,o),
(32,518.695,cs),
(32,411.316,o),
(106.796,346.017,o),
(233,346.017,c),
(233,-100,l)
);
}
);
width = 579;
}
);
unicode = 182;
},
{
color = (153,254,255,255);
glyphname = section;
kernLeft = section;
kernRight = section;
lastChange = "2026-07-02 07:35:19 +0000";
layers = (
{
layerId = m001;
shapes = (
{
closed = 1;
nodes = (
(439,160,l),
(494,190,o),
(529,242,o),
(529,311.727,cs),
(529,394,o),
(480.271,451.688,o),
(378,502.543,cs),
(289.269,546.665,o),
(248,570.383,o),
(248,626.453,cs),
(248,675.049,o),
(279,708,o),
(329.08,708,cs),
(370,708,o),
(398,686,o),
(417,647,c),
(506,688,l),
(473,761,o),
(411,805,o),
(330.155,805,cs),
(221,805,o),
(141,724.79,o),
(141,615.916,cs),
(141,523.288,o),
(198.905,479.087,o),
(302,428.406,cs),
(393.906,383.226,o),
(432,357,o),
(432,311.437,cs),
(432,281,o),
(415,251,o),
(387,231,c)
);
},
{
closed = 1;
nodes = (
(124,12,l),
(157,-61,o),
(219,-105,o),
(299.844,-105,cs),
(409,-105,o),
(488,-24.786,o),
(488,80.551,cs),
(488,177.704,o),
(420.801,221.332,o),
(318,271.612,cs),
(224.799,317.197,o),
(187,344,o),
(187,389.492,cs),
(187,420,o),
(204,450,o),
(232,470,c),
(181,541,l),
(126,511,o),
(91,459,o),
(91,388.86,cs),
(91,306,o),
(139.846,249.506,o),
(241,198.426,cs),
(329.847,153.561,o),
(382,130.586,o),
(382,71.351,cs),
(382,24.951,o),
(350,-8,o),
(300.471,-8,cs),
(260,-8,o),
(231,14,o),
(213,53,c)
);
}
);
width = 620;
}
);
unicode = 167;
},
{
color = (153,254,255,255);
glyphname = copyright;
kernLeft = O;
kernRight = O;
lastChange = "2026-07-02 07:35:19 +0000";
layers = (
{
.lastUpdate = 805116900.936;
guides = (
{
pos = (0,351);
},
{
angle = 90;
pos = (395,0);
}
);
layerId = m001;
shapes = (
{
closed = 1;
nodes = (
(606,-10,o),
(772,149,o),
(772,351,cs),
(772,553,o),
(606,712,o),
(395,712,cs),
(184,712,o),
(18,553,o),
(18,351,cs),
(18,149,o),
(184,-10,o),
(395,-10,cs)
);
},
{
closed = 1;
nodes = (
(229.194,60.839,o),
(98.117,188.555,o),
(98.117,351,cs),
(98.117,513.445,o),
(229.194,641.161,o),
(395,641.161,cs),
(560.806,641.161,o),
(691.883,513.445,o),
(691.883,351,cs),
(691.883,188.555,o),
(560.806,60.839,o),
(395,60.839,cs)
);
},
{
alignment = -1;
pos = (181.73,163.094);
ref = c;
scale = (0.817,0.785);
}
);
width = 790;
}
);
metricLeft = O;
metricRight = O;
unicode = 169;
},
{
color = (153,254,255,255);
glyphname = registered;
kernLeft = O;
kernRight = O;
lastChange = "2026-07-02 07:35:19 +0000";
layers = (
{
.lastUpdate = 805116900.923;
layerId = m001;
shapes = (
{
closed = 1;
nodes = (
(606,-10,o),
(772,149,o),
(772,351,cs),
(772,553,o),
(606,712,o),
(395,712,cs),
(184,712,o),
(18,553,o),
(18,351,cs),
(18,149,o),
(184,-10,o),
(395,-10,cs)
);
},
{
closed = 1;
nodes = (
(229.194,60.839,o),
(98.117,188.555,o),
(98.117,351,cs),
(98.117,513.445,o),
(229.194,641.161,o),
(395,641.161,cs),
(560.806,641.161,o),
(691.883,513.445,o),
(691.883,351,cs),
(691.883,188.555,o),
(560.806,60.839,o),
(395,60.839,cs)
);
},
{
alignment = -1;
pos = (247.409,145.653);
ref = r;
scale = (0.8,0.8);
}
);
width = 790;
}
);
metricLeft = O;
metricRight = O;
unicode = 174;
},
{
color = (153,254,255,255);
glyphname = trademark;
kernLeft = ordfeminine;
kernRight = ordfeminine;
lastChange = "2026-07-02 07:35:19 +0000";
layers = (
{
layerId = m001;
shapes = (
{
closed = 1;
nodes = (
(314,464,l),
(314,612,l),
(305,597,l),
(362,527,l),
(418,597,l),
(410,612,l),
(410,464,l),
(478,464,l),
(478,700,l),
(421,700,l),
(354,618,l),
(369,618,l),
(302,700,l),
(245,700,l),
(245,464,l)
);
},
{
closed = 1;
nodes = (
(150,464,l),
(150,632,l),
(210,632,l),
(210,700,l),
(20,700,l),
(20,632,l),
(80,632,l),
(80,464,l)
);
}
);
width = 498;
}
);
metricLeft = T;
metricRight = T;
unicode = 8482;
},
{
color = (153,254,255,255);
glyphname = degree;
kernLeft = ordfeminine;
kernRight = ordfeminine;
lastChange = "2026-07-02 07:35:19 +0000";
layers = (
{
layerId = m001;
shapes = (
{
closed = 1;
nodes = (
(261.88,381.521,o),
(328.979,448.62,o),
(328.979,532.493,cs),
(328.979,615.38,o),
(261.88,682.479,o),
(178.993,682.479,cs),
(95.12,682.479,o),
(28.021,615.38,o),
(28.021,532.493,cs),
(28.021,448.62,o),
(95.12,381.521,o),
(178.993,381.521,cs)
);
},
{
closed = 1;
nodes = (
(140.425,463.66,o),
(110.16,493.925,o),
(110.16,532,cs),
(110.16,570.075,o),
(140.425,600.34,o),
(178.5,600.34,cs),
(216.575,600.34,o),
(246.84,570.075,o),
(246.84,532,cs),
(246.84,493.925,o),
(216.575,463.66,o),
(178.5,463.66,cs)
);
}
);
width = 357;
}
);
unicode = 176;
},
{
color = (153,254,255,255);
glyphname = bar;
kernLeft = H;
kernRight = H;
lastChange = "2026-07-02 07:35:19 +0000";
layers = (
{
layerId = m001;
shapes = (
{
closed = 1;
nodes = (
(150,-162.545,l),
(150,740.455,l),
(50,740.455,l),
(50,-162.545,l)
);
}
);
width = 200;
}
);
unicode = 124;
},
{
color = (154,153,255,255);
glyphname = apple.ss01;
kernLeft = apple.ss01;
kernRight = apple.ss01;
lastChange = "2026-07-07 11:33:32 +0000";
layers = (
{
.lastUpdate = 805116812.893;
guides = (
{
angle = 64.199;
pos = (586,330);
}
);
layerId = m001;
shapes = (
{
closed = 1;
nodes = (
(409.456,-225.051,o),
(500,-119.094,o),
(500,21.95,cs),
(500,771.282,l),
(400,684.95,l),
(400,39.876,ls),
(400,-58.535,o),
(354.29,-133.05,o),
(264.764,-133.05,cs),
(192.513,-133.05,o),
(138.288,-84.517,o),
(138.288,-17.431,cs),
(138.288,6.431,o),
(145.148,29.881,o),
(155.696,47.253,c),
(70.976,89.25,l),
(55.155,58.163,o),
(44.5,21.864,o),
(44.5,-20.783,cs),
(44.5,-142.054,o),
(130.657,-225.043,o),
(266.475,-225.047,cs)
);
},
{
closed = 1;
nodes = (
(537.877,-50,o),
(610.643,-23.88,o),
(686,31.754,c),
(686,162.778,l),
(632.474,89.77,o),
(544.071,43,o),
(456.889,43,cs),
(327.76,43,o),
(208,145.602,o),
(208,299.602,cs),
(208,443.602,o),
(320.014,559,o),
(464.947,559,cs),
(548.976,559,o),
(632.739,520.209,o),
(670.177,465.851,c),
(717.107,560.572,l),
(654.772,620.534,o),
(571.831,652,o),
(476.178,652,cs),
(262.642,652,o),
(111,495.183,o),
(111,299.751,cs),
(111,94.596,o),
(271.103,-50,o),
(458.311,-50,cs)
);
},
{
closed = 1;
nodes = (
(4.954,263,l),
(722.064,263,l),
(761,343,l),
(42.954,343,l)
);
}
);
width = 779;
}
);
metricLeft = euro;
metricRight = euro;
},
{
color = (153,254,255,255);
glyphname = cent;
kernLeft = o;
kernRight = c;
lastChange = "2026-07-02 07:35:22 +0000";
layers = (
{
.lastUpdate = 805116902.752;
layerId = m001;
shapes = (
{
closed = 1;
nodes = (
(230,585.117,l),
(325,585.117,l),
(325,720.024,l),
(230,720.024,l)
);
},
{
closed = 1;
nodes = (
(230,-19,l),
(325,-19,l),
(325,115.908,l),
(230,115.908,l)
);
},
{
alignment = -1;
pos = (0,118);
ref = c;
}
);
width = 460;
}
);
metricLeft = c;
metricRight = c;
unicode = 162;
},
{
color = (153,254,255,255);
glyphname = dollar;
kernLeft = S;
kernRight = S;
lastChange = "2026-07-02 07:35:19 +0000";
layers = (
{
layerId = m001;
shapes = (
{
closed = 1;
nodes = (
(169,685,l),
(264,685,l),
(264,820,l),
(169,820,l)
);
},
{
closed = 1;
nodes = (
(169,-119,l),
(264,-119,l),
(264,16,l),
(169,16,l)
);
},
{
closed = 1;
nodes = (
(351,10,o),
(450,88,o),
(450,207,cs),
(450,317,o),
(372,363,o),
(265,414,cs),
(184,453,o),
(136,476,o),
(136,525,cs),
(136,568,o),
(175,590,o),
(219,590,cs),
(272,590,o),
(299,561,o),
(318,523,c),
(404,587,l),
(372,648,o),
(312,692,o),
(223,692,cs),
(115,692,o),
(24,624,o),
(24,519,cs),
(24,427,o),
(96,367,o),
(186,328,cs),
(304,276,o),
(338,247,o),
(338,198,cs),
(338,143,o),
(297,112,o),
(236,112,cs),
(172,112,o),
(126,146,o),
(103,210,c),
(10,151,l),
(46,67,o),
(124,10,o),
(229,10,cs)
);
}
);
width = 460;
}
);
metricLeft = S;
metricRight = S;
unicode = 36;
},
{
color = 4;
glyphname = euro;
kernLeft = O;
kernRight = C;
lastChange = "2026-07-06 13:08:27 +0000";
layers = (
{
.lastUpdate = 805036102.158;
layerId = m001;
shapes = (
{
closed = 1;
nodes = (
(568.209,-10,o),
(633.041,23,o),
(686,68,c),
(686,203,l),
(645.378,138,o),
(565.641,90,o),
(475.178,90,cs),
(335.286,90,o),
(220,191.556,o),
(220,339.655,cs),
(220,478.138,o),
(326.604,592,o),
(462.523,592,cs),
(543.675,592,o),
(624.471,551.41,o),
(667.198,498.541,c),
(717.107,600.572,l),
(652.983,662.255,o),
(569.083,692,o),
(476.112,692,cs),
(262.642,692,o),
(111,535.183,o),
(111,339.751,cs),
(111,134.596,o),
(271.103,-10,o),
(469.487,-10,cs)
);
},
{
closed = 1;
nodes = (
(4.954,365,l),
(603,365,l),
(646,455,l),
(47.954,455,l)
);
},
{
closed = 1;
nodes = (
(4.954,209.856,l),
(529,209.856,l),
(572,299.856,l),
(47.954,299.856,l)
);
}
);
width = 735;
}
);
metricRight = C;
unicode = 8364;
userData = {
KernOnSpecialSpacing = {
L = symbols;
R = symbols;
};
};
},
{
color = (153,254,255,255);
glyphname = sterling;
kernLeft = sterling;
kernRight = sterling;
lastChange = "2026-07-02 07:35:19 +0000";
layers = (
{
layerId = m001;
shapes = (
{
closed = 1;
nodes = (
(556,0,l),
(609,100,l),
(206,100,l),
(223.404,150.761,o),
(234.366,237.339,o),
(234.366,335.172,cs),
(234.366,568.089,o),
(278.55,612,o),
(329.855,612,cs),
(378,612,o),
(411,573.333,o),
(411,520,c),
(487,640,l),
(450.506,687.723,o),
(398.697,712,o),
(335.189,712,cs),
(195.301,712,o),
(131.299,594.213,o),
(131.299,340.295,cs),
(131.299,193.687,o),
(106.16,84.431,o),
(53,0,c)
);
},
{
closed = 1;
nodes = (
(382,268,l),
(426,368,l),
(84,368,l),
(40,268,l)
);
}
);
width = 620;
}
);
unicode = 163;
},
{
color = (153,254,255,255);
glyphname = yen;
kernLeft = Y;
kernRight = Y;
lastChange = "2026-07-02 07:35:19 +0000";
layers = (
{
.lastUpdate = 805116900.945;
layerId = m001;
shapes = (
{
closed = 1;
nodes = (
(510.5,302,l),
(510.5,392,l),
(84.5,392,l),
(84.5,302,l)
);
},
{
closed = 1;
nodes = (
(510.5,134,l),
(510.5,224,l),
(84.5,224,l),
(84.5,134,l)
);
},
{
alignment = -1;
ref = Y;
}
);
width = 595;
}
);
metricLeft = Y;
metricRight = Y;
unicode = 165;
},
{
color = (153,254,255,255);
glyphname = dollar.ss01;
kernLeft = dollar.ss01;
kernRight = dollar.ss01;
lastChange = "2026-07-02 07:35:19 +0000";
layers = (
{
layerId = m001;
shapes = (
{
closed = 1;
nodes = (
(160,585.117,l),
(255,585.117,l),
(255,720.024,l),
(160,720.024,l)
);
},
{
closed = 1;
nodes = (
(160,-19,l),
(255,-19,l),
(255,115.908,l),
(160,115.908,l)
);
},
{
closed = 1;
nodes = (
(321,108,o),
(413,148,o),
(413,257,cs),
(413,341,o),
(357,384,o),
(246,410,cs),
(172,427,o),
(140,440,o),
(140,469,cs),
(140,500,o),
(176,511,o),
(219,511,cs),
(283,511,o),
(333,488,o),
(372,459,c),
(372,562,l),
(328,588,o),
(265,603,o),
(213,603,cs),
(108,603,o),
(39,551,o),
(39,469,cs),
(39,385,o),
(101,346,o),
(206,322,cs),
(285,304,o),
(313,281,o),
(313,253,cs),
(313,225,o),
(285,203,o),
(215,203,cs),
(133,203,o),
(89,226,o),
(39,273,c),
(39,159,l),
(89,127,o),
(143,108,o),
(217,108,cs)
);
}
);
width = 440;
}
);
metricLeft = s;
metricRight = s;
},
{
color = (153,255,154,255);
glyphname = equalinferior;
kernLeft = equalinferior;
kernRight = equalinferior;
lastChange = "2026-07-02 07:35:19 +0000";
layers = (
{
layerId = m001;
shapes = (
{
closed = 1;
nodes = (
(289.851,94.896,l),
(289.851,170.12,l),
(48.434,170.12,l),
(48.434,94.896,l)
);
},
{
closed = 1;
nodes = (
(289.851,-14.94,l),
(289.851,60.285,l),
(48.434,60.285,l),
(48.434,-14.94,l)
);
}
);
width = 338;
}
);
unicode = 8332;
},
{
color = (153,254,255,255);
glyphname = plus;
kernLeft = plus;
kernRight = plus;
lastChange = "2026-07-02 07:35:19 +0000";
layers = (
{
layerId = m001;
shapes = (
{
closed = 1;
nodes = (
(259,124,l),
(361,124,l),
(361,294,l),
(523,294,l),
(523,392,l),
(361,392,l),
(361,562,l),
(259,562,l),
(259,392,l),
(97,392,l),
(97,294,l),
(259,294,l)
);
}
);
width = 620;
}
);
unicode = 43;
},
{
color = (153,254,255,255);
glyphname = minus;
kernLeft = plus;
kernRight = plus;
lastChange = "2026-07-02 07:35:19 +0000";
layers = (
{
layerId = m001;
shapes = (
{
closed = 1;
nodes = (
(523,293,l),
(523,393,l),
(97,393,l),
(97,293,l)
);
}
);
width = 620;
}
);
unicode = 8722;
},
{
color = (153,254,255,255);
glyphname = multiply;
kernLeft = plus;
kernRight = plus;
lastChange = "2026-07-02 07:35:22 +0000";
layers = (
{
layerId = m001;
shapes = (
{
closed = 1;
nodes = (
(492.366,161.418,l),
(230.05,511.418,l),
(128.682,511.418,l),
(390.261,161.418,l)
);
},
{
closed = 1;
nodes = (
(228.577,161.418,l),
(318.471,285.944,l),
(266.471,347.102,l),
(126.471,161.418,l)
);
},
{
closed = 1;
nodes = (
(493.84,511.418,l),
(392.471,511.418,l),
(304.787,387.628,l),
(356.787,327.207,l)
);
}
);
width = 620;
}
);
unicode = 215;
},
{
color = (153,254,255,255);
glyphname = equal;
kernLeft = plus;
kernRight = plus;
lastChange = "2026-07-02 07:35:22 +0000";
layers = (
{
layerId = m001;
shapes = (
{
closed = 1;
nodes = (
(523,402,l),
(523,502,l),
(97,502,l),
(97,402,l)
);
},
{
closed = 1;
nodes = (
(523,184,l),
(523,284,l),
(97,284,l),
(97,184,l)
);
}
);
width = 620;
}
);
unicode = 61;
},
{
color = (153,254,255,255);
glyphname = greater;
kernLeft = plus;
kernRight = plus;
lastChange = "2026-07-02 07:35:22 +0000";
layers = (
{
layerId = m001;
shapes = (
{
closed = 1;
nodes = (
(239.3,292,l),
(239.3,392,l),
(95,529,l),
(565,340,l),
(93,154,l)
);
}
);
width = 620;
}
);
unicode = 62;
},
{
color = (153,254,255,255);
glyphname = less;
kernLeft = plus;
kernRight = plus;
lastChange = "2026-07-02 07:35:22 +0000";
layers = (
{
layerId = m001;
shapes = (
{
closed = 1;
nodes = (
(380.7,292,l),
(380.7,392,l),
(525,529,l),
(55,340,l),
(527,154,l)
);
}
);
width = 620;
}
);
unicode = 60;
},
{
color = 4;
glyphname = asciicircum;
kernLeft = asterisk;
kernRight = asterisk;
lastChange = "2026-07-02 07:35:22 +0000";
layers = (
{
layerId = m001;
shapes = (
{
closed = 1;
nodes = (
(139,349,l),
(225,435,l),
(312,349,l),
(437,349,ls),
(442.333,349,o),
(443,350.333,o),
(439,353,c),
(234,559,l),
(228.667,565,o),
(223.667,565.667,o),
(219,561,c),
(10,353,ls),
(8.667,351.667,o),
(10.667,349,o),
(12,349,cs)
);
}
);
width = 449;
}
);
unicode = 94;
},
{
color = (153,254,255,255);
glyphname = infinity;
kernLeft = infinity;
kernRight = infinity;
lastChange = "2026-07-02 07:35:19 +0000";
layers = (
{
layerId = m001;
shapes = (
{
closed = 1;
nodes = (
(160,249,o),
(125,283,o),
(125,338,cs),
(125,392,o),
(158,426,o),
(205,426,cs),
(339,426,o),
(363,157,o),
(563,157,cs),
(678,157,o),
(742,242,o),
(742,342,cs),
(742,446,o),
(672,521,o),
(568,521,cs),
(363,521,o),
(357,249,o),
(214,249,cs)
);
},
{
closed = 1;
nodes = (
(384,176,o),
(425,447,o),
(559,447,cs),
(613,447,o),
(657,413,o),
(657,345,cs),
(657,280,o),
(617,235,o),
(557,235,cs),
(416,235,o),
(390,505,o),
(202,505,cs),
(103,505,o),
(40,432,o),
(40,342,cs),
(40,251,o),
(105,176,o),
(201,176,cs)
);
}
);
width = 782;
}
);
unicode = 8734;
},
{
color = (153,254,255,255);
glyphname = integral;
kernLeft = integral;
kernRight = integral;
lastChange = "2026-07-02 07:35:19 +0000";
layers = (
{
layerId = m001;
shapes = (
{
closed = 1;
nodes = (
(161,525,ls),
(161,586,o),
(193,615,o),
(240,615,cs),
(264,615,o),
(286,611,o),
(323,592,c),
(323,690,l),
(294,702,o),
(262,710,o),
(226,710,cs),
(122,710,o),
(61,642,o),
(61,540,cs),
(61,0,ls),
(61,-95,o),
(34,-134,o),
(-19,-134,cs),
(-25,-134,o),
(-31,-134,o),
(-37,-133,c),
(-37,-232,l),
(-23,-234,o),
(-10,-235,o),
(2,-235,cs),
(115,-235,o),
(161,-155,o),
(161,0,cs)
);
}
);
width = 336;
}
);
metricLeft = j;
metricRight = longs;
unicode = 8747;
},
{
color = (153,254,255,255);
glyphname = percent;
kernLeft = percent;
kernRight = percent;
lastChange = "2026-07-02 07:35:19 +0000";
layers = (
{
layerId = m001;
shapes = (
{
closed = 1;
nodes = (
(261.88,381.521,o),
(328.979,448.62,o),
(328.979,532.493,cs),
(328.979,615.38,o),
(261.88,682.479,o),
(178.993,682.479,cs),
(95.12,682.479,o),
(28.021,615.38,o),
(28.021,532.493,cs),
(28.021,448.62,o),
(95.12,381.521,o),
(178.993,381.521,cs)
);
},
{
closed = 1;
nodes = (
(140.425,463.66,o),
(110.16,493.925,o),
(110.16,532,cs),
(110.16,570.075,o),
(140.425,600.34,o),
(178.5,600.34,cs),
(216.575,600.34,o),
(246.84,570.075,o),
(246.84,532,cs),
(246.84,493.925,o),
(216.575,463.66,o),
(178.5,463.66,cs)
);
},
{
closed = 1;
nodes = (
(624.887,-9.366,o),
(691.985,57.732,o),
(691.985,141.606,cs),
(691.985,224.492,o),
(624.887,291.591,o),
(542,291.591,cs),
(458.127,291.591,o),
(391.028,224.492,o),
(391.028,141.606,cs),
(391.028,57.732,o),
(458.127,-9.366,o),
(542,-9.366,cs)
);
},
{
closed = 1;
nodes = (
(503.431,72.772,o),
(473.167,103.037,o),
(473.167,141.112,cs),
(473.167,179.188,o),
(503.431,209.453,o),
(541.507,209.453,cs),
(579.582,209.453,o),
(609.847,179.188,o),
(609.847,141.112,cs),
(609.847,103.037,o),
(579.582,72.772,o),
(541.507,72.772,cs)
);
},
{
closed = 1;
nodes = (
(131.424,-0.129,l),
(232.624,-0.129,l),
(588.576,700.201,l),
(493.816,700.201,l)
);
}
);
width = 720;
}
);
metricLeft = degree;
metricRight = degree;
unicode = 37;
},
{
color = (153,255,154,255);
glyphname = plusinferior;
kernLeft = plusinferior;
kernRight = plusinferior;
lastChange = "2026-07-02 07:35:19 +0000";
layers = (
{
layerId = m001;
shapes = (
{
closed = 1;
nodes = (
(124.806,-42.417,l),
(213.48,-42.417,l),
(213.48,35.436,l),
(289.851,35.436,l),
(289.851,119.744,l),
(213.48,119.744,l),
(213.48,197.598,l),
(124.806,197.598,l),
(124.806,119.744,l),
(48.434,119.744,l),
(48.434,35.436,l),
(124.806,35.436,l)
);
}
);
width = 338;
}
);
unicode = 8330;
},
{
color = (153,254,255,255);
glyphname = tripleIntegral;
kernLeft = tripleIntegral;
kernRight = tripleIntegral;
lastChange = "2026-07-02 07:35:19 +0000";
layers = (
{
layerId = m001;
shapes = (
{
closed = 1;
nodes = (
(829,525,ls),
(829,586,o),
(861,615,o),
(908,615,cs),
(932,615,o),
(954,611,o),
(991,592,c),
(991,690,l),
(962,702,o),
(930,710,o),
(894,710,cs),
(790,710,o),
(729,642,o),
(729,540,cs),
(729,0,ls),
(729,-95,o),
(702,-134,o),
(649,-134,cs),
(643,-134,o),
(637,-134,o),
(631,-133,c),
(631,-232,l),
(645,-234,o),
(658,-235,o),
(670,-235,cs),
(783,-235,o),
(829,-155,o),
(829,0,cs)
);
},
{
closed = 1;
nodes = (
(495,525,ls),
(495,586,o),
(527,615,o),
(574,615,cs),
(598,615,o),
(620,611,o),
(657,592,c),
(657,690,l),
(628,702,o),
(596,710,o),
(560,710,cs),
(456,710,o),
(395,642,o),
(395,540,cs),
(395,0,ls),
(395,-95,o),
(368,-134,o),
(315,-134,cs),
(309,-134,o),
(303,-134,o),
(297,-133,c),
(297,-232,l),
(311,-234,o),
(324,-235,o),
(336,-235,cs),
(449,-235,o),
(495,-155,o),
(495,0,cs)
);
},
{
closed = 1;
nodes = (
(161,525,ls),
(161,586,o),
(193,615,o),
(240,615,cs),
(264,615,o),
(286,611,o),
(323,592,c),
(323,690,l),
(294,702,o),
(262,710,o),
(226,710,cs),
(122,710,o),
(61,642,o),
(61,540,cs),
(61,0,ls),
(61,-95,o),
(34,-134,o),
(-19,-134,cs),
(-25,-134,o),
(-31,-134,o),
(-37,-133,c),
(-37,-232,l),
(-23,-234,o),
(-10,-235,o),
(2,-235,cs),
(115,-235,o),
(161,-155,o),
(161,0,cs)
);
}
);
width = 1004;
}
);
metricLeft = integral;
metricRight = integral;
unicode = 8749;
},
{
color = (153,254,255,255);
glyphname = rightArrow;
kernLeft = rightArrow;
kernRight = rightArrow;
lastChange = "2026-07-02 07:35:22 +0000";
layers = (
{
layerId = m001;
shapes = (
{
closed = 1;
nodes = (
(0.816,237,l),
(1488,237,l),
(1362,101,l),
(1997,288,l),
(1364,476,l),
(1488,337,l),
(0.816,337,l)
);
},
{
closed = 1;
nodes = (
(140.3,101,l),
(312.3,287,l),
(140.3,473,l),
(0.3,473,l),
(176.3,288,l),
(0.3,101,l)
);
},
{
closed = 1;
nodes = (
(356.3,101,l),
(528.3,287,l),
(356.3,473,l),
(216.3,473,l),
(392.3,288,l),
(216.3,101,l)
);
},
{
closed = 1;
nodes = (
(572.3,101,l),
(744.3,287,l),
(572.3,473,l),
(432.3,473,l),
(608.3,288,l),
(432.3,101,l)
);
}
);
width = 1997;
}
);
unicode = 8594;
},
{
color = (153,254,255,255);
glyphname = leftArrow;
kernLeft = leftArrow;
kernRight = leftArrow;
lastChange = "2026-07-02 07:35:22 +0000";
layers = (
{
layerId = m001;
shapes = (
{
closed = 1;
nodes = (
(1998.178,337,l),
(509,337,l),
(633,476,l),
(0,288,l),
(635,101,l),
(509,237,l),
(1998.178,237,l)
);
},
{
closed = 1;
nodes = (
(1426.7,101,l),
(1566.7,101,l),
(1390.7,288,l),
(1566.7,473,l),
(1426.7,473,l),
(1254.7,287,l)
);
},
{
closed = 1;
nodes = (
(1642.7,101,l),
(1782.7,101,l),
(1606.7,288,l),
(1782.7,473,l),
(1642.7,473,l),
(1470.7,287,l)
);
},
{
closed = 1;
nodes = (
(1859,101,l),
(1999,101,l),
(1823,288,l),
(1999,473,l),
(1859,473,l),
(1687,287,l)
);
}
);
width = 1999;
}
);
unicode = 8592;
},
{
color = (153,254,255,255);
glyphname = rightArrow.ss01;
kernLeft = rightArrow.ss01;
kernRight = rightArrow.ss01;
lastChange = "2026-07-02 07:35:19 +0000";
layers = (
{
layerId = m001;
shapes = (
{
closed = 1;
nodes = (
(0.715,237,l),
(1146,237,l),
(1175.167,56.695,o),
(1325.349,-64,o),
(1516,-64,cs),
(1694.149,-64,o),
(1846.566,55.04,o),
(1876,237,c),
(2510,237,l),
(2384,101,l),
(3019,288,l),
(2386,476,l),
(2510,337,l),
(1876,337,l),
(1846.538,505.739,o),
(1695.302,646,o),
(1516,646,cs),
(1326.037,646,o),
(1175.43,505.553,o),
(1146,337,c),
(0.714,337,l)
);
},
{
closed = 1;
nodes = (
(1385.905,26,o),
(1275.637,115.758,o),
(1246,237,c),
(1517,237,l),
(1517,337,l),
(1246,337,l),
(1275.239,456.612,o),
(1387.959,546,o),
(1516,546,cs),
(1655.86,546,o),
(1776,425.86,o),
(1776,286,cs),
(1776,145.342,o),
(1654.96,26,o),
(1516,26,cs)
);
},
{
closed = 1;
nodes = (
(140.3,101,l),
(312.3,287,l),
(140.3,473,l),
(0.3,473,l),
(176.3,288,l),
(0.3,101,l)
);
},
{
closed = 1;
nodes = (
(356.3,101,l),
(528.3,287,l),
(356.3,473,l),
(216.3,473,l),
(392.3,288,l),
(216.3,101,l)
);
},
{
closed = 1;
nodes = (
(572.3,101,l),
(744.3,287,l),
(572.3,473,l),
(432.3,473,l),
(608.3,288,l),
(432.3,101,l)
);
}
);
width = 3019;
}
);
},
{
color = (153,254,255,255);
glyphname = leftArrow.ss01;
kernLeft = leftArrow.ss01;
kernRight = leftArrow.ss01;
lastChange = "2026-07-02 07:35:22 +0000";
layers = (
{
layerId = m001;
shapes = (
{
closed = 1;
nodes = (
(3018.157,237,l),
(3018.157,337,l),
(1873,337,l),
(1843.57,505.553,o),
(1692.963,646,o),
(1503,646,cs),
(1323.698,646,o),
(1172.462,505.739,o),
(1143,337,c),
(509,337,l),
(633,476,l),
(0,288,l),
(635,101,l),
(509,237,l),
(1143,237,l),
(1172.434,55.04,o),
(1324.851,-64,o),
(1503,-64,cs),
(1693.651,-64,o),
(1843.833,56.695,o),
(1873,237,c)
);
},
{
closed = 1;
nodes = (
(1364.04,26,o),
(1243,145.342,o),
(1243,286,cs),
(1243,425.86,o),
(1363.14,546,o),
(1503,546,cs),
(1631.041,546,o),
(1743.761,456.612,o),
(1773,337,c),
(1502,337,l),
(1502,237,l),
(1773,237,l),
(1743.363,115.758,o),
(1633.095,26,o),
(1503,26,cs)
);
},
{
closed = 1;
nodes = (
(2447,101,l),
(2587,101,l),
(2411,288,l),
(2587,473,l),
(2447,473,l),
(2275,287,l)
);
},
{
closed = 1;
nodes = (
(2663,101,l),
(2803,101,l),
(2627,288,l),
(2803,473,l),
(2663,473,l),
(2491,287,l)
);
},
{
closed = 1;
nodes = (
(2879,101,l),
(3019,101,l),
(2843,288,l),
(3019,473,l),
(2879,473,l),
(2707,287,l)
);
}
);
width = 3019;
}
);
},
{
color = (153,254,255,255);
glyphname = rightArrow.ss02;
kernLeft = rightArrow.ss02;
kernRight = rightArrow.ss02;
lastChange = "2026-07-02 07:35:19 +0000";
layers = (
{
layerId = m001;
shapes = (
{
closed = 1;
nodes = (
(365,101,l),
(1000,288,l),
(367,476,l),
(491,337,l),
(0,337,l),
(0,237,l),
(491,237,l)
);
}
);
width = 1000;
}
);
},
{
color = (153,254,255,255);
glyphname = leftArrow.ss02;
kernLeft = leftArrow.ss02;
kernRight = leftArrow.ss02;
lastChange = "2026-07-02 07:35:22 +0000";
layers = (
{
layerId = m001;
shapes = (
{
closed = 1;
nodes = (
(635,101,l),
(0,288,l),
(633,476,l),
(509,337,l),
(1000,337,l),
(1000,237,l),
(509,237,l)
);
}
);
width = 1000;
}
);
},
{
color = (153,254,255,255);
glyphname = rightArrow.ss03;
kernLeft = rightArrow.ss03;
kernRight = rightArrow.ss03;
lastChange = "2026-07-02 07:35:22 +0000";
layers = (
{
layerId = m001;
shapes = (
{
closed = 1;
nodes = (
(0,237,l),
(998,237,l),
(998,337,l),
(0,337,l)
);
},
{
closed = 1;
nodes = (
(140.3,101,l),
(312.3,287,l),
(140.3,473,l),
(0.3,473,l),
(176.3,288,l),
(0.3,101,l)
);
},
{
closed = 1;
nodes = (
(356.3,101,l),
(528.3,287,l),
(356.3,473,l),
(216.3,473,l),
(392.3,288,l),
(216.3,101,l)
);
},
{
closed = 1;
nodes = (
(572.3,101,l),
(744.3,287,l),
(572.3,473,l),
(432.3,473,l),
(608.3,288,l),
(432.3,101,l)
);
}
);
width = 998;
}
);
},
{
color = (153,254,255,255);
glyphname = leftArrow.ss03;
kernLeft = leftArrow.ss03;
kernRight = leftArrow.ss03;
lastChange = "2026-07-02 07:35:22 +0000";
layers = (
{
layerId = m001;
shapes = (
{
closed = 1;
nodes = (
(998,237,l),
(0,237,l),
(0,337,l),
(998,337,l)
);
},
{
closed = 1;
nodes = (
(253.7,287,l),
(425.7,473,l),
(565.7,473,l),
(389.7,288,l),
(565.7,101,l),
(425.7,101,l)
);
},
{
closed = 1;
nodes = (
(469.7,287,l),
(641.7,473,l),
(781.7,473,l),
(605.7,288,l),
(781.7,101,l),
(641.7,101,l)
);
},
{
closed = 1;
nodes = (
(686,287,l),
(858,473,l),
(998,473,l),
(822,288,l),
(998,101,l),
(858,101,l)
);
}
);
width = 998;
}
);
},
{
color = (153,254,255,255);
glyphname = rightArrow.ss04;
kernLeft = rightArrow.ss04;
kernRight = rightArrow.ss04;
lastChange = "2026-07-02 07:35:22 +0000";
layers = (
{
layerId = m001;
shapes = (
{
closed = 1;
nodes = (
(690.651,-64,o),
(840.833,56.695,o),
(870,237,c),
(1000,237,l),
(1000,337,l),
(870,337,l),
(840.57,505.553,o),
(689.963,646,o),
(500,646,cs),
(320.322,646,o),
(169.449,505.66,o),
(140,337,c),
(0,337,l),
(0,237,l),
(140,237,l),
(169.373,55.423,o),
(320.995,-64,o),
(500,-64,cs)
);
},
{
closed = 1;
nodes = (
(360.043,26,o),
(240,146.043,o),
(240,286,cs),
(240,424.96,o),
(359.342,546,o),
(500,546,cs),
(628.041,546,o),
(740.761,456.612,o),
(770,337,c),
(499,337,l),
(499,237,l),
(679.667,237,o),
(770,237,o),
(770,237,c),
(740.363,115.758,o),
(630.095,26,o),
(500,26,cs)
);
}
);
width = 1000;
}
);
},
{
color = (153,254,255,255);
glyphname = leftArrow.ss04;
kernLeft = leftArrow.ss04;
kernRight = leftArrow.ss04;
lastChange = "2026-07-02 07:35:22 +0000";
layers = (
{
layerId = m001;
shapes = (
{
closed = 1;
nodes = (
(678.149,-64,o),
(830.565,55.041,o),
(860,237,c),
(1000,237,l),
(1000,337,l),
(860,337,l),
(830.538,505.739,o),
(679.302,646,o),
(500,646,cs),
(310.037,646,o),
(159.43,505.553,o),
(130,337,c),
(0,337,l),
(0,237,l),
(130,237,l),
(159.167,56.695,o),
(309.349,-64,o),
(500,-64,cs)
);
},
{
closed = 1;
nodes = (
(369.905,26,o),
(259.637,115.758,o),
(230,237,c),
(501,237,l),
(501,337,l),
(230,337,l),
(259.239,456.612,o),
(371.959,546,o),
(500,546,cs),
(639.86,546,o),
(760,425.86,o),
(760,286,cs),
(760,145.342,o),
(638.96,26,o),
(500,26,cs)
);
}
);
width = 1000;
}
);
},
{
color = 4;
glyphname = dieresiscomb;
kernLeft = dieresiscomb;
kernRight = dieresiscomb;
lastChange = "2026-07-01 11:37:32 +0000";
layers = (
{
anchors = (
{
name = _top;
pos = (188,475);
},
{
name = top;
pos = (188,628);
}
);
layerId = m001;
shapes = (
{
closed = 1;
nodes = (
(344,608,l),
(274,679,l),
(204,608,l),
(274,538,l)
);
},
{
closed = 1;
nodes = (
(171,608,l),
(101,679,l),
(31,608,l),
(101,538,l)
);
}
);
width = 375;
}
);
unicode = 776;
userData = {
KernOnSpecialSpacing = {
L = NoKerning;
R = NoKerning;
};
};
},
{
color = 4;
glyphname = dotaccentcomb;
kernLeft = dotaccentcomb;
kernRight = dotaccentcomb;
lastChange = "2026-07-01 11:37:32 +0000";
layers = (
{
anchors = (
{
name = _top;
pos = (101,475);
},
{
name = top;
pos = (101,628);
}
);
layerId = m001;
shapes = (
{
closed = 1;
nodes = (
(171,608,l),
(101,679,l),
(31,608,l),
(101,538,l)
);
}
);
width = 202;
}
);
unicode = 775;
userData = {
KernOnSpecialSpacing = {
L = NoKerning;
R = NoKerning;
};
};
},
{
color = 4;
glyphname = gravecomb;
kernLeft = gravecomb;
kernRight = gravecomb;
lastChange = "2026-07-01 11:37:32 +0000";
layers = (
{
anchors = (
{
name = _top;
pos = (155,475);
},
{
name = top;
pos = (118,659);
}
);
layerId = m001;
shapes = (
{
closed = 1;
nodes = (
(222,557,l),
(120,710,l),
(0,710,l),
(133,557,l)
);
}
);
width = 252;
}
);
unicode = 768;
userData = {
KernOnSpecialSpacing = {
L = NoKerning;
R = NoKerning;
};
};
},
{
color = 4;
glyphname = hungarumlautcomb;
kernLeft = hungarumlautcomb;
kernRight = hungarumlautcomb;
lastChange = "2026-07-01 11:37:32 +0000";
layers = (
{
anchors = (
{
name = _top;
pos = (144,475);
},
{
name = top;
pos = (219,659);
}
);
layerId = m001;
shapes = (
{
closed = 1;
nodes = (
(219,557,l),
(302,710,l),
(202,710,l),
(150,557,l)
);
},
{
closed = 1;
nodes = (
(89,557,l),
(172,710,l),
(72,710,l),
(20,557,l)
);
}
);
width = 322;
}
);
unicode = 779;
userData = {
KernOnSpecialSpacing = {
L = NoKerning;
R = NoKerning;
};
};
},
{
color = 4;
glyphname = caroncomb.alt;
kernLeft = caroncomb.alt;
kernRight = caroncomb.alt;
lastChange = "2026-07-01 11:37:32 +0000";
layers = (
{
anchors = (
{
name = _topright;
pos = (87,700);
}
);
layerId = m001;
shapes = (
{
closed = 1;
nodes = (
(116,485,o),
(187,542,o),
(187,620,cs),
(187,700,l),
(87,700,l),
(87,620,ls),
(87,541,o),
(65,508,o),
(30,496,c),
(30,485,l)
);
}
);
width = 217;
}
);
userData = {
KernOnSpecialSpacing = {
L = NoKerning;
R = NoKerning;
};
};
},
{
color = 4;
glyphname = circumflexcomb;
kernLeft = circumflexcomb;
kernRight = circumflexcomb;
lastChange = "2026-07-01 11:37:32 +0000";
layers = (
{
anchors = (
{
name = _top;
pos = (193,475);
},
{
name = top;
pos = (193,659);
}
);
layerId = m001;
shapes = (
{
closed = 1;
nodes = (
(127,557,l),
(193,629,l),
(258,557,l),
(355,557,l),
(193,734,l),
(30,557,l)
);
}
);
width = 385;
}
);
unicode = 770;
userData = {
KernOnSpecialSpacing = {
L = NoKerning;
R = NoKerning;
};
};
},
{
color = 4;
glyphname = brevecomb;
kernLeft = brevecomb;
kernRight = brevecomb;
lastChange = "2026-07-01 11:37:32 +0000";
layers = (
{
anchors = (
{
name = _top;
pos = (195,475);
},
{
name = top;
pos = (195,659);
}
);
layerId = m001;
shapes = (
{
closed = 1;
nodes = (
(289,558,o),
(360,627,o),
(360,710,c),
(269,710,l),
(269,664,o),
(237,630,o),
(195,630,cs),
(153,630,o),
(121,664,o),
(121,710,c),
(30,710,l),
(30,627,o),
(101,558,o),
(195,558,cs)
);
}
);
width = 390;
}
);
unicode = 774;
userData = {
KernOnSpecialSpacing = {
L = NoKerning;
R = NoKerning;
};
};
},
{
color = 4;
glyphname = ringcomb;
kernLeft = ringcomb;
kernRight = ringcomb;
lastChange = "2026-07-01 11:37:32 +0000";
layers = (
{
anchors = (
{
name = _top;
pos = (123,475);
},
{
name = top;
pos = (122,659);
}
);
layerId = m001;
shapes = (
{
closed = 1;
nodes = (
(174,541,o),
(215,582,o),
(215,634,cs),
(215,686,o),
(174,726,o),
(122,726,cs),
(70,726,o),
(30,686,o),
(30,634,cs),
(30,582,o),
(70,541,o),
(122,541,cs)
);
},
{
closed = 1;
nodes = (
(99,590,o),
(82,609,o),
(82,634,cs),
(82,660,o),
(99,679,o),
(122,679,cs),
(145,679,o),
(163,660,o),
(163,634,c),
(163,609,o),
(145,590,o),
(122,590,cs)
);
}
);
width = 245;
}
);
unicode = 778;
userData = {
KernOnSpecialSpacing = {
L = NoKerning;
R = NoKerning;
};
};
},
{
color = 4;
glyphname = tildecomb;
kernLeft = tildecomb;
kernRight = tildecomb;
lastChange = "2026-07-01 11:37:32 +0000";
layers = (
{
anchors = (
{
name = _top;
pos = (205,475);
},
{
name = top;
pos = (205,659);
}
);
layerId = m001;
shapes = (
{
closed = 1;
nodes = (
(320,560,o),
(348,591,o),
(380,625,c),
(341,695,l),
(313,666,o),
(295,651,o),
(267,651,cs),
(220,651,o),
(197,697,o),
(135,697,cs),
(88,697,o),
(61,675,o),
(30,629,c),
(72,570,l),
(92,594,o),
(116,610,o),
(138,610,cs),
(178,610,o),
(211,560,o),
(273,560,cs)
);
}
);
width = 410;
}
);
unicode = 771;
userData = {
KernOnSpecialSpacing = {
L = NoKerning;
R = NoKerning;
};
};
},
{
color = 4;
glyphname = macroncomb;
kernLeft = macroncomb;
kernRight = macroncomb;
lastChange = "2026-07-01 11:37:32 +0000";
layers = (
{
anchors = (
{
name = _top;
pos = (174,475);
},
{
name = top;
pos = (174,659);
}
);
layerId = m001;
shapes = (
{
closed = 1;
nodes = (
(327,582,l),
(327,672,l),
(20,672,l),
(20,582,l)
);
}
);
width = 347;
}
);
unicode = 772;
userData = {
KernOnSpecialSpacing = {
L = NoKerning;
R = NoKerning;
};
};
},
{
color = 4;
glyphname = commaturnedabovecomb;
kernLeft = commaturnedabovecomb;
kernRight = commaturnedabovecomb;
lastChange = "2026-07-01 11:37:32 +0000";
layers = (
{
anchors = (
{
name = _top;
pos = (80,475);
},
{
name = top;
pos = (80,710);
}
);
guides = (
{
pos = (93,557);
}
);
layerId = m001;
shapes = (
{
closed = 1;
nodes = (
(130,557,l),
(130,657,ls),
(130,736,o),
(152,769,o),
(187,781,c),
(187,792,l),
(101,792,o),
(30,735,o),
(30,657,c),
(30,557,l)
);
}
);
width = 217;
}
);
unicode = 786;
userData = {
KernOnSpecialSpacing = {
L = NoKerning;
R = NoKerning;
};
};
},
{
color = 4;
glyphname = commaaccentcomb;
kernLeft = commaaccentcomb;
kernRight = commaaccentcomb;
lastChange = "2026-07-06 13:22:10 +0000";
layers = (
{
.lastUpdate = 805036930.438;
anchors = (
{
name = _bottom;
pos = (137,0);
},
{
name = bottom;
pos = (137,-263);
}
);
guides = (
{
pos = (237,-68);
}
);
layerId = m001;
shapes = (
{
closed = 1;
nodes = (
(116,-235,o),
(187,-178,o),
(187,-100,cs),
(187,-58,l),
(87,-58,l),
(87,-100,ls),
(87,-179,o),
(65,-212,o),
(30,-224,c),
(30,-235,l)
);
}
);
width = 217;
}
);
unicode = 806;
userData = {
KernOnSpecialSpacing = {
L = NoKerning;
R = NoKerning;
};
};
},
{
color = 4;
glyphname = cedillacomb;
kernLeft = cedillacomb;
kernRight = cedillacomb;
lastChange = "2026-07-01 11:37:32 +0000";
layers = (
{
anchors = (
{
name = _bottom;
pos = (128,0);
},
{
name = bottom;
pos = (128,-195);
}
);
layerId = m001;
shapes = (
{
closed = 1;
nodes = (
(171,-195,o),
(218,-158,o),
(218,-105,cs),
(218,-53,o),
(169,-26,o),
(110,-38,c),
(102,-65,l),
(132,-65,o),
(154,-76,o),
(154,-102,cs),
(154,-125,o),
(138,-136,o),
(114,-136,cs),
(91,-136,o),
(72,-130,o),
(55,-122,c),
(38,-175,l),
(61,-186,o),
(81,-195,o),
(118,-195,cs)
);
},
{
closed = 1;
nodes = (
(130,-65,l),
(152,0,l),
(100,0,l),
(78,-65,l)
);
}
);
width = 230;
}
);
unicode = 807;
userData = {
KernOnSpecialSpacing = {
L = NoKerning;
R = NoKerning;
};
};
},
{
color = 4;
glyphname = ogonekcomb;
kernLeft = ogonekcomb;
kernRight = ogonekcomb;
lastChange = "2026-07-01 11:37:32 +0000";
layers = (
{
anchors = (
{
name = _ogonek;
pos = (123,0);
}
);
layerId = m001;
shapes = (
{
closed = 1;
nodes = (
(148,-199,o),
(171,-195,o),
(191,-184,c),
(191,-100,l),
(174,-110,o),
(157,-115,o),
(136,-115,cs),
(99,-115,o),
(84,-100,o),
(84,-73,cs),
(84,-46,o),
(98,-25,o),
(123,0,c),
(48,0,l),
(21,-25,o),
(7,-61,o),
(7,-98,cs),
(7,-168,o),
(62,-199,o),
(128,-199,cs)
);
}
);
width = 230;
}
);
unicode = 808;
userData = {
KernOnSpecialSpacing = {
L = NoKerning;
R = NoKerning;
};
};
},
{
color = 4;
glyphname = strokeshortcomb;
kernLeft = strokeshortcomb;
kernRight = strokeshortcomb;
lastChange = "2026-07-01 11:37:32 +0000";
layers = (
{
anchors = (
{
name = _center;
pos = (199,430);
}
);
layerId = m001;
shapes = (
{
closed = 1;
nodes = (
(368,385,l),
(368,475,l),
(30,475,l),
(30,385,l)
);
}
);
width = 398;
}
);
unicode = 821;
userData = {
KernOnSpecialSpacing = {
L = NoKerning;
R = NoKerning;
};
};
},
{
color = 4;
glyphname = dieresiscomb.case;
kernLeft = dieresiscomb.case;
kernRight = dieresiscomb.case;
lastChange = "2026-07-01 11:37:32 +0000";
layers = (
{
anchors = (
{
name = _top;
pos = (188,700);
},
{
name = top;
pos = (188,838);
}
);
layerId = m001;
shapes = (
{
closed = 1;
nodes = (
(344,823,l),
(274,894,l),
(204,823,l),
(274,753,l)
);
},
{
closed = 1;
nodes = (
(171,823,l),
(101,894,l),
(31,823,l),
(101,753,l)
);
}
);
width = 375;
}
);
},
{
color = 4;
glyphname = dotaccentcomb.case;
kernLeft = dotaccentcomb.case;
kernRight = dotaccentcomb.case;
lastChange = "2026-07-01 11:37:32 +0000";
layers = (
{
anchors = (
{
name = _top;
pos = (101,700);
},
{
name = top;
pos = (101,838);
}
);
layerId = m001;
shapes = (
{
closed = 1;
nodes = (
(171,823,l),
(101,894,l),
(31,823,l),
(101,753,l)
);
}
);
width = 202;
}
);
},
{
color = 4;
glyphname = gravecomb.case;
kernLeft = gravecomb.case;
kernRight = gravecomb.case;
lastChange = "2026-07-01 11:37:32 +0000";
layers = (
{
anchors = (
{
name = _top;
pos = (155,700);
},
{
name = top;
pos = (118,859);
}
);
layerId = m001;
shapes = (
{
closed = 1;
nodes = (
(216,766,l),
(125,902,l),
(5,902,l),
(127,766,l)
);
}
);
width = 252;
}
);
},
{
color = 4;
glyphname = acutecomb.case;
kernLeft = acutecomb.case;
kernRight = acutecomb.case;
lastChange = "2026-07-01 11:37:32 +0000";
layers = (
{
anchors = (
{
name = _top;
pos = (99,700);
},
{
name = top;
pos = (133,859);
}
);
layerId = m001;
shapes = (
{
closed = 1;
nodes = (
(247,902,l),
(127,902,l),
(36,766,l),
(125,766,l)
);
}
);
width = 252;
}
);
},
{
color = 4;
glyphname = hungarumlautcomb.case;
kernLeft = hungarumlautcomb.case;
kernRight = hungarumlautcomb.case;
lastChange = "2026-07-01 11:37:32 +0000";
layers = (
{
anchors = (
{
name = _top;
pos = (144,700);
},
{
name = top;
pos = (156,859);
}
);
guides = (
{
pos = (86,766);
},
{
pos = (87,902);
}
);
layerId = m001;
shapes = (
{
closed = 1;
nodes = (
(94,766,l),
(168,902,l),
(68,902,l),
(25,766,l)
);
},
{
closed = 1;
nodes = (
(223,766,l),
(297,902,l),
(197,902,l),
(154,766,l)
);
}
);
width = 322;
}
);
},
{
color = 4;
glyphname = circumflexcomb.case;
kernLeft = circumflexcomb.case;
kernRight = circumflexcomb.case;
lastChange = "2026-07-01 11:37:32 +0000";
layers = (
{
anchors = (
{
name = _top;
pos = (193,700);
},
{
name = top;
pos = (193,859);
}
);
layerId = m001;
shapes = (
{
closed = 1;
nodes = (
(126,762,l),
(228,858,l),
(157,858,l),
(260,762,l),
(359,762,l),
(193,919,l),
(27,762,l)
);
}
);
width = 385;
}
);
},
{
color = 4;
glyphname = caroncomb.case;
kernLeft = caroncomb.case;
kernRight = caroncomb.case;
lastChange = "2026-07-01 11:37:32 +0000";
layers = (
{
anchors = (
{
name = _top;
pos = (193,700);
},
{
name = top;
pos = (193,859);
}
);
guides = (
{
angle = 90;
pos = (193,791);
}
);
layerId = m001;
shapes = (
{
closed = 1;
nodes = (
(260,903,l),
(158,807,l),
(229,807,l),
(126,903,l),
(27,903,l),
(193,746,l),
(359,903,l)
);
}
);
width = 385;
}
);
},
{
color = 4;
glyphname = brevecomb.case;
kernLeft = brevecomb.case;
kernRight = brevecomb.case;
lastChange = "2026-07-01 11:37:32 +0000";
layers = (
{
anchors = (
{
name = _top;
pos = (195,700);
},
{
name = top;
pos = (195,859);
}
);
layerId = m001;
shapes = (
{
closed = 1;
nodes = (
(289,760,o),
(360,826,o),
(360,910,c),
(270,910,l),
(270,864,o),
(237,830,o),
(195,830,cs),
(153,830,o),
(120,864,o),
(120,910,c),
(30,910,l),
(30,826,o),
(101,760,o),
(195,760,cs)
);
}
);
width = 390;
}
);
},
{
color = 4;
glyphname = ringcomb.case;
kernLeft = ringcomb.case;
kernRight = ringcomb.case;
lastChange = "2026-07-01 11:37:32 +0000";
layers = (
{
anchors = (
{
name = _top;
pos = (123,700);
},
{
name = top;
pos = (122,859);
}
);
layerId = m001;
shapes = (
{
closed = 1;
nodes = (
(174,731,o),
(215,772,o),
(215,824,cs),
(215,876,o),
(174,916,o),
(122,916,cs),
(70,916,o),
(30,876,o),
(30,824,cs),
(30,772,o),
(70,731,o),
(122,731,cs)
);
},
{
closed = 1;
nodes = (
(99,780,o),
(82,799,o),
(82,824,cs),
(82,850,o),
(99,869,o),
(122,869,cs),
(145,869,o),
(163,850,o),
(163,824,c),
(163,799,o),
(145,780,o),
(122,780,cs)
);
}
);
width = 245;
}
);
},
{
color = 4;
glyphname = tildecomb.case;
kernLeft = tildecomb.case;
kernRight = tildecomb.case;
lastChange = "2026-07-01 11:37:32 +0000";
layers = (
{
anchors = (
{
name = _top;
pos = (205,700);
},
{
name = top;
pos = (205,859);
}
);
layerId = m001;
shapes = (
{
closed = 1;
nodes = (
(320,760,o),
(348,791,o),
(380,825,c),
(341,895,l),
(313,866,o),
(295,851,o),
(267,851,cs),
(220,851,o),
(197,897,o),
(135,897,cs),
(88,897,o),
(61,875,o),
(30,829,c),
(72,770,l),
(92,794,o),
(116,810,o),
(138,810,cs),
(178,810,o),
(211,760,o),
(273,760,cs)
);
}
);
width = 410;
}
);
},
{
color = 4;
glyphname = macroncomb.case;
kernLeft = macroncomb.case;
kernRight = macroncomb.case;
lastChange = "2026-07-01 11:37:32 +0000";
layers = (
{
anchors = (
{
name = _top;
pos = (174,700);
},
{
name = top;
pos = (174,859);
}
);
layerId = m001;
shapes = (
{
closed = 1;
nodes = (
(327,782,l),
(327,872,l),
(20,872,l),
(20,782,l)
);
}
);
width = 347;
}
);
},
{
color = 4;
glyphname = circumflexcomb.i;
kernLeft = circumflexcomb.i;
kernRight = circumflexcomb.i;
lastChange = "2026-07-01 11:37:32 +0000";
layers = (
{
anchors = (
{
name = _top;
pos = (172,475);
},
{
name = top;
pos = (172,659);
}
);
layerId = m001;
shapes = (
{
closed = 1;
nodes = (
(114,557,l),
(172,629,l),
(229,557,l),
(313,557,l),
(172,734,l),
(30,557,l)
);
}
);
width = 343;
}
);
},
{
color = 4;
glyphname = brevecomb.i;
kernLeft = brevecomb.i;
kernRight = brevecomb.i;
lastChange = "2026-07-01 11:37:32 +0000";
layers = (
{
anchors = (
{
name = _top;
pos = (174,475);
},
{
name = top;
pos = (174,659);
}
);
layerId = m001;
shapes = (
{
closed = 1;
nodes = (
(256,551,o),
(318,617,o),
(318,710,c),
(238,710,l),
(238,664,o),
(211,630,o),
(174,630,cs),
(137,630,o),
(110,664,o),
(110,710,c),
(30,710,l),
(30,617,o),
(92,551,o),
(174,551,cs)
);
}
);
width = 348;
}
);
},
{
color = 4;
glyphname = tildecomb.i;
kernLeft = tildecomb.i;
kernRight = tildecomb.i;
lastChange = "2026-07-01 11:37:32 +0000";
layers = (
{
anchors = (
{
name = _top;
pos = (170,475);
},
{
name = top;
pos = (170,659);
}
);
layerId = m001;
shapes = (
{
closed = 1;
nodes = (
(258,560,o),
(282,579,o),
(309,610,c),
(279,683,l),
(258,662,o),
(241,656,o),
(221,656,cs),
(178,656,o),
(159,694,o),
(113,694,cs),
(71,694,o),
(49,671,o),
(30,643,c),
(64,582,l),
(78,596,o),
(89,603,o),
(111,603,cs),
(150,603,o),
(173,560,o),
(223,560,cs)
);
}
);
width = 339;
}
);
},
{
color = 4;
glyphname = macroncomb.i;
kernLeft = macroncomb.i;
kernRight = macroncomb.i;
lastChange = "2026-07-01 11:37:32 +0000";
layers = (
{
anchors = (
{
name = _top;
pos = (134,475);
},
{
name = top;
pos = (134,659);
}
);
layerId = m001;
shapes = (
{
closed = 1;
nodes = (
(237,593,l),
(237,683,l),
(30,683,l),
(30,593,l)
);
}
);
width = 267;
}
);
},
{
color = 4;
glyphname = circumflexcomb.case.i;
kernLeft = circumflexcomb.case.i;
kernRight = circumflexcomb.case.i;
lastChange = "2026-07-01 11:37:32 +0000";
layers = (
{
anchors = (
{
name = _top;
pos = (175,700);
},
{
name = top;
pos = (175,859);
}
);
layerId = m001;
shapes = (
{
closed = 1;
nodes = (
(117,762,l),
(205,858,l),
(144,858,l),
(233,762,l),
(320,762,l),
(175,919,l),
(30,762,l)
);
}
);
width = 350;
}
);
},
{
color = 4;
glyphname = brevecomb.case.i;
kernLeft = brevecomb.case.i;
kernRight = brevecomb.case.i;
lastChange = "2026-07-01 11:37:32 +0000";
layers = (
{
anchors = (
{
name = _top;
pos = (195,700);
},
{
name = top;
pos = (195,859);
}
);
layerId = m001;
shapes = (
{
closed = 1;
nodes = (
(278,760,o),
(342,826,o),
(342,910,c),
(262,910,l),
(262,864,o),
(232,830,o),
(195,830,cs),
(158,830,o),
(128,864,o),
(128,910,c),
(48,910,l),
(48,826,o),
(112,760,o),
(195,760,cs)
);
}
);
width = 390;
}
);
},
{
color = 4;
glyphname = macroncomb.case.i;
kernLeft = macroncomb.case.i;
kernRight = macroncomb.case.i;
lastChange = "2026-07-01 11:37:32 +0000";
layers = (
{
anchors = (
{
name = _top;
pos = (134,700);
},
{
name = top;
pos = (134,859);
}
);
layerId = m001;
shapes = (
{
closed = 1;
nodes = (
(237,782,l),
(237,872,l),
(30,872,l),
(30,782,l)
);
}
);
width = 267;
}
);
},
